<svg id="workspace" xmlns="http://www.w3.org/2000/svg" xmlns:xlink="http://www.w3.org/1999/xlink" style="text-rendering: geometricprecision; cursor: auto;"><defs><linearGradient x1="0" y1="0.5" x2="1" y2="0.5" id="linearGradientSjtzzopd143"><stop offset="0%" stop-color="#31e89f" stop-opacity="0.6"></stop><stop offset="100%" stop-color="#31e89f" stop-opacity="0.6"></stop></linearGradient><linearGradient x1="0" y1="0.5" x2="1" y2="0.5" id="linearGradientSjtzzopd146"><stop offset="0%" stop-color="#31e8e8" stop-opacity="0.6"></stop><stop offset="100%" stop-color="#31e8e8" stop-opacity="0.6"></stop></linearGradient><linearGradient x1="0" y1="0.5" x2="1" y2="0.5" id="linearGradientSjtzzopd149"><stop offset="0%" stop-color="#31c6e8" stop-opacity="0.6"></stop><stop offset="100%" stop-color="#31c6e8" stop-opacity="0.6"></stop></linearGradient></defs><g class="svg-clip svg-visible" transform="matrix(-0.343,-0.1901,0.1901,-0.343,490.3501,456.4529)" style="cursor: move; opacity: 1;"><rect x="0" y="0" width="510" height="443" fill="none" class="svg-hitbox" style=""></rect><svg width="510" height="443.015" viewBox="-5,25.16,510,443.015" class="thumb"><desc>Created with Snap</desc><defs></defs><g></g><g></g><g></g><g><polygon points="125,463.175 0,246.667 125,30.16 374.999,30.16 500,246.667 374.999,463.175 " fill="url('#linearGradientSjtzzopd146')" stroke="none" style=""></polygon></g></svg></g><g class="svg-clip svg-visible" transform="matrix(-0.343,-0.1901,0.1901,-0.343,488.3501,361.4529)" style="cursor: move; opacity: 1;"><rect x="0" y="0" width="510" height="443" fill="none" class="svg-hitbox" style=""></rect><svg width="510" height="443.015" viewBox="-5,25.16,510,443.015" class="thumb"><desc>Created with Snap</desc><defs></defs><g></g><g></g><g></g><g><polygon points="125,463.175 0,246.667 125,30.16 374.999,30.16 500,246.667 374.999,463.175 " fill="url('#linearGradientSjtzzopd143')" stroke="none" style=""></polygon></g></svg></g><g class="svg-clip svg-visible" transform="matrix(-0.343,-0.1901,0.1901,-0.343,572.3501,407.4529)" style="cursor: move; opacity: 1;"><rect x="0" y="0" width="510" height="443" fill="none" class="svg-hitbox" style=""></rect><svg width="510" height="443.015" viewBox="-5,25.16,510,443.015" class="thumb"><desc>Created with Snap</desc><defs></defs><g></g><g></g><g></g><g><polygon points="125,463.175 0,246.667 125,30.16 374.999,30.16 500,246.667 374.999,463.175 " fill="url('#linearGradientSjtzzopd149')" stroke="none" style=""></polygon></g></svg></g><g class="selector-part" transform="matrix(-0.8746,-0.4848,0.4848,-0.8746,574.475,413.4327)"><rect x="0" y="0" width="210px" height="183px" fill="none" stroke="#2390bb" style="stroke-width: 2;"></rect><g transform="matrix(0.5,0,0,0.5,0,0)"><svg version="1.1" id="Calque_1" xmlns="http://www.w3.org/2000/svg" xmlns:xlink="http://www.w3.org/1999/xlink" x="195.5" y="-71px" width="28.94px" height="30px" viewBox="0 -15 28.94 30" enable-background="new 0 -15 28.94 30" xml:space="preserve" style="cursor: pointer;">
<g>
	<path fill="rgba(0,0,0,0)" d="M23.355-9.979c-0.352-0.263-0.712-0.511-1.084-0.739L20.34-7.486c0.317,0.195,0.629,0.414,0.929,0.646
		L23.355-9.979z" style=""></path>
	<path fill="rgba(0,0,0,0)" d="M28.894,0.081L25.092-0.13c0.292,2.317-0.217,4.718-1.539,6.756l-0.037-0.021
		c-0.376,0.583-0.821,1.137-1.335,1.648c-3.808,3.809-9.902,3.942-13.871,0.396C8.282,8.623,8.255,8.602,8.227,8.576
		C8.143,8.498,8.059,8.421,7.976,8.339c-0.052-0.051-0.104-0.1-0.153-0.152C7.8,8.163,7.776,8.14,7.753,8.115
		c-0.084-0.091-0.167-0.18-0.25-0.271v0.002C4.312,4.293,4.087-0.98,6.821-4.782l4.123,4.124l3.401-14.306L0.037-11.566l4.102,4.098
		C-0.064-2.14,0.193,5.554,4.917,10.587l0,0c0.012,0.016,0.023,0.025,0.033,0.037c0.091,0.098,0.181,0.199,0.278,0.293
		c0.021,0.023,0.047,0.043,0.07,0.068c0.075,0.074,0.148,0.146,0.225,0.22c0.051,0.045,0.099,0.086,0.15,0.133
		c0.053,0.047,0.104,0.094,0.156,0.14c0.144,0.13,0.291,0.257,0.439,0.375c0.01,0.012,0.018,0.016,0.027,0.023
		c5.574,4.563,13.804,4.115,18.842-1.194C27.94,7.722,29.185,3.851,28.894,0.081z" style=""></path>
	<path fill="rgba(0,0,0,0)" d="M24.122-3.353l3.544-1.319c-0.426-0.932-0.962-1.826-1.611-2.662L22.88-5.276
		C23.373-4.675,23.79-4.027,24.122-3.353z" style=""></path>
</g>
<desc>Created with Snap</desc><defs></defs><circle cx="14.5" cy="0" r="15" style="" fill="rgba(0,0,0,0)"></circle></svg></g><rect x="105" y="-21" width="0" height="21" fill="rgba(255,255,255,0)" stroke="#2390bb" style="stroke-width: 1; cursor: pointer;"></rect><circle cx="210" cy="183" r="7" fill="#ffffff" stroke="#2390bb" style="stroke-width: 2; cursor: se-resize;"></circle><circle cx="0" cy="183" r="7" fill="#ffffff" stroke="#2390bb" style="stroke-width: 2; cursor: sw-resize;"></circle><circle cx="210" cy="0" r="7" fill="#ffffff" stroke="#2390bb" style="stroke-width: 2; cursor: ne-resize;"></circle><circle cx="0" cy="0" r="7" fill="#ffffff" stroke="#2390bb" style="stroke-width: 2; cursor: nw-resize;"></circle><circle cx="105" cy="183" r="7" fill="#ffffff" stroke="#2390bb" style="stroke-width: 2; cursor: s-resize;"></circle><circle cx="105" cy="0" r="7" fill="#ffffff" stroke="#2390bb" style="stroke-width: 2; cursor: n-resize;"></circle><circle cx="0" cy="92" r="7" fill="#ffffff" stroke="#2390bb" style="stroke-width: 2; cursor: w-resize;"></circle><circle cx="210" cy="92" r="7" fill="#ffffff" stroke="#2390bb" style="stroke-width: 2; cursor: e-resize;"></circle><path stroke="#ff0000" fill="none" style="stroke-width: 3;"></path><line x1="0" x2="0" y1="0" y2="0" fill="rgba(255,255,255,0)" stroke="#2390bb" style="stroke-width: 1;"></line><line x1="0" x2="0" y1="0" y2="0" fill="rgba(255,255,255,0)" stroke="#2390bb" style="stroke-width: 1;"></line><circle cx="0" cy="0" r="0" fill="#ff0000" stroke="#2390bb" style="stroke-width: 2; cursor: pointer;"></circle><circle cx="0" cy="0" r="0" fill="#ffa500" stroke="#2390bb" style="stroke-width: 2; cursor: pointer;"></circle><circle cx="0" cy="0" r="0" fill="#ffa500" stroke="#2390bb" style="stroke-width: 2; cursor: pointer;"></circle><circle cx="0" cy="0" r="0" fill="#ff0000" stroke="#2390bb" style="stroke-width: 2; cursor: pointer;"></circle><g transform="matrix(1,0,0,1,-50,-15)" style="cursor: pointer; visibility: hidden; opacity: 0;"><rect x="0" y="0" width="30" height="30" fill="#2390bb" rx="5" ry="5" style=""></rect><rect x="6" y="6" width="18" height="4" style="" fill="#ffffff"></rect><rect x="6" y="13" width="18" height="4" fill="#ffffff" style=""></rect><rect x="6" y="20" width="18" height="4" fill="#ffffff" style=""></rect></g></g></svg>