<svg height="63" viewBox="0 0 270 63" width="270" xmlns="http://www.w3.org/2000/svg" xmlns:xlink="http://www.w3.org/1999/xlink"><linearGradient id="a"><stop offset="0" stop-color="#33596a"/><stop offset="1" stop-color="#15c1ce"/></linearGradient><linearGradient id="b" x1="14.58033%" x2="85.206328%" xlink:href="#a" y1="14.670654%" y2="85.342343%"/><linearGradient id="c" x1="1.077671%" x2="91.004928%" xlink:href="#a" y1="83.38358%" y2="24.251993%"/><linearGradient id="d" x1="86.563718%" x2="12.767418%" xlink:href="#a" y1="86.922575%" y2="30.441024%"/><linearGradient id="e" x1="8.024599%" x2="82.284449%" xlink:href="#a" y1="12.933134%" y2="101.860938%"/><g fill="none" transform="translate(3)"><path d="m39.9637097 1.88461538c.7737704.30163944 1.5238794.66163367 2.2439516 1.07692308-.7199779-.41547111-1.4701007-.77547199-2.2439516-1.07692308-10.5813091-3.23850404-22.0731322-.53803445-30.14206471 7.08309971-8.06893248 7.62113411-11.48757527 19.00365031-8.96680628 29.85536181 2.50393216 10.8411459 10.55285389 19.5145131 21.11836449 22.7567536 10.5655106 3.2422404 22.0446995.5614688 30.1185307-7.0336767-1.9399676 1.5640516-4.2041968 2.668233-6.625 3.2307693l-1.6028226.2692307 1.6028226-.2692307c2.4402344-.5531484 4.7238619-1.6578806 6.6784274-3.2307693 8.1036022-7.6125711 11.5495406-19.0112604 9.0343862-29.8845045-2.5151543-10.8732442-10.6073997-19.56096831-21.2158378-22.77703392zm-39.26915325 35.70000002c.03561828.3948718.0890457.8076923.16028226 1.2384615-.10685484-.4307692-.16028226-.8615384-.16028226-1.2384615zm-.05342742-1.2384616c.0040572-2.3787979.51417995-4.7290645 1.49596774-6.8923076-.98178779 2.1632431-1.49191054 4.5135097-1.49596774 6.8923076v.2153847c0 .0538461 0-.1615385 0-.2692308zm5.39616936-12.3846153c-1.46626536 1.3496594-2.67889928 2.9548554-3.5796371 4.7384615.90073782-1.7836061 2.11337174-3.3888021 3.5796371-4.7384615l1.22883064-1.023077zm1.86995967-1.5076923c1.11488155-.7547304 2.31697774-1.3695304 3.57963714-1.8307693-1.2626594.4612389-2.46475559 1.0760389-3.57963714 1.8307693zm5.12903224-2.3153847c1.3436002-.3519866 2.7256729-.5328833 4.1139113-.5384615-1.3882384.0055782-2.7703111.1864749-4.1139113.5384615zm11.5403226 1.2384616 1.5493952.8615384 16.3487903 9.4769231-.9082661.4846154-16.3487904 9.5307692c0-.3230769 0-.6461538 0-1.0230769v-18.9538461zm-5.1290323-1.6153846.4808468.1076923zm1.1219759.2153846.5342741.1076923zm1.0685483.2692307.5342742.1615385zm1.015121.323077.5877016.2153846zm.9616936.376923.5877016.2692308zm1.6028225 20.8384616v.5384615c0 .1615385 0-.3769231 0-.5384615zm2.2439516 8.0230769c1.6588822 2.8735934 4.1338853 5.1804452 7.1058468 6.6230769-2.9719615-1.4426317-5.4469646-3.7494835-7.1058468-6.6230769zm-2.0302419-5.8692308.1068549.5384616zm.2137097 1.0769231.1068548.5384616zm.2671371 1.0769231.1602822.4846154zm.3739919 1.1307692.1602823.4307693zm.4808468 1.1307693.1602823.376923zm15.7076613-16.6923077.4274193-.2692308zm.9082661-.5923077.4274194-.323077zm1.7096774-1.4.373992-.3769231zm-.8548387.7538461.4274194-.3230769zm1.65625-1.5076923.3205645-.3769231zm.7479839-.8615384.3205645-.3769231zm.7479839-.9692308.2137096-.3230769z" fill="url(#b)"/><path d="m39.9637097 1.88461538c6.0586187 2.38268293 10.1729108 8.11844342 10.5183557 14.66370582.3454448 6.5452624-3.1418975 12.6885341-8.9155331 15.705525l-16.3487904 9.476923c.1129473 6.3541255 3.7961564 12.0923648 9.5004079 14.8011185 5.7042515 2.7087538 12.439809 1.9180298 17.3735841-2.03958 8.0767348-7.6076478 11.5113639-18.9809455 9.009443-29.8335202-2.501921-10.8525746-10.5600619-19.53466905-21.1374672-22.77417212z" fill="url(#c)"/><path d="m0 31.7153846c-.00338944 2.3923197.26550503 4.7771366.80141129 7.1076923-.99977893-6.481139 1.85919541-12.9517058 7.30760666-16.5389233s12.47634355-3.6261601 17.96356265-.0995382l16.3487904 9.4769231c5.397697-3.2834384 8.477615-9.3706687 7.9446554-15.7020243-.5329597-6.33135565-4.5863557-11.80867012-10.4557441-14.12874497-9.3813616-2.86672773-19.5557057-1.08226899-27.424651 4.80995701-7.86894527 5.89222596-12.50102282 15.19474016-12.4856313 25.07465836z" fill="url(#d)"/><path d="m50.0614919 55.8923077c-5.2374384 3.055492-11.7114321 2.9888679-16.8858709-.1737732-5.1744388-3.162641-8.2254664-8.9177541-7.9578791-15.0108422v-18.9538461c-5.5163604-3.0852759-12.2928164-2.7441234-17.47664113.8798405-5.18382471 3.6239639-7.87464499 9.9012966-6.93968948 16.1893902 2.50393216 10.8411459 10.55285391 19.5145131 21.11836451 22.7567536 10.5655106 3.2422404 22.0446995.5614688 30.1185307-7.0336767-.6257529.4963316-1.2864269.9462316-1.9768146 1.3461539z" fill="url(#e)"/><g fill="#fff"><path d="m103.488911 12.0615385v6.0846153h-11.9143142v33.8692308h-7.3729839v-33.8153846h-12.0211694v-6.1384615z"/><path d="m109.633065 23.6923077v18.0384615c0 1.723077.391801 3.0692308 1.175403 4.0384616.783602.9692307 1.976814 1.4358974 3.579637 1.4 1.152579.0034268 2.288941-.2736543 3.3125-.8076923 1.067766-.5611011 2.04135-1.2879261 2.88508-2.1538462v-20.5153846h6.785283v28.3769231h-4.167339c-.79042.0523373-1.506962-.4667136-1.709677-1.2384616l-.480847-2.2615384c-.571989.5755817-1.178651 1.1150671-1.816532 1.6153846-.613186.4827529-1.275902.8979403-1.976815 1.2384615-.734152.3531654-1.504562.6240192-2.297379.8076923-.859458.1909936-1.737923.2813355-2.617944.2692308-1.394595.0193625-2.777764-.2557708-4.060483-.8076923-1.151944-.495196-2.175591-1.2505253-2.991936-2.2076923-.823566-.9976039-1.441155-2.150928-1.816532-3.3923077-.434124-1.4121648-.650357-2.883177-.641129-4.3615385v-18.0384615h6.785282z"/><path d="m143.826613 52.5c-2.422043 0-4.292003-.7-5.609879-2.1s-1.976815-3.3205128-1.976815-5.7615385v-15.8307692h-2.831653c-.378945.0189917-.746779-.1321281-1.004555-.4127086-.257777-.2805805-.379025-.6618096-.33113-1.0411375v-2.6923077l4.54133-.7538462 1.442541-7.7538461c.0596-.346487.251364-.6557136.534274-.8615385.291971-.2211027.650108-.3350849 1.015121-.3230769h3.526209v8.9923077h7.426412v4.8461538h-7.533266v15.3461539c-.055945.7563516.172975 1.5061734.641129 2.1.446446.5041231 1.093171.7806419 1.763104.7538461.362687.0074759.724001-.047146 1.068549-.1615385l.747984-.3230769.587701-.3230769.480847-.1615385c.173402 0 .342126.0566822.480847.1615385l.427419.4307692 2.030242 3.3384616c-1.009818.8426502-2.170547 1.4823991-3.419355 1.8846154-1.292532.4310949-2.645589.6492808-4.007056.6461538z"/><path d="m167.441532 23.2615385c1.676994-.0189649 3.343148.2730721 4.915323.8615384 1.443568.5382627 2.75546 1.3829852 3.846774 2.4769231 1.108372 1.1540979 1.963869 2.5299519 2.511089 4.0384615.628433 1.7420583.936228 3.5850551.908266 5.4384616.010139.4314822-.007708.8631711-.053428 1.2923077-.031869.2851299-.122885.5603168-.267137.8076923-.109701.1923347-.278462.3435202-.480846.4307692l-.747984.1076923h-17.417339c.21371 2.9076923.997312 5.0435898 2.350806 6.4076923 1.44178 1.4028512 3.394435 2.1432714 5.39617 2.0461539.957514.0221189 1.91267-.1050224 2.831653-.3769231.717471-.2273034 1.414525-.5155155 2.083669-.8615385l1.549396-.8615384c.387892-.2352662.829691-.3651341 1.282258-.3769231.241281-.0055585.480091.0499833.694556.1615385.213322.1170957.396338.283101.534274.4846153l1.976815 2.4769231c-.723896.8572018-1.570168 1.6012255-2.511089 2.2076923-.920433.5974907-1.906525 1.0853662-2.938508 1.4538462-1.005407.3547821-2.043505.6073212-3.09879.7538461-1.009023.1420561-2.026544.2140207-3.045363.2153846-1.860328.0187901-3.70802-.3098286-5.449597-.9692307-1.652544-.6370695-3.147553-1.6293036-4.381048-2.9076923-1.293846-1.3578879-2.294393-2.9713096-2.938508-4.7384616-.74919-2.1061406-1.111288-4.3322481-1.068549-6.5692307-.018655-1.8526825.288862-3.694017.908266-5.4384616.58505-1.6547492 1.493415-3.1744534 2.671371-4.4692307 1.200559-1.2944587 2.656453-2.3215716 4.274194-3.0153847 1.793216-.7509887 3.721855-1.117735 5.663306-1.076923zm.160283 4.9c-1.959006 0-3.508401.5564102-4.648186 1.6692307-1.208947 1.3217456-1.958975 3.0036389-2.137097 4.7923077h12.715726c-.002693-.839718-.128724-1.6744079-.373992-2.4769231-.23132-.7521587-.613171-1.4485434-1.121976-2.0461538-.50983-.6036352-1.149302-1.0823949-1.869959-1.4-.808485-.3569518-1.681859-.5403308-2.564516-.5384615z"/><path d="m192.33871 10.9846154v41.0846154h-6.731855v-41.0846154z"/><path d="m207.24496 10.9846154v41.0846154h-6.785283v-41.0846154z"/><path d="m221.082661 23.6923077v18.0384615c0 1.723077.391801 3.0692308 1.175404 4.0384616.783602.9692307 1.976814 1.4358974 3.579637 1.4 1.152579.0034268 2.288941-.2736543 3.3125-.8076923 1.067297-.5618569 2.040769-1.2885989 2.88508-2.1538462v-20.5153846h6.785283v28.3769231h-4.167339c-.790421.0523373-1.506962-.4667136-1.709678-1.2384616l-.480846-2.2615384c-.571896.5756817-1.178564 1.1151726-1.816533 1.6153846-.613185.4827529-1.275902.8979403-1.976814 1.2384615-.734316.3527653-1.504681.6236035-2.297379.8076923-.859382.1914708-1.737902.2818183-2.617944.2692308-1.394596.0193625-2.777764-.2557708-4.060484-.8076923-1.151943-.495196-2.17559-1.2505253-2.991935-2.2076923-.823567-.9976039-1.441155-2.150928-1.816532-3.3923077-.434125-1.4121648-.650358-2.883177-.641129-4.3615385v-18.0384615h6.785282z"/><path d="m262.756048 29.2384615c-.141094.2601694-.342775.4819093-.587701.6461539-.231224.1182685-.488979.1739346-.747984.1615384-.372056-.0051994-.737836-.0973612-1.068548-.2692307l-1.282259-.6461539-1.709677-.6461538c-.731879-.1947028-1.487173-.2853236-2.243952-.2692308-1.11541-.0627404-2.221078.2394517-3.152217.8615385-.751689.4999058-1.195653 1.3541149-1.175404 2.2615384-.00622.5604905.204606 1.1013464.587702 1.5076923.448431.4494412.973202.814189 1.549395 1.0769231.707134.3434594 1.439476.6314915 2.190524.8615385l2.511089.8076923 2.511089 1.0230769c.798022.3718174 1.536367.8618554 2.190524 1.4538462.648853.5901438 1.175431 1.3038497 1.549395 2.1.411591.9119565.612535 1.9061379.587702 2.9076923.010287 1.2948606-.244338 2.5779623-.747984 3.7692307-.49995 1.1406131-1.248699 2.1529053-2.190524 2.9615385-1.035563.8764097-2.234431 1.5354629-3.52621 1.9384615-2.47739.748664-5.095334.8962703-7.640121.4307693-.909636-.1762829-1.803167-.4284323-2.671371-.7538462-.815274-.3060352-1.601967-.684445-2.350806-1.1307692-.687567-.3981807-1.332166-.8673729-1.923387-1.4l1.549395-2.5846154c.175957-.2833138.413446-.5226639.694556-.7.323682-.1899569.694251-.2833251 1.068549-.2692308.419536.0095776.827513.1404061 1.175403.3769231l1.282258.7538462c.566171.2996367 1.155866.5517709 1.763105.7538461.810314.2659037 1.659059.3933032 2.511088.3769231.704388.0234448 1.407931-.06746 2.08367-.2692308.523282-.1584253 1.012543-.4141043 1.44254-.7538461.348523-.2894323.623303-.6586783.801411-1.0769231.174901-.4081113.265782-.8477577.267137-1.2923077.017249-.5945529-.193196-1.1729917-.587701-1.6153846-.442368-.4705566-.967782-.854011-1.549395-1.1307692-.724139-.3466808-1.474488-.6347685-2.243952-.8615385l-2.564516-.8076923c-.873886-.2903795-1.730185-.6319876-2.564516-1.0230769-.821126-.3820818-1.578186-.8907438-2.243952-1.5076923-.662993-.6404085-1.190101-1.4097892-1.549395-2.2615385-.420991-1.0227405-.621324-2.1240299-.587702-3.2307692-.003693-1.1496325.232965-2.2871534.694557-3.3384616.46676-1.0555296 1.160186-1.9934739 2.030242-2.7461538.974224-.8362063 2.098768-1.4760053 3.3125-1.8846154 1.481484-.4927012 3.03497-.729371 4.594758-.7 1.808567-.0230252 3.604537.306074 5.289314.9692308 1.470401.5729176 2.814004 1.4329748 3.953629 2.5307692z"/></g></g></svg>