<svg height="126" viewBox="0 0 100 126" width="100" xmlns="http://www.w3.org/2000/svg" xmlns:xlink="http://www.w3.org/1999/xlink"><mask id="a" fill="#fff"><path d="m99.479.37h-98.958v98.9585h98.958z" fill="#fff" fill-rule="evenodd"/></mask><g fill="none" fill-rule="evenodd"><path d="m83.275 71.9685c.417-2.121.638-4.312.638-6.553 0-5.608-1.37-10.902-3.79-15.567 2.42-4.664 3.79-9.958 3.79-15.566 0-2.242-.221-4.432-.638-6.553 6.483 5.2 10.645 13.181 10.645 22.119 0 8.939-4.162 16.919-10.645 22.12m-33.275 21.8c-8.939 0-16.919-4.162-22.12-10.645 2.121.417 4.312.638 6.553.638 5.609 0 10.902-1.37 15.567-3.79 4.665 2.42 9.958 3.79 15.567 3.79 2.241 0 4.432-.221 6.553-.638-5.201 6.483-13.181 10.645-22.12 10.645m-43.92-43.92c0-8.938 4.162-16.919 10.645-22.119-.417 2.121-.638 4.311-.638 6.553 0 5.608 1.37 10.902 3.79 15.566-2.42 4.665-3.79 9.959-3.79 15.567 0 2.241.221 4.432.638 6.553-6.483-5.201-10.645-13.181-10.645-22.12m61.628 6.553c.417-2.121.638-4.311.638-6.553 0-2.241-.221-4.432-.637-6.553 2.315 1.858 4.333 4.069 5.972 6.553-1.639 2.485-3.657 4.696-5.973 6.553m-24.261 11.156c2.121.417 4.312.638 6.553.638s4.432-.221 6.553-.638c-1.857 2.315-4.068 4.334-6.553 5.972-2.485-1.638-4.696-3.657-6.553-5.972m-11.155-24.262c-.417 2.121-.638 4.312-.638 6.553 0 2.242.221 4.432.638 6.553-2.316-1.857-4.334-4.068-5.973-6.553 1.639-2.484 3.657-4.695 5.973-6.553m30.495 6.553c0 3.781-.75 7.388-2.099 10.689-3.301 1.349-6.908 2.098-10.688 2.098s-7.387-.749-10.688-2.098c-1.349-3.301-2.099-6.908-2.099-10.689 0-3.78.75-7.387 2.099-10.688 3.301-1.349 6.908-2.098 10.688-2.098s7.387.749 10.688 2.098c1.349 3.301 2.099 6.908 2.099 10.688m-6.234-17.708c-2.121-.417-4.312-.638-6.553-.638s-4.432.221-6.553.638c1.857-2.316 4.068-4.334 6.553-5.973 2.485 1.639 4.696 3.657 6.553 5.973m-34.906 2.142c0-3.781.749-7.388 2.098-10.689 3.301-1.348 6.908-2.098 10.688-2.098 3.527 0 6.903.653 10.021 1.835-3.913 3.121-7.122 7.089-9.349 11.624-4.534 2.226-8.502 5.435-11.624 9.348-1.182-3.117-1.834-6.493-1.834-10.02m0 31.133c0-3.527.652-6.903 1.834-10.02 3.122 3.913 7.09 7.122 11.624 9.348 2.227 4.535 5.436 8.502 9.349 11.624-3.118 1.182-6.494 1.835-10.021 1.835-3.78 0-7.387-.75-10.688-2.099-1.349-3.301-2.098-6.908-2.098-10.688m56.706 0c0 3.78-.749 7.387-2.098 10.688-3.301 1.349-6.908 2.099-10.688 2.099-3.527 0-6.903-.653-10.021-1.835 3.913-3.122 7.122-7.089 9.349-11.624 4.534-2.226 8.502-5.435 11.624-9.348 1.182 3.117 1.834 6.493 1.834 10.02m0-31.133c0 3.527-.652 6.903-1.834 10.02-3.122-3.913-7.09-7.122-11.624-9.348-2.227-4.535-5.436-8.503-9.349-11.624 3.118-1.182 6.494-1.835 10.021-1.835 3.78 0 7.387.75 10.688 2.098 1.349 3.301 2.098 6.908 2.098 10.689m-28.353-28.353c8.939 0 16.919 4.161 22.12 10.644-2.121-.417-4.312-.637-6.553-.637-5.609 0-10.902 1.369-15.567 3.79-4.665-2.421-9.958-3.79-15.567-3.79-2.241 0-4.432.22-6.553.637 5.201-6.483 13.181-10.644 22.12-10.644m49.479 43.919c0-13.358-7.765-24.936-19.018-30.461-5.524-11.253-17.102-19.018-30.461-19.018s-24.937 7.765-30.461 19.018c-11.253 5.525-19.018 17.103-19.018 30.461 0 13.359 7.765 24.937 19.018 30.462 5.524 11.253 17.102 19.018 30.461 19.018s24.937-7.765 30.461-19.018c11.253-5.525 19.018-17.103 19.018-30.462" fill="#373760" mask="url(#a)" transform="translate(0 -.37)"/><g fill="#373760" transform="translate(3 113)"><path d="m4.8973 10.6765c1.186 0 2.313-.89 2.669-1.483v-1.897c-.178-.119-1.009-.475-2.076-.475-1.423 0-2.402.742-2.402 1.957 0 1.068.712 1.898 1.809 1.898m.356-5.693c1.245 0 2.342.356 2.342.356.03-1.868-.326-2.61-1.838-2.61-1.364 0-2.699.356-3.321.534-.356.089-.563-.148-.652-.474l-.238-1.098c-.089-.385.119-.592.386-.681.207-.089 1.897-.682 4.092-.682 3.795 0 4.151 2.312 4.151 5.278v6.315c0 .297-.267.564-.564.564h-.83c-.267 0-.385-.119-.504-.416l-.296-.8c-.653.623-1.809 1.512-3.648 1.512-2.223 0-3.825-1.512-3.825-3.973 0-2.165 1.72-3.825 4.745-3.825"/><path d="m19.2477.3281c1.809 0 3.202.741 4.3 2.105.207.267.148.623-.119.83l-.979.89c-.356.326-.563.089-.8-.119-.534-.593-1.394-1.126-2.372-1.126-1.928 0-3.44 1.631-3.44 3.647 0 2.046 1.483 3.677 3.41 3.677 1.512 0 2.135-.771 2.758-1.364.266-.267.533-.267.8-.06l.801.653c.296.237.415.533.207.83-.949 1.512-2.55 2.49-4.596 2.49-3.321 0-6.197-2.638-6.197-6.196 0-3.499 2.936-6.257 6.227-6.257"/><path d="m26.7787 1.1881c0-.296.267-.564.563-.564h.83c.268 0 .416.149.505.356l.326 1.009c.267-.267 1.631-1.661 3.914-1.661 1.719 0 2.965.682 3.825 1.898.326-.326 2.046-1.898 4.299-1.898 3.618 0 4.892 2.55 4.892 5.634v5.959c0 .297-.237.564-.563.564h-1.66c-.326 0-.563-.267-.563-.564v-6.078c0-1.868-.86-2.935-2.462-2.935-1.808 0-2.846 1.275-3.054 1.452.06.268.089.831.089 1.424v6.137c0 .297-.267.564-.563.564h-1.572c-.326 0-.563-.267-.563-.564v-6.078c0-1.898-.86-2.935-2.52-2.935-1.779 0-2.788 1.393-2.936 1.779v7.234c0 .297-.267.564-.563.564h-1.661c-.296 0-.563-.267-.563-.564z"/><path d="m57.4076 5.2502c-.089-1.423-1.275-2.639-2.728-2.639-1.601 0-2.846 1.156-3.024 2.639zm-2.698-4.922c3.083 0 5.456 2.313 5.456 5.486 0 .207-.03.592-.06.8-.029.297-.266.504-.533.504h-8.065c.089 1.601 1.482 3.173 3.409 3.173 1.068 0 2.047-.475 2.639-.86.356-.208.564-.326.801-.03l.83 1.127c.208.237.297.474-.059.771-.86.741-2.402 1.482-4.389 1.482-3.587 0-5.959-2.816-5.959-6.226 0-3.351 2.372-6.227 5.93-6.227z"/><path d="m74.871.3281c1.809 0 3.202.741 4.3 2.105.207.267.148.623-.119.83l-.979.89c-.356.326-.563.089-.8-.119-.534-.593-1.394-1.126-2.372-1.126-1.928 0-3.44 1.631-3.44 3.647 0 2.046 1.483 3.677 3.41 3.677 1.512 0 2.135-.771 2.758-1.364.266-.267.533-.267.8-.06l.801.653c.296.237.415.533.207.83-.949 1.512-2.55 2.49-4.596 2.49-3.321 0-6.197-2.638-6.197-6.196 0-3.499 2.936-6.257 6.227-6.257"/><path d="m87.5015 10.2317c1.868 0 3.351-1.661 3.351-3.706 0-1.987-1.483-3.618-3.351-3.618s-3.351 1.631-3.351 3.618c0 2.045 1.483 3.706 3.351 3.706m0-9.904c3.321 0 5.99 2.847 5.99 6.198 0 3.41-2.669 6.256-5.99 6.256s-5.989-2.846-5.989-6.256c0-3.351 2.668-6.198 5.989-6.198"/></g></g></svg>