<svg height="112" viewBox="0 0 110 112" width="110" xmlns="http://www.w3.org/2000/svg" xmlns:xlink="http://www.w3.org/1999/xlink"><linearGradient id="a" x1="16.8%" x2="27.8%" y1="27.59027%" y2="37.646933%"><stop offset="0" stop-color="#d9d9d9"/><stop offset="1" stop-color="#fff"/></linearGradient><g fill="none"><g fill="#fff"><path d="m31.5431423 94.2812102c-.5640864-.084693-1.1320937-.1408156-1.7018472-.1681529-7.1504671-.5109979-13.8564968-3.3324628-18.6535244-7.8483015-6.97857749-6.5691719-10.70713376-16.198259-11.14900212-28.7917409-.37367304-10.6730361 1.99728238-21.6847134 6.67940552-31.0106582 6.2746709-12.4981953 16.1338004-21.25265394 27.4703397-24.39501063 2.6857749-.74430998 5.3014862-1.32350318 5.6438641-1.24946921.3497774-.02094586.6973585-.06944011 1.0395117-.14503185 3.0736943-.58386412 11.8830361-.58619957 16.8234607-.00607219 2.7710191.32532909 7.8431635 1.06987262 8.0159873 1.17683652.3060139.09325597.6198648.15852758.9376858.19501062.4500424.06656051 1.8450106.36386412 3.1012526.66093418 16.1113801 3.80936306 27.1225902 11.76135886 30.401338 21.95469216.936985 2.9134819 1.10794 4.2790233 1.077813 8.6178344-.02499 3.6199575-.085011 4.343949-.60465 7.3060085-.317388 1.8081104-.6473885 3.7397664-.7335668 4.2923354-.0861784.552569-.4035669 2.1953291-.7053079 3.6528875-.3017409 1.4575584-.6803184 3.3058386-.8407643 4.1104034-1.5572824 7.7810403-2.2042038 10.3761996-3.5279405 14.1552017-2.1577283 6.16-5.0553291 10.5238004-8.9186412 13.4314437-2.1929937 1.6504671-6.2870489 3.4193419-9.4819533 4.0966242-.4019321.0852442-1.5115075.3363058-2.465775.5581741-.9542675.2218684-1.8996603.4273886-2.1005095.4568153-.2008493.0294268-1.3104247.273482-2.465775.5425266-1.1553503.2690445-2.6346284.6051167-3.2876221.747346-.6529936.1422293-1.762569.4290234-2.4657749.6387474s-1.8127813.5287473-2.465775.7085775c-.6529936.1798301-2.7077282.8230148-4.5662845 1.4290658-9.5882165 3.1269427-12.8889171 3.9469214-18.9041188 4.6942675-.9626752.1195754-6.052569.2769851-6.1520595.1903397z" opacity=".7" transform="translate(6.709299 6.62569)"/><path d="m58.3427389 97.3876008c-2.4921657-.2421868-4.3740765-.8113375-7.1537368-2.1628662-1.0574947-.5138004-2.1703397-1.0813163-2.4730148-1.2611465-.6457538-.38138-3.591465-2.2172824-4.1963482-2.6157112-.229809-.1513376-.9369852-.6051168-1.5715287-1.0084501-.6345435-.4033334-1.4115499-.902654-1.7268365-1.1093419-1.1815074-.7746709-5.2650531-3.2173248-5.5719321-3.3329299-.1753928-.0660934-.7728025-.3813801-1.3274734-.700637s-3.1528663-1.6784925-5.776051-3.0209129c-5.6966454-2.9165181-7.4921444-3.9310403-10.6090446-5.9946497-9.54781314-6.3211465-15.25963904-13.9489809-17.20227174-22.9727176-.79849257-3.7089384-.63057325-9.1082803.4108068-13.1327389 2.13997876-8.2787261 7.63390658-16.6270488 15.64755834-23.7772823 8.178068-7.29690025 17.5565606-12.27772828 27.7057538-14.71337584 6.6408704-1.59394904 14.3226539-1.79152866 20.6125053-.52991507 11.1324203 2.23292994 21.1125265 9.55692141 31.0928662 22.81577491 8.2607435 10.9750107 12.7835885 21.4978769 13.2796395 30.8969215.467091 8.8422717-2.384969 15.5660509-9.054565 21.3486412-1.6063271 1.3926327-4.0169853 3.2509554-5.9635883 4.5975796-.8269851.5719533-1.3372824.9306794-3.3924841 2.384501-.5408917.3827814-9.7253078 6.4332485-10.5695753 6.9631635-7.1053928 4.4607219-12.9220807 6.8258387-17.9435457 7.2990022-2.0897664.1968789-2.4426539.1989808-4.2173673.0266242z" opacity=".8" transform="translate(.233546 5.564926)"/><path d="m45.2036943 108.979406c-.3010404-.041338-1.286603-.163482-2.1899576-.273015-.7356107-.080117-1.4665763-.198294-2.1899575-.354056-.3010403-.085944-.9171338-.252229-1.368811-.369936-2.4713801-.642951-4.3061147-1.33845-7.1173037-2.698153-9.616242-4.650594-19.1238853-14.2404456-25.24628446-25.4662842-.86855626-1.5923142-1.57923567-2.9321656-1.57923567-2.9772399-.14045761-.3809607-.29993612-.7546362-.47783439-1.1196179-1.14764331-2.4921656-2.88171975-7.4734607-3.50622081-10.0711889-1.13503184-4.7220595-1.53929936-8.0612951-1.52692144-12.6147346.01564756-5.7092569.88537155-10.4142675 2.82987261-15.3068153 3.06622081-7.7151805 8.09656046-13.9721019 17.74246286-22.0684289 2.6624204-2.2354989 8.679724-6.37743099 12.2216773-8.41348195 1.8097452-1.04044586 7.0362632-3.64447983 7.3146496-3.64447983.2369259-.06328732.467182-.14932052.6875584-.25690021 2.2350873-.90315945 4.5311845-1.64729753 6.8711465-2.22685775.3503185-.07613588.7209554-.15951168.8211465-.18543524 2.0337155-.5259448 3.8016561-.69106157 7.4823355-.69900213 3.799087-.00817409 4.1337579.01938429 6.2048407.51239915 1.204395.28656051 2.2679618.59460722 2.3632485.68428875.130573.10215894.2906079.15948978.4563482.16348195.4346284.00186837 3.9824203 1.84944799 5.198259 2.70702761 3.4366242 2.42443736 7.037431 6.43044585 10.6886836 11.89144375.4362633.6525265.8407644 1.2272824.8991508 1.2774947.158811.1366242 4.9399575 7.2952654 4.9399575 7.3966242.2384055.4250964.5029768.8349792.7921868 1.2272824 4.3311041 6.2312314 7.313482 12.2055626 8.5860722 17.1992356.6354777 2.4938004.731465 3.2892569.7158174 5.9320595-.0263906 4.4702972-1.0862208 7.5435244-4.5641825 13.230828-.1228451.2006157-.2818896.4881104-.3538217.6387473-.0597209.132741-.1389945.2557843-.2351805.3650319-.3606342.4205113-.6712999.8814156-.9257749 1.3734819-.1205476.255236-.2739652.4936065-.4563482.7090446-.1995816.2320476-.3546072.4989481-.4572824.7872824-.0427028.1701777-.1431643.3202508-.284225.424586-.2276695.2323073-.4133607.5023102-.5488323.7980255-.1969888.3963795-.4221598.7781166-.6737792 1.1422717-.8969246 1.3054924-1.7208888 2.6596379-2.4681104 4.0562208-.3470488.6618684-1.0369427 1.9300213-1.5332272 2.8179618-.4962845.8879406-1.2520382 2.3251805-1.6794267 3.1937368-2.3436306 4.7617622-4.9481317 9.46-6.8442888 12.3463906-6.4640764 9.8400569-14.3137013 15.6521519-23.5488747 17.4362849-1.8179193.351953-5.8337368.600212-7.0385987.435095z" transform="translate(9.143546 .233546)"/></g><path d="m45.2036943 108.979406c-.3010404-.041338-1.286603-.163482-2.1899576-.273015-.7356107-.080117-1.4665763-.198294-2.1899575-.354056-.3010403-.085944-.9171338-.252229-1.368811-.369936-2.4713801-.642951-4.3061147-1.33845-7.1173037-2.698153-9.616242-4.650594-19.1238853-14.2404456-25.24628446-25.4662842-.86855626-1.5923142-1.57923567-2.9321656-1.57923567-2.9772399-.14045761-.3809607-.29993612-.7546362-.47783439-1.1196179-1.14764331-2.4921656-2.88171975-7.4734607-3.50622081-10.0711889-1.13503184-4.7220595-1.53929936-8.0612951-1.52692144-12.6147346.01564756-5.7092569.88537155-10.4142675 2.82987261-15.3068153 3.06622081-7.7151805 8.09656046-13.9721019 17.74246286-22.0684289 2.6624204-2.2354989 8.679724-6.37743099 12.2216773-8.41348195 1.8097452-1.04044586 7.0362632-3.64447983 7.3146496-3.64447983.2369259-.06328732.467182-.14932052.6875584-.25690021 2.2350873-.90315945 4.5311845-1.64729753 6.8711465-2.22685775.3503185-.07613588.7209554-.15951168.8211465-.18543524 2.0337155-.5259448 3.8016561-.69106157 7.4823355-.69900213 3.799087-.00817409 4.1337579.01938429 6.2048407.51239915 1.204395.28656051 2.2679618.59460722 2.3632485.68428875.130573.10215894.2906079.15948978.4563482.16348195.4346284.00186837 3.9824203 1.84944799 5.198259 2.70702761 3.4366242 2.42443736 7.037431 6.43044585 10.6886836 11.89144375.4362633.6525265.8407644 1.2272824.8991508 1.2774947.158811.1366242 4.9399575 7.2952654 4.9399575 7.3966242.2384055.4250964.5029768.8349792.7921868 1.2272824 4.3311041 6.2312314 7.313482 12.2055626 8.5860722 17.1992356.6354777 2.4938004.731465 3.2892569.7158174 5.9320595-.0263906 4.4702972-1.0862208 7.5435244-4.5641825 13.230828-.1228451.2006157-.2818896.4881104-.3538217.6387473-.0597209.132741-.1389945.2557843-.2351805.3650319-.3606342.4205113-.6712999.8814156-.9257749 1.3734819-.1205476.255236-.2739652.4936065-.4563482.7090446-.1995816.2320476-.3546072.4989481-.4572824.7872824-.0427028.1701777-.1431643.3202508-.284225.424586-.2276695.2323073-.4133607.5023102-.5488323.7980255-.1969888.3963795-.4221598.7781166-.6737792 1.1422717-.8969246 1.3054924-1.7208888 2.6596379-2.4681104 4.0562208-.3470488.6618684-1.0369427 1.9300213-1.5332272 2.8179618-.4962845.8879406-1.2520382 2.3251805-1.6794267 3.1937368-2.3436306 4.7617622-4.9481317 9.46-6.8442888 12.3463906-6.4640764 9.8400569-14.3137013 15.6521519-23.5488747 17.4362849-1.8179193.351953-5.8337368.600212-7.0385987.435095z" fill="url(#a)" transform="translate(9.143312 .233779)"/><path d="m42.0767516 101.223121c-.2802548-.038535-1.1976221-.152739-2.0383864-.254098-.6846957-.074579-1.3650692-.18457-2.0383864-.329533-.2802548-.079872-.8536094-.234946-1.2739915-.344246-2.3004247-.5985773-4.0081104-1.2459659-6.6249894-2.5115497-8.9511041-4.3287686-17.8008493-13.2553504-23.50076435-23.7048833-.80876858-1.4809129-1.4704034-2.7289809-1.4704034-2.7710191-.13040124-.3545588-.27849944-.7023557-.44373673-1.0420806-1.31877942-3.0396031-2.40964433-6.173088-3.26356688-9.3745223-1.05656051-4.3955627-1.43280255-7.5035882-1.42112527-11.7419746.01447983-5.3143312.82418259-9.6940127 2.63392782-14.2479193 2.85392781-7.1815286 7.53651801-13.00569 16.51494691-20.541741 2.4790871-2.0806581 8.0792781-5.93626323 11.3760085-7.83148616 1.6845648-.9685138 6.5493206-3.39248408 6.8085563-3.39248408.2204855-.05869251.4347858-.13854674.639915-.2384501 2.080492-.8406544 4.2177723-1.53328429 6.3958811-2.07271762.3269639-.0700637.6709767-.14853504.7643949-.17259024 1.8931211-.49044586 3.5386837-.64318471 6.9645648-.65065817 3.5363482-.00770701 3.8467304.01798301 5.7755839.47690021 1.1210191.26670913 2.1110191.55350319 2.1997664.63711253.1213726.0953649.2702808.14901441.424586.1529724.4047346.00163482 3.7070701 1.72146496 4.8385987 2.51972399 3.1995754 2.25675159 6.5504884 5.9855414 9.9490446 11.06866244.4061359.6072187.7826115 1.1422717.8370276 1.1889809.1478344.1272823 4.5980467 6.7905732 4.5980467 6.8849257.2218925.3956484.468134.7771394.7373036 1.1422717 4.031465 5.8001062 6.8076221 11.3610616 7.9921656 16.0095542.5915712 2.3212102.6807856 3.0615499.6663058 5.5207855-.0245223 4.1610828-1.0110191 7.0206157-4.2484289 12.3155627-.1142038.1868365-.2625053.4544798-.3292994.5946072-.0556364.1235772-.1294784.2381189-.2190658.3398089-.3357019.3914065-.6248937.8204135-.8617834 1.2784289-.1121473.2375709-.2548867.4594529-.424586.66-.1853293.2158826-.3292642.4640872-.424586.7321656-.03976.1583967-.1332893.2980716-.2646072.3951592-.2119462.2161888-.3848355.4674629-.5109979.7426752-.1833308.3689067-.3928921.7241853-.6270701 1.0630998-.8348843 1.2151381-1.6018541 2.4755665-2.2973885 3.7754989-.3229936.6160934-.9652441 1.7964331-1.4271974 2.6229512-.4619533.826518-1.1653928 2.1642675-1.5633546 2.9728025-2.1815499 4.4324629-4.6059873 8.8046709-6.3708917 11.4923142-6.0169144 9.1595046-13.3235457 14.5695117-21.9198939 16.2300214-1.6922717.326964-5.4301698.558641-6.5518896.404968z" fill="#fff" transform="translate(18.100722 9.690743)"/><g fill="#4e1664" transform="translate(21.71811 34.690403)"><path d="m12.4458811.23354565c-1.6815998.00142596-3.3497649.299482-4.92781316.88046709-1.50430839.57233246-2.8703823 1.45670274-4.00834395 2.59492569-1.12324214 1.11837438-2.01057008 2.45083551-2.60940552 3.91842887-.61514967 1.53331448-.92035553 3.1733297-.89798301 4.8252866-.0383723 2.1822319.50717382 4.3350668 1.58016985 6.2356688 1.09084636 1.9127929 2.70789704 3.4722105 4.65900212 4.4929512.89131941.4908874 1.84712469.8542475 2.83944798 1.079448 1.06865029.2688763 2.16778799.3973184 3.26963909.3820806.9177971-.0039131 1.8330009-.0977802 2.7324841-.2802547.9337444-.1906409 1.8474444-.4688561 2.7289808-.8309554v-.0203185l.1982803-6.0878344c.5921714 1.383113 1.4545414 2.6340696 2.5365393 3.6795117 1.0280719 1.0098222 2.2250016 1.8318567 3.5365817 2.4288747.6663631.2880606 1.3533486.5258513 2.0552017.71138l.0116773 22.2926327h8.0440127l.0086412-11.5018896 6.822569 11.5077283 23.87-.0058387v-6.2917197l-7.4900424-.0086412v-2.3884713l6.6212526-.0116773v-5.9414013l-6.6212526-.0116773v-2.1838853h10.3066029v16.8257962h.0233546v.0233545l8.3142251-.0116773.0116772-16.8386411 4.6153291-.0116773v-6.2877495l-3.8252441-.0116773c1.4755369-.7332183 2.7256601-1.8513334 3.6183227-3.236242.523777-.8165725.8786645-1.7297984 1.0437155-2.685775.2414862-1.3435881.3236943-4.0760722.3236943-4.0760722l-.0116773-12.58951163-8.3443525.01167728.0203185 13.15212315c.0406369.5116985-.1473673 1.5563482-.5773248 2.4870276-.1932344.2861399-.4592734.5155783-.7707007.6646709-.3933607.1674039-.8221394.2344933-1.2478344.1952442-.615367-.0038986-1.1874404-.3172793-1.522017-.833758h-.0028025v-.0028025c-.4237286-.9473079-.6021907-1.9860344-.5189384-3.0204459l-.0116773-12.65373673h-8.3553291l-.0116773 4.38201698c-.3952093-.92074522-1.0026177-1.73494457-1.7726115-2.37609341v-.00280255c-2.0197708-1.46888193-4.4912094-2.18187959-6.9830148-2.01456476h-.0028026l-10.4960085.01167729-.0116772 7.53091295c-.0745011-.22-.1518047-.43836518-.2391508-.65392782-.5973083-1.46460557-1.4861197-2.79249891-2.6124416-3.90301486-1.1529121-1.13399339-2.5235983-2.0226792-4.0293631-2.61244161-1.555786-.61096481-3.2151415-.91495131-4.8864755-.89518047-1.6693269.01354222-3.3236658.31642152-4.8895117.89518047l.0175159.04087049-.0028025.00280254c-.005138-.01424628-.0091083-.02942675-.0144799-.04367303-1.5030362.58675899-2.8695584 1.47594037-4.0148832 2.61244161-1.1177495 1.25670913-2.0675796 2.58838641-2.6269214 3.90698514l-.0116773-6.25388535-.0028026-.01751593c-1.7137202-.77940247-3.5753364-1.18016375-5.4579618-1.17496815zm38.4946285 6.52199575c.041104 0 .0815074-.00140127.1223779 0 .5845243.01954666 1.1462061.23170655 1.5976857.60348195.4491526.454958.684335 1.07902732.647155 1.71726115v.00280255c.0354823.62415162-.2004543 1.23319325-.647155 1.67055205l-.0175159-.0203185.0144799.0203185c-.5205816.4165594-1.1771099.6253338-1.8426752.585966h-1.3001486v-.0233546h-.0203185v-4.53078553h.0203185v-.02335457h1.3008492c.0404034-.00233545.0838429-.00186836.124947-.002569zm-38.1039066 1.06146497c.0756688 0 .1518046 0 .2274734.00280255.8656886-.0012458 1.7215208.18369996 2.509448.54229299.6551497.2980167 1.2639503.68886037 1.8076433 1.16048832l-.0144798.01751593.0233546.00280254c-.2087441.9557536-.3123535 1.9314673-.3089809 2.9097452.0036291.9549955.1022822 1.9072598.294501 2.8427176l-.0203184.0058387.0116772.0175159c-.6279143.4426802-1.3001729.8188445-2.0059235 1.1224204-.7758894.3338966-1.6103921.5102916-2.4550319.5189384h-.0028025c-1.1904054.0531461-2.3492173-.391594-3.19840766-1.2275159-.82404673-.8877123-1.25501422-2.0703888-1.19528663-3.2801486-.06103874-1.2454282.39125188-2.46141297 1.25133758-3.36422507v-.00280255c.82072011-.80772869 1.92451911-1.26287502 3.07602971-1.26838641zm16.4089172.18683652c.0665605 0 .1345223.00490446.2010828.00864119h.0028025c1.0824583-.04108399 2.1261062.40631617 2.8427176 1.21864119.7439727.90432843 1.1272032 2.05185713 1.0759448 3.22176223.0514374 1.1601929-.3322806 2.2977704-1.0759448 3.1897664v.0028026c-.7223699.8027294-1.7635399 1.243764-2.8427176 1.2041613h-.0032696c-1.0815482.0388784-2.1250703-.4018128-2.8513588-1.2041613v-.0028026c-.7477376-.8900337-1.133836-2.0284903-1.0817835-3.1897664-.0492377-1.1679048.3361844-2.3126053 1.0817835-3.2128875.6136262-.72964319 1.5004881-1.17459449 2.4522293-1.23031847.0665605-.00373673.1317197-.00607219.1982802-.00583864zm31.2404671 3.65031851.0175159.0086411h.0261571v1.7261359c-.0713017 1.3743222.0345067 2.7521072.3148195 4.0994268.2069215.918535.3236943 1.6348195 1.0117198 2.6357962.9175123 1.3935372 2.1868255 2.5200073 3.6795117 3.2654352l-.0086412.0203185v.0203184h-3.1021869v-.0203184l-.0175159.0116773-5.8047771-8.8492782.0203185-.0116773-.0028025-.0233545c1.297636-.1385573 2.4783861-.8129209 3.2570276-1.8601911.2370915-.3197164.4412373-.6625937.6093206-1.023397zm-11.0527814 4.6879617 3.7411678 7.0556476-.017516.0116773v.0203185h-3.7442038v-.0203185h-.0203184v-7.0586837h.0233545zm-8.2161358.0670276.0233545.0086412h.0203185v18.6602973h-.020552l-.0203185.0116773-6.7875371-11.4266879.0175159-.0116773-.0058387-.0203185c1.433264-.5860246 2.7392402-1.444514 3.8455627-2.5278981 1.1356522-1.1120453 2.0335044-2.4432503 2.6390658-3.9128238.1055626-.2569002.2015499-.5175371.2886624-.7814437z"/><path d="m21.6018047 38.7475584c-1.9163413-.0000527-3.5658734 1.3535534-3.9398582 3.2330478-.3739848 1.8794945.6317309 3.761446 2.4021219 4.4949852 1.7703909.7335392 3.8124109.1143784 4.8773038-1.4788469 1.0648928-1.5932254.8560905-3.716809-.4987183-5.072116-.7563242-.749156-1.7763151-1.1717764-2.8408492-1.1770701z"/></g></g></svg>