<svg height="65" viewBox="0 0 195 65" width="195" xmlns="http://www.w3.org/2000/svg"><g fill="#fff" fill-rule="evenodd"><path d="m71.8189535 40.906789c-.6679236 0-1.2010964.2176745-1.5982226.6530233s-.6309967 1.0371927-.7022591 1.8068272h4.3502491c0-.7949003-.1768604-1.4032226-.5312292-1.8256146-.3543688-.4230399-.8603322-.6342359-1.5185382-.6342359m.3414119 7.5693688c-1.2296013 0-2.2000664-.3750997-2.9113953-1.1240033-.7106811-.7489037-1.0663455-1.7886877-1.0663455-3.12 0-1.3410299.3297508-2.4067276.9905482-3.1964452.6607973-.7897176 1.547691-1.1842525 2.660681-1.1842525 1.0430233 0 1.8677243.3427077 2.4753987 1.0287708.6070266.6860631.9108638 1.5904485.9108638 2.713804v.7974917h-5.732093c.0252657.9769435.272093 1.718073.7404817 2.2246843.4683887.5059635 1.1272425.7586213 1.9778571.7586213.8953156 0 1.7815615-.1872259 2.656794-.5616777v1.1240033c-.4450664.1917608-.8668106.3297508-1.2639368.4133222-.3971263.0835715-.8765283.1256811-1.4388539.1256811"/><path d="m81.9589535 46.0540764c0 .7741694-.288289 1.3714784-.865515 1.7919269-.5772259.4198007-1.3870265.629701-2.429402.629701-1.1032724 0-1.9636046-.1742691-2.5809966-.5234551v-1.1693522c.3997176.2027741.828588.3621429 1.2866113.4781063.4580232.1166113.8998505.174917 1.3248338.174917.658206 0 1.1641695-.1049502 1.5185383-.3154984.3543687-.2099003.5312292-.5299335.5312292-.9600996 0-.3239203-.1405814-.6011961-.4210964-.8311794-.2811627-.2306313-.8292358-.5027243-1.6442192-.8162791-.7741695-.288289-1.3241861-.540299-1.6506977-.7553821-.3265116-.215083-.5694518-.4593189-.7288206-.7327076s-.2390532-.5999003-.2390532-.9795349c0-.6776412.2753323-1.2134053.8272924-1.6053488.5513123-.3919436 1.30799-.5882392 2.2700332-.5882392.8959635 0 1.771196.1820432 2.6263455.5467774l-.4476578 1.0248837c-.8350664-.3446512-1.5917441-.5163289-2.2700332-.5163289-.597309 0-1.0475581.093289-1.3513953.2805149-.3038372.187226-.4554319.4457143-.4554319.7748173 0 .2222093.0570099.4120266.1710299.568804.1140199.1574253.2973588.3064286.5500166.4483056.2533056.1418771.739186.3465947 1.4576412.6148007.987309.3595515 1.6539369.7210465 2.0005315 1.0857807.3465947.3640864.520216.8221097.520216 1.3740698"/><path d="m85.9192027 47.4357907c.2228571 0 .4379402-.016196.6452491-.0492359.207309-.0330398.3718605-.0673754.4936545-.1023588v.9639867c-.1366943.0654319-.3381727.1198505-.6037874.1632558-.2656146.0427575-.5046677.0641363-.7171594.0641363-1.6098838 0-2.4145017-.8473755-2.4145017-2.5427741v-4.9501495h-1.1920266v-.6070266l1.1920266-.524103.5312292-1.7763787h.7288206v1.9279734h2.4145017v.9795349h-2.4145017v4.8970265c0 .5007808.1192027.885598.3569602 1.153804.2377574.268206.5642691.402309.9795349.402309"/><path d="m89.127309 40.0033754v5.3978073c0 .6782891.154186 1.1842525.463206 1.5185382.308372.3336379.7923089.5007808 1.4498671.5007808.8706976 0 1.506877-.2377575 1.909186-.7132725.402309-.4761628.6037874-1.2529236.6037874-2.3309302v-4.3729236h1.2600498v8.3208638h-1.039784l-.1820432-1.1162292h-.0686711c-.2578406.410083-.6160964.7236378-1.0741196.9413123-.4580233.2176744-.9808306.3265116-1.5677741.3265116-1.0119269 0-1.7699003-.2403489-2.2739203-.7210465-.5033721-.4806977-.755382-1.2503323-.755382-2.3082558v-5.4431562z"/><path d="m99.8510133 47.4206312c.8603327 0 1.4842027-.2338704 1.8716117-.7022591.38676-.4683887.580465-1.2237708.580465-2.2661462v-.2656146c0-1.1797176-.196296-2.0206146-.58824-2.5246346-.392591-.503372-1.018405-.755382-1.878737-.755382-.7391861 0-1.3047509.2876412-1.6973422.8616279-.3919436.5746345-.5882392 1.3857309-.5882392 2.433289 0 1.0631063.195 1.8651329.585 2.4067276.3893521.5415947.9613953.812392 1.7154817.812392zm2.5207477-.2124917h-.068671c-.581761.8454319-1.452459 1.267824-2.6114455 1.267824-1.0883721 0-1.9344518-.3718605-2.5395349-1.1162293-.605083-.7437209-.9069767-1.8016445-.9069767-3.1731229s.3031894-2.4371761.9108638-3.1964452c.6070266-.7592691 1.4524584-1.1389036 2.5356478-1.1389036 1.1285385 0 1.9940535.410083 2.5965445 1.2302491h.098472l-.053123-.5999003-.030448-.5843522v-3.3862624h1.26005v11.8133721h-1.024884z"/><path d="m106.720066 48.3237857h-1.260049v-8.3208638h1.260049zm-1.366943-10.5753488c0-.2882891.071262-.4994851.212492-.6335881.141877-.134103.318737-.2014784.531877-.2014784.202126 0 .377043.0686711.523455.2053655.14706.1360465.220266.3465947.220266.629701 0 .2837541-.073206.4949501-.220266.6342359-.146412.1392857-.321329.2086046-.523455.2086046-.21314 0-.39-.0693189-.531877-.2086046-.14123-.1392858-.212492-.3504818-.212492-.6342359z"/><path d="m109.456545 44.156098c0 1.0631063.212492 1.872907.637475 2.429402.425631.556495 1.050149.8350664 1.875498.8350664.824701 0 1.451163-.2772757 1.878738-.8311794.427575-.5545515.64201-1.3656478.64201-2.433289 0-1.0579236-.214435-1.8612458-.64201-2.4106146-.427575-.5487209-1.058572-.8234053-1.894286-.8234053-.824701 0-1.447276.2707973-1.867076.812392-.420449.5415947-.630349 1.348804-.630349 2.4216279m6.339119 0c0 1.3565781-.341412 2.4157973-1.024883 3.17701-.683472.7618604-1.627376 1.1427907-2.831711 1.1427907-.743721 0-1.404519-.174917-1.981744-.524103-.576578-.3491861-1.022293-.8499668-1.335848-1.5029901-.313554-.6530232-.47098-1.4168272-.47098-2.2927076 0-1.3565781.339469-2.413206 1.017758-3.1698837.678289-.7566778 1.619601-1.1350166 2.823937-1.1350166 1.164169 0 2.089285.3874086 2.774701 1.161578.686063.7748173 1.02877 1.8223755 1.02877 3.1433223"/><path d="m74.4951827 29.1305382c.6076744 0 1.336495-.1328073 2.1864618-.3984219v2.5848837c-.8655149.3874086-1.9286212.5804651-3.1886711.5804651-1.3889701 0-2.4002491-.3511296-3.0338372-1.0527408-.6342359-.7022592-.9516777-1.7556479-.9516777-3.1601662v-6.138289h-1.6630067v-1.4693023l1.9130731-1.1615781 1.0022093-2.6872425h2.2207974v2.7105648h3.5644186v2.6075581h-3.5644186v6.138289c0 .4930067.1392857.8577409.4165614 1.092907.2766279.2351661.6426578.3530731 1.0980897.3530731"/><path d="m80.8569767 25.2814585c0 1.2600498.2060133 2.2130232.6199834 2.8582724s1.0883721.9678738 2.0219103.9678738c.926412 0 1.5917442-.3206811 1.9979402-.9620432.406196-.6413622.6102658-1.5962791.6102658-2.864103 0-1.2600499-.2053654-2.2052492-.6154485-2.835598-.410083-.6303489-1.0818937-.9451994-2.0154319-.9451994-.9264119 0-1.5943355.312907-2.0044186.9393688-.410083.6264618-.6148007 1.5736047-.6148007 2.8414286m8.8028572 0c0 2.0724418-.5467774 3.6933388-1.6396844 4.862691-1.0935548 1.1693522-2.6153322 1.7537043-4.5666279 1.7537043-1.2224751 0-2.3004817-.2675581-3.2340199-.8026744-.9341861-.5357641-1.6513456-1.304103-2.1527741-2.3063123-.5007808-1.0022093-.751495-2.1709136-.751495-3.5074086 0-2.080216.5428903-3.6972259 1.6286711-4.8510299 1.0857807-1.1544519 2.6114451-1.7310299 4.5776412-1.7310299 1.222475 0 2.3004817.2656146 3.2340199.7968438.934186.5318771 1.6513455 1.2943854 2.1527741 2.2894685.5007807.9944352.751495 2.1592525.751495 3.4957475"/><path d="m98.4685216 18.6992691c.4709801 0 .8616279.0343356 1.1732392.1023588l-.2623754 3.2573422c-.280515-.0764452-.6225748-.1140199-1.0248837-.1140199-1.1084552 0-1.9713788.284402-2.5894186.8538538-.6186878.5694518-.9283555 1.3669435-.9283555 2.3918272v6.4790532h-3.473721v-12.7313621h2.6308804l.5124419 2.1411129h.1703821c.3951827-.7139202.9290033-1.2885548 1.6001661-1.7251993.6718106-.4366445 1.4019269-.6549668 2.1916445-.6549668"/><path d="m107.893953 18.6992691c.470981 0 .861628.0343356 1.17324.1023588l-.262376 3.2573422c-.280515-.0764452-.622574-.1140199-1.024883-.1140199-1.108456 0-1.972675.284402-2.591363.8538538-.618687.5694518-.927059 1.3669435-.927059 2.3918272v6.4790532h-3.473721v-12.7313621h2.63088l.512442 2.1411129h.170382c.395183-.7139202.927708-1.2885548 1.599518-1.7251993.671811-.4366445 1.403223-.6549668 2.19294-.6549668"/><path d="m115.484053 21.1704568c-.736595 0-1.313173.2332226-1.73103.7003156-.417209.467093-.65691 1.1291861-.717159 1.9869269h4.873704c-.0149-.8577408-.239053-1.5198339-.671811-1.9869269-.432757-.467093-1.017109-.7003156-1.753704-.7003156m.489768 10.7275914c-2.049768 0-3.651877-.5655648-4.805681-1.6973422-1.153804-1.1311296-1.73103-2.7325914-1.73103-4.8056811 0-2.132691.53382-3.782093 1.600814-4.9475581 1.066345-1.1654651 2.54083-1.7478738 4.423455-1.7478738 1.799053 0 3.199684.5124419 4.201893 1.5373256 1.00221 1.0248837 1.50299 2.4404153 1.50299 4.2472425v1.6856811h-8.210083c.037575.9866611.329751 1.7575914.876529 2.311495.546777.5545515 1.31382.8311794 2.300481.8311794.767044 0 1.491977-.0796844 2.174801-.2390531.683472-.1593688 1.397392-.4133223 2.141113-.7631562v2.6878904c-.607027.3038372-1.256163.5292857-1.947409.6776412-.690598.1477076-1.533438.2222093-2.527873.2222093"/><path d="m131.707924 27.8892757c0 1.3060466-.454137 2.3004818-1.361761 2.9833057-.906977.6834718-2.263555 1.0255316-4.070382 1.0255316-.925764 0-1.715482-.0628406-2.368505-.1885216-.653024-.1250333-1.263937-.30902-1.833389-.5519602v-2.8699335c.645249.3038372 1.371478.5584385 2.179983.7631561s1.52113.3077243 2.135931.3077243c1.260049 0 1.890398-.3647342 1.890398-1.0935548 0-.2733887-.083571-.4955981-.250714-.6659801-.167143-.1710299-.455432-.3647342-.865515-.581113-.409435-.2163787-.956213-.4683887-1.639684-.7573255-.979535-.4094353-1.699286-.7890698-2.158605-1.1382559-.459319-.3498338-.793605-.7501993-1.002209-1.2017441-.208605-.4515449-.312259-1.0080399-.312259-1.6681894 0-1.1311296.43794-2.0063621 1.314468-2.6250499.877176-.6186877 2.120382-.9283554 3.730266-.9283554 1.533438 0 3.025415.3342857 4.475282 1.0022093l-1.047558 2.5058471c-.638123-.2733887-1.233488-.4975415-1.78804-.6724584-.553903-.1742691-1.119468-.2617276-1.696694-.2617276-1.024884 0-1.537326.2772757-1.537326.8311794 0 .3116113.164552.581113.49495.808505.329751.2280399 1.054037.5655648 2.169618 1.0138704.994436.402309 1.723256.7780565 2.186462 1.1272425.463206.3491861.804618.7514951 1.024884 1.206927.220266.4554318.330399.9983222.330399 1.628671"/><path d="m138.968272 20.5668638c-1.290498 0-2.220797.3699169-2.790249 1.1103987-.569452.7398338-.853854 1.9869269-.853854 3.7406312s.292177 3.0085714.877177 3.7639535c.584352.755382 1.521777 1.1330731 2.812275 1.1330731 1.161578 0 2.027093-.4230399 2.596545-1.2697675s.853854-2.0633721.853854-3.6499335c0-1.6247841-.284402-2.835598-.853854-3.6324419-.569452-.7974917-1.449867-1.1959136-2.641894-1.1959136m.273389-1.5826744c1.639685 0 2.913987.5597342 3.820964 1.6792026.907624 1.1201163 1.360465 2.7047342 1.360465 4.7545017 0 2.0497674-.456728 3.6421595-1.371479 4.7771761s-2.185166 1.7025249-3.80995 1.7025249c-.812392 0-1.554169-.1496512-2.22598-.4496013-.671811-.2999502-1.23608-.7612127-1.691512-1.3837874h-.136694l-.398422 1.6059967h-1.355282v-17.7197343h1.890398v4.3049004c0 .9639867-.030448 1.8295016-.091345 2.595897h.091345c.880416-1.2445017 2.186462-1.8670764 3.917492-1.8670764"/><path d="m148.336694 19.1889718v8.0967109c0 1.0171097.231279 1.7763788.694485 2.2778073.463206.5007808 1.18814.751495 2.175449.751495 1.305399 0 2.259668-.3569601 2.863455-1.0708803.60314-.7132725.905681-1.8787376.905681-3.4957476v-6.5593853h1.890399v12.4812956h-1.56l-.273389-1.6740199h-.102359c-.387408.6148007-.925116 1.0851329-1.612475 1.4116445-.686711.3265117-1.46995.4897675-2.350365.4897675-1.518538 0-2.656146-.3601994-3.411528-1.0818937-.755383-.7210465-1.132426-1.8748505-1.132426-3.461412v-8.165382z"/><path d="m165.40211 18.961191c.553903 0 1.051445.0453489 1.491976.1366944l-.262375 1.7537043c-.515681-.1140199-.971761-.1710299-1.366296-.1710299-1.009983 0-1.872907.4100831-2.590066 1.2302492-.71716.8195182-1.076711 1.8411628-1.076711 3.06299v6.6960797h-1.890399v-12.4806478h1.56l.216379 2.311495h.091345c.463206-.812392 1.020997-1.4388538 1.67402-1.8787375.653024-.4405316 1.370183-.6607974 2.152127-.6607974"/><path d="m173.756013 18.961191c.553904 0 1.051445.0453489 1.491977.1366944l-.262375 1.7537043c-.515681-.1140199-.971761-.1710299-1.366296-.1710299-1.009983 0-1.872907.4100831-2.590067 1.2302492-.717159.8195182-1.07671 1.8411628-1.07671 3.06299v6.6960797h-1.890399v-12.4806478h1.56l.216379 2.311495h.091345c.463206-.812392 1.020997-1.4388538 1.67402-1.8787375.653023-.4405316 1.370183-.6607974 2.152126-.6607974"/><path d="m178.307093 31.6697492h-1.890399v-12.4812957h1.890399zm-2.049767-15.8630233c0-.4327575.106245-.7495515.319385-.9510299.212492-.2008306.478106-.3018937.796844-.3018937.303837 0 .565565.1030067.78583.3077243.220266.2047176.330399.5202159.330399.9451993s-.110133.7424253-.330399.9510299c-.220265.2086047-.481993.312907-.78583.312907-.318738 0-.584352-.1043023-.796844-.312907-.21314-.2086046-.319385-.5260465-.319385-.9510299z"/><path d="m185.908854 20.5441246c-1.002209 0-1.800349.3265116-2.396362.9795349-.596014.6530232-.947791 1.5561129-1.054037 2.7099169h6.52505c0-1.1920266-.265615-2.1048339-.796844-2.7384219-.531877-.6342359-1.291146-.9510299-2.277807-.9510299m.512442 11.3534053c-1.84505 0-3.3001-.5616777-4.366446-1.6850332-1.066993-1.1240033-1.600813-2.6840033-1.600813-4.6806479 0-2.0115448.496245-3.6097674 1.486794-4.7940199.990548-1.1842525 2.320564-1.7763787 3.990697-1.7763787 1.563887 0 2.801263.5143853 3.712774 1.5425083.910864 1.0287707 1.366296 2.3859966 1.366296 4.0716777v1.1952658h-8.597492c.037575 1.4654153.40814 2.5777575 1.110399 3.3370266s1.690864 1.1389036 2.965814 1.1389036c1.344269 0 2.672342-.2811628 3.986163-.8428405v1.6850332c-.667924.2889369-1.299568.495598-1.895582.6206312-.596013.1256811-1.315764.1878738-2.158604.1878738"/><path d="m193.068787 31.6697492h1.890399v-17.7197342h-1.890399z"/><path d="m46.7572425 52.6849834v-9.1390864l7.917907 4.5692193zm-18.3610963 10.5993189v-9.140382l7.917907 4.5698671zm-8.7698173-4.5698671 7.9192027-4.5705149v9.140382zm-1.2639369-9.8646678v9.1319602l-7.9107807-4.5659801zm-9.17990031 3.8365117-7.91920265-4.5698671 7.91920265-4.570515zm.00323921-40.9363954v9.08402l-.00259137-.0019436v.0550665l-7.91596345-4.5679236zm9.181196-5.29868769v9.13779069l-7.917907-4.5685714zm9.177309-5.29803986v9.13455145l-7.91402-4.56662787zm.8467276 9.13455145v-9.13455145l7.913372 4.56792358zm17.0991029.7307642-7.9153156 4.5672757v-9.13519933zm1.259402 9.8704983v-9.1397342l7.9192027 4.5692192zm-8.7523255 27.226794 7.9179069-4.5698671v9.1397342zm-.4191529.731412 7.9146678 4.5679236-7.9146678 4.5672757zm-18.3669269.0025913 7.9114286 4.5653323-7.9114286 4.5646844zm-9.181196-5.3019269 7.9107807 4.5653323-.0025913.0012956.0071262.0038871-7.9153156 4.5679236zm-9.18702657-15.8993023 7.91790698 4.5692193-7.91790698 4.5685714zm8.340299-5.2999834v9.1390864l-7.91790697-4.5679236zm.84607977-10.5986711 7.9159634 4.5692193-7.9159634 4.5692193zm35.8780564 9.1351994-7.9101328-4.566628 7.9101328-4.5653322zm9.189618 15.9025415-7.9185548-4.5698671 7.9185548-4.5692193zm-18.3643356 12.0595515v9.1351993l-7.9140199-4.5666279zm-27.54617936-15.8986545.00064784.0537708.00129568-.0006479v9.0846678l-7.91790698-4.570515zm27.53905316-17.3627741-7.9146678-4.5672757 7.9146678-4.56792363zm10.0318106 17.3614784 2.7468439 1.584618 5.1704153 2.9839534-7.9172592 4.5711628zm-8.7594518 4.5692193 7.9172591-4.5698671v9.140382zm-.4198007.7307641 7.9159635 4.5692193-7.9159635 4.5672757zm-19.2149501.0012957v9.1351993l-7.9120764-4.5672757zm9.1883222-17.3595349-7.9185548-4.5698671 7.9185548-4.5698671zm8.7562127-4.5685714-7.91402 4.5685714v-9.1358472zm-26.2757642 16.6274751 7.91402 4.5666279-7.91402 4.5685714zm36.7254319-10.5999668 7.917907 4.5711628-7.917907 4.5692192zm-27.5468272-15.89671099 7.9172591 4.56921929-7.9172591 4.5685714zm27.9679236 15.16724249 7.9179069-4.5705149v9.1410299zm-46.33290701 4.570515v-9.1403821l7.91790698 4.5698671zm7.91531562 16.6274751-7.91790698 4.5692192v-9.140382zm46.33614619-4.5711628v9.140382l-7.9192027-4.5692192zm.8415448-21.9268107c0-.150299-.0803322-.2895847-.2105481-.3640863-.0038871-.0025914-.008422-.0012957-.012309-.0032392l-27.5280399-15.88828907c-.0025913-.00129568-.003887-.00453488-.0064784-.0064784-.0660797-.03887044-.1399335-.05700997-.2131395-.05636213-.0738538-.00064784-.1477077.01749169-.2137874.05636213-.0025913.00194352-.003887.00518272-.0064784.0064784l-27.53322258 15.89152827v.0006478h-.00064784c-.13021595.0751495-.21054818.2137874-.21054818.3640864l-.00259136 31.7947176c0 .0012957-.00064784.0019435-.00064784.0025914 0 .1509468.08033223.2902325.21054817.3647342l27.54553153 15.8973588c.0647841.0375747.1373422.05701.2105482.05701.0012957 0 .0025914-.0012957.0038871-.0012957.0019435 0 .0032392.0012957.0045348.0012957.073206 0 .1457642-.0194353.2105482-.05701l27.5409967-15.8980067c.0006478-.0006478.0012957-.0006478.0019435-.0006478.130216-.0751495.2105482-.2137874.2105482-.3647342z"/></g></svg>