<svg height="41" viewBox="0 0 214 41" width="214" xmlns="http://www.w3.org/2000/svg"><g fill="#373760" fill-rule="evenodd"><path d="m109.113 34.584v-25.892l25.23 16.417c.507.33 1.087.495 1.667.495s1.16-.165 1.667-.495l25.23-16.417v25.892zm46.549-28.471-19.652 12.787-19.652-12.787zm7.245-6.113h-53.794-3.057-3.056v34.584 6.113h6.113 53.794 6.113v-6.113-34.584h-3.056z"/><path d="m14.265 25.183 6.105-16.848 6.105 16.848zm.88-25.183-15.145 39.154h9.51l2.465-6.633h16.789l2.407 6.633h9.51l-15.087-39.154z"/><path d="m73.84 7.396c4.051 0 7.573 2.524 9.216 5.694l7.162-3.522c-2.759-4.872-7.749-9.568-16.378-9.568-11.741 0-20.84 8.218-20.84 20.252s9.099 20.252 20.84 20.252c8.629 0 13.56-4.755 16.378-9.627l-7.162-3.463c-1.643 3.228-5.165 5.694-9.216 5.694-7.103 0-12.269-5.46-12.269-12.856 0-7.397 5.166-12.856 12.269-12.856"/><path d="m213.708 7.338v-7.338h-27.708v39.155h27.708v-7.338h-19.372v-8.864h18.961v-7.338h-18.961v-8.277z"/></g></svg>