<svg height="120" viewBox="0 0 681 120" width="681" xmlns="http://www.w3.org/2000/svg"><g fill="#fff" fill-rule="evenodd"><path d="m218.761 56.2252c3.914 0 7.379.607 10.406 1.825 3.022 1.212 5.422 3.069 7.199 5.559h12.991c-2.557-6.166-6.467-10.849-11.746-14.053-5.272-3.201-11.563-4.806-18.85-4.806-5.221 0-9.898.824-14.057 2.452-4.148 1.627-7.674 3.986-10.576 7.07-2.91 3.082-5.148 6.847-6.713 11.292-1.574 4.448-2.357 9.457-2.357 15.028 0 5.631.783 10.674 2.357 15.116 1.565 4.45 3.821 8.215 6.752 11.298 2.936 3.084 6.479 5.428 10.629 7.03 4.15 1.601 8.809 2.396 13.965 2.396 7.236 0 13.473-1.582 18.721-4.757 5.244-3.171 9.205-7.898 11.875-14.181h-12.991c-1.777 2.485-4.177 4.355-7.199 5.6-3.027 1.243-6.492 1.866-10.406 1.866-7.356 0-12.895-2.029-16.627-6.093-3.738-4.06-5.604-10.151-5.604-18.275 0-8.063 1.852-14.135 5.551-18.226 3.707-4.092 9.266-6.141 16.68-6.141"/><path d="m311.964 80.5924c0 8.184-1.898 14.287-5.695 18.323-3.791 4.031-9.274 6.045-16.45 6.045-7.355 0-12.894-2.029-16.634-6.094-3.733-4.059-5.598-10.15-5.598-18.274v-35.842h-11.477v35.842c0 5.631.789 10.674 2.362 15.116 1.566 4.449 3.824 8.215 6.754 11.298 2.935 3.084 6.478 5.428 10.629 7.029 4.148 1.602 8.808 2.397 13.964 2.397 5.094 0 9.721-.795 13.877-2.397 4.153-1.601 7.688-3.945 10.625-7.029 2.928-3.083 5.186-6.849 6.758-11.298 1.567-4.442 2.358-9.485 2.358-15.116v-35.842h-11.473z"/><path d="m342.822 74.8121c.83-6.107 3.066-10.73 6.715-13.871 3.648-3.143 8.699-4.716 15.164-4.716 6.4 0 11.432 1.573 15.074 4.716 3.647 3.141 5.885 7.764 6.713 13.871zm46.512-20.54c-2.905-3.084-6.434-5.443-10.584-7.07-4.151-1.628-8.828-2.452-14.049-2.452s-9.899.824-14.055 2.452c-4.15 1.627-7.674 3.986-10.578 7.07-2.91 3.082-5.148 6.847-6.721 11.292-1.564 4.448-2.353 9.457-2.353 15.028 0 5.631.789 10.674 2.353 15.117 1.573 4.449 3.83 8.214 6.762 11.297 2.942 3.084 6.477 5.428 10.629 7.03 4.149 1.601 8.803 2.396 13.963 2.396 7.238 0 13.476-1.582 18.721-4.757 5.246-3.171 9.201-7.898 11.869-14.181h-12.985c-1.775 2.485-4.175 4.355-7.197 5.6-3.027 1.243-6.5 1.867-10.408 1.867-6.344 0-11.367-1.54-15.072-4.624-3.707-3.082-5.977-7.766-6.807-14.051h55.229c.175-1.779.269-3.678.269-5.694 0-5.571-.771-10.58-2.31-15.028-1.547-4.445-3.766-8.21-6.676-11.292z"/><path d="m464.392 54.359c-2.904-3.084-6.447-5.454-10.623-7.112-4.184-1.663-8.881-2.496-14.102-2.496-9.009 0-16.39 2.405-22.138 7.209l-.092-7.209h-11.379v71.681h11.471v-35.84c0-2.904.326-5.81.97-8.713.661-2.908 1.815-5.514 3.473-7.828 1.664-2.309 3.928-4.194 6.807-5.646 2.877-1.455 6.506-2.18 10.888-2.18 7.297 0 12.823 2.032 16.588 6.092 3.764 4.062 5.651 10.154 5.651 18.275v35.84h11.47v-35.84c0-5.571-.769-10.566-2.308-14.983-1.541-4.418-3.772-8.166-6.676-11.25"/><path d="m499.882 87.5329v-31.308h10.936v-11.474h-10.936v-26.2339h-11.471v26.2339h-9.429v11.474h9.429v31.308c0 9.304 2.518 16.452 7.555 21.433 5.037 4.98 12.541 7.466 22.5 7.466v-11.471c-6.525 0-11.25-1.322-14.188-3.957-2.929-2.636-4.396-7.128-4.396-13.471"/><path d="m523.802 116.4321h11.473v-71.682h-11.473z"/><path d="m529.585 18.517c-3.857 0-5.783 1.8402-5.783 5.5142 0 3.677 1.926 5.516 5.783 5.516 3.789 0 5.689-1.839 5.689-5.516 0-3.674-1.9-5.5142-5.689-5.5142"/><path d="m576.447 56.2252c3.916 0 7.387.607 10.408 1.825 3.022 1.212 5.43 3.069 7.205 5.559h12.985c-2.551-6.166-6.467-10.849-11.739-14.053-5.279-3.201-11.562-4.806-18.859-4.806-5.213 0-9.897.824-14.047 2.452-4.15 1.627-7.68 3.986-10.584 7.07-2.904 3.082-5.142 6.847-6.715 11.292-1.572 4.448-2.355 9.457-2.355 15.028 0 5.631.783 10.674 2.355 15.116 1.573 4.45 3.83 8.215 6.76 11.298 2.936 3.084 6.479 5.428 10.629 7.03 4.15 1.601 8.805 2.396 13.957 2.396 7.238 0 13.475-1.582 18.728-4.757 5.239-3.171 9.2-7.898 11.87-14.181h-12.985c-1.775 2.485-4.183 4.355-7.205 5.6-3.021 1.243-6.492 1.866-10.408 1.866-7.346 0-12.887-2.029-16.625-6.093-3.738-4.06-5.606-10.151-5.606-18.275 0-8.063 1.854-14.135 5.559-18.226 3.707-4.092 9.268-6.141 16.672-6.141"/><path d="m663.335 98.9156c-3.791 4.031-9.277 6.045-16.449 6.045-7.354 0-12.899-2.029-16.633-6.094-3.732-4.059-5.598-10.15-5.598-18.274 0-8.064 1.854-14.135 5.559-18.227 3.707-4.092 9.26-6.14 16.672-6.14 7.119 0 12.599 2.019 16.449 6.045 3.799 4.037 5.697 10.144 5.697 18.322 0 8.183-1.898 14.287-5.697 18.323zm5.697-54.165v7.209c-5.814-4.804-13.193-7.209-22.146-7.209-5.213 0-9.906.823-14.055 2.451-4.142 1.627-7.674 3.986-10.578 7.07-2.908 3.083-5.141 6.847-6.713 11.292-1.574 4.449-2.355 9.457-2.355 15.029 0 5.631.781 10.674 2.355 15.116 1.572 4.449 3.822 8.215 6.76 11.298 2.93 3.084 6.473 5.428 10.623 7.029 4.156 1.602 8.809 2.397 13.963 2.397 9.012 0 16.39-2.43 22.146-7.296v7.296h11.471v-71.682z"/><path d="m381.81 28.1774h-10.408l-10.192 11.673h5.241z"/><path d="m124.966 112.84c-13.666.003-25.3543-7.854-31.2273-19.249l32.4963-12.943c.847-.338 1.526-.998 1.885-1.856.343-.817.377-1.795.021-2.617l-.001-.004-7.259-17.759-.004-.012-5.971-14.647c3.202-1.016 6.543-1.723 10.064-1.719 19.539 0 35.425 15.884 35.442 35.416.009 19.513-15.894 35.399-35.446 35.39zm-50.1753-19.045c-.44-.612-.833-1.212-1.237-1.834-.347-.586-.741-1.183-1.102-1.803-.555-1.02-1.079-2.112-1.539-3.207-.294-.604-.594-1.231-.845-1.882-.436-1.168-.805-2.392-1.15-3.582-.186-.594-.383-1.157-.526-1.747-.445-1.801-.762-3.639-.955-5.483l22.604-9.014c.836-.331 1.513-1.004 1.861-1.833.351-.854.359-1.792.036-2.632l-9.203-22.529c1.452-1.144 2.987-2.166 4.592-3.121.529-.305 1.085-.538 1.618-.836 1.089-.584 2.199-1.143 3.311-1.641.664-.277 1.384-.48 2.087-.739 1.025-.374 2.088-.76 3.148-1.042.792-.213 1.544-.359 2.326-.525.6833-.139 1.3863-.287 2.0753-.365l4.058 9.957 1.016 2.459 6.804 16.711c-2.854 3.151-5.287 6.648-6.959 10.605-1.697 3.975-2.522 8.162-2.81 12.439zm-46.047-18.691c-6.417-2.71-11.755-7.158-15.594-12.878l2.888-6.803 44.542 18.942c.085.755.286 1.492.411 2.242.209 1.562.451 3.1.826 4.641.246 1.096.567 2.142.922 3.23.451 1.496.972 2.959 1.59 4.383.22.544.337 1.092.592 1.622zm-17.517-35.216c-.171 1.161-.032 2.35-.118 3.545-.154 2.223-.443 4.46-.272 6.674l-1.817 4.294c-3.108-8.411-2.948-17.807.636-26.197 3.562-8.363 10.063-14.79 18.342-18.346l-1.627 3.782c-1.733 1.41-3.16 3.154-4.651 4.828-.765.843-1.705 1.545-2.371 2.457-2.13 2.789-3.916 5.814-5.284 9.008-1.35 3.196-2.289 6.55-2.838 9.955zm18.555-19.879 11.593 4.938 34.449 14.652 6.743 16.493c.017.098.097.15.14.234l1.568 3.844-5.428 2.165-.024-.01-14.971 5.959-46.059-19.549c-.124-1.686-.042-3.338.103-5.027.065-.924-.004-1.875.17-2.793.409-2.834 1.167-5.621 2.298-8.281 1.118-2.624 2.577-5.052 4.284-7.317.566-.742 1.251-1.365 1.85-2.046 1.032-1.165 2.093-2.25 3.284-3.262zm6.742-12.645c6.739-1.213 13.684-.387 20.054 2.307l36.249 15.436c-.551.192-1.052.494-1.608.699-1.495.572-2.911 1.186-4.316 1.912-.998.496-1.961.985-2.95 1.564-1.378.797-2.677 1.715-3.958 2.679-.61.417-1.252.746-1.814 1.187l-44.607-18.958zm88.4683 27.836c-4.456-.011-8.684.82-12.682 2.139l-5.085-12.443c-.085-.225-.321-.361-.477-.547-.328-.481-.674-.903-1.161-1.157-.069-.044-.079-.152-.164-.183l-46.2033-19.637c-8.154-3.465-17.143-4.266-25.757-2.375-.031.023-.058.004-.108.009-13.709 2.965-24.648 11.897-29.987 24.535-5.388 12.618-4.251 27.155 2.981 38.886.07.127.228.191.315.31 4.643 7.445 11.317 13.226 19.505 16.703l45.529 19.37c.56.34 1.168.587 1.825.585.426-.013.85-.083 1.266-.23l12.563-5.019c6.879 13.91 21.0993 23.528 37.6243 23.539 23.305 0 42.254-18.942 42.263-42.229.004-23.299-18.961-42.256-42.247-42.256z"/></g></svg>