<svg height="70" viewBox="0 0 212 70" width="212" xmlns="http://www.w3.org/2000/svg"><g fill="#373760" fill-rule="evenodd"><path d="m16.0531 50.4596 7.753-7.753h15.748l6.039 21.202zm-10.849-26.892 14.404 1.833v15.273c0 .148.017.293.047.432l-6.858 6.858zm14.404-2.267-12.917-1.644 12.917-12.916zm28.38-10.018-11.951 12.11-12.362-1.574v-17.127zm-24.313 27.357v-12.721l11.515 1.466 3.206 11.255zm33.948 0h-14.998l-3.566-12.519 11.901-12.06zm-8.489 22.852-5.351-18.785h13.337zm13.11-21.35-8.24-30.4c-.189-.697-.734-1.242-1.431-1.431l-30.4-8.24c-.611-.166-1.264-.037-1.767.348-.034.025-.063.054-.095.081l-.108-.107-19.319 19.32.002.002c-.042.042-.084.083-.123.129-.444.53-.589 1.25-.383 1.911l9.171 29.468c.173.553.572 1.006 1.1 1.246l37.26 16.965c.27.123.557.183.842.183.478 0 .951-.169 1.327-.493.242-.207.423-.465.542-.747l.003.002 11.237-26.43c.011-.014.024-.026.034-.04.385-.503.513-1.156.348-1.767z"/><g transform="translate(84 23)"><path d="m11.4637 5.5876-3.369 9.298h6.739zm5.962 17.01-1.329-3.662h-9.266l-1.361 3.662h-5.249l8.359-21.611h5.768l8.326 21.611z"/><path d="m35.5037 11.8082c0-6.642 5.022-11.178 11.502-11.178 4.762 0 7.516 2.592 9.039 5.281l-3.953 1.944c-.907-1.749-2.851-3.143-5.086-3.143-3.921 0-6.772 3.014-6.772 7.096s2.851 7.095 6.772 7.095c2.235 0 4.179-1.36 5.086-3.143l3.953 1.912c-1.555 2.689-4.277 5.314-9.039 5.314-6.48 0-11.502-4.536-11.502-11.178"/><path d="m90.5503 22.5971v-15.131l-6.091 15.131h-2.009l-6.091-15.131v15.131h-4.601v-21.61h6.448l5.249 13.056 5.248-13.056h6.48v21.61z"/><path d="m112.4194 22.5971v-21.61h15.293v4.049h-10.692v4.569h10.465v4.05h-10.465v4.892h10.692v4.05z"/></g></g></svg>