<svg viewBox="0 0 75 25" xmlns="http://www.w3.org/2000/svg"><g fill="#362482"><path d="m31 7.54a2.18 2.18 0 0 1 -.09-.37c0-.1 0-.2 0-.27a2.15 2.15 0 0 1 0-.23.7.7 0 0 1 0 .23v.27s0 .23-.08.37l-1 3.6h-.14-.35-.11l-1.46-5h.06.4.07l1.06 3.64c0 .1 0 .21.07.31s0 .19 0 .27a2.27 2.27 0 0 0 .06.25 2.42 2.42 0 0 1 0-.25c0-.15.06-.34.11-.57l1-3.65h.07.33.06l1 3.64c0 .11 0 .22.07.31s0 .19 0 .27v.24a2.08 2.08 0 0 1 0-.23c0-.08 0-.16.05-.27s.06-.2.09-.32l1-3.65h.06.36.06l-1.43 5h-.07a.58.58 0 0 1 -.21 0 .61.61 0 0 1 -.22 0h-.08z"/><path d="m34.3 8.62a4.11 4.11 0 0 1 .14-1.18 2.41 2.41 0 0 1 .39-.82 1.62 1.62 0 0 1 .62-.48 2.12 2.12 0 0 1 .81-.14 2.31 2.31 0 0 1 .82.14 1.67 1.67 0 0 1 .61.48 2.24 2.24 0 0 1 .39.82 4.11 4.11 0 0 1 .14 1.18 4.18 4.18 0 0 1 -.14 1.19 2.19 2.19 0 0 1 -.39.81 1.48 1.48 0 0 1 -.61.48 2 2 0 0 1 -.82.15 2 2 0 0 1 -.81-.15 1.45 1.45 0 0 1 -.62-.48 2.35 2.35 0 0 1 -.39-.81 4.13 4.13 0 0 1 -.14-1.19zm3.37 0a5.09 5.09 0 0 0 -.09-1 1.88 1.88 0 0 0 -.29-.67 1 1 0 0 0 -.45-.37 1.36 1.36 0 0 0 -.58-.11 1.4 1.4 0 0 0 -.58.11 1 1 0 0 0 -.45.37 2.21 2.21 0 0 0 -.28.67 4.41 4.41 0 0 0 -.1 1 4.3 4.3 0 0 0 .1 1 1.86 1.86 0 0 0 .28.68 1 1 0 0 0 .45.37 1.54 1.54 0 0 0 .58.11 1.58 1.58 0 0 0 .58-.11 1 1 0 0 0 .45-.37 2.17 2.17 0 0 0 .29-.68 5.74 5.74 0 0 0 .09-1z"/><path d="m40.86 6.06a1.48 1.48 0 0 1 .61.11 1.2 1.2 0 0 1 .47.29 1.51 1.51 0 0 1 .3.47 1.87 1.87 0 0 1 .1.59 1.48 1.48 0 0 1 -.26.91 1.24 1.24 0 0 1 -.77.49l1.23 2.22h-.07-.23-.24a.15.15 0 0 1 -.07 0l-1.2-2.14h-1.11v2.16h-.06-.19-.22-.06v-5.1zm-1.24 2.48h1.2a.93.93 0 0 0 .71-.27 1 1 0 0 0 .25-.75 1 1 0 0 0 -.25-.74 1 1 0 0 0 -.71-.27h-1.19v2z"/><path d="m46 6.11h.11.32.12l-1.61 2.36 1.86 2.68a.11.11 0 0 1 -.07 0h-.23-.24a.11.11 0 0 1 -.08 0l-1.68-2.39h-.73v2.39h-.06-.2-.2a.11.11 0 0 1 -.07 0v-5h.08.39.06v2.15h.73z"/><path d="m47.42 6.11h.06.4.07v4.62h2.23a.22.22 0 0 1 0 .1.49.49 0 0 1 0 .12.57.57 0 0 1 0 .14.87.87 0 0 1 0 .1h-2.76z"/><path d="m50.47 8.62a4.11 4.11 0 0 1 .14-1.18 2.24 2.24 0 0 1 .39-.82 1.67 1.67 0 0 1 .61-.48 2.17 2.17 0 0 1 .82-.14 2.25 2.25 0 0 1 .81.14 1.62 1.62 0 0 1 .62.48 2.41 2.41 0 0 1 .39.82 4.49 4.49 0 0 1 .14 1.18 4.57 4.57 0 0 1 -.14 1.19 2.35 2.35 0 0 1 -.39.81 1.45 1.45 0 0 1 -.62.48 2 2 0 0 1 -.81.15 2.07 2.07 0 0 1 -.82-.15 1.48 1.48 0 0 1 -.61-.48 2.19 2.19 0 0 1 -.39-.81 4.52 4.52 0 0 1 -.14-1.19zm3.37 0a5 5 0 0 0 -.1-1 1.88 1.88 0 0 0 -.28-.67 1 1 0 0 0 -.46-.41 1.36 1.36 0 0 0 -.58-.11 1.44 1.44 0 0 0 -.59.11 1.08 1.08 0 0 0 -.44.37 2.08 2.08 0 0 0 -.29.67 5.09 5.09 0 0 0 -.09 1 5 5 0 0 0 .09 1 1.86 1.86 0 0 0 .29.68 1 1 0 0 0 .44.37 1.61 1.61 0 0 0 1.17 0 1 1 0 0 0 .45-.37 2.18 2.18 0 0 0 .28-.68 4.87 4.87 0 0 0 .11-.96z"/><path d="m56.51 6.11h.07.42.08l1.88 5a.09.09 0 0 1 -.07 0h-.22-.19a.11.11 0 0 1 -.07 0l-.51-1.31h-2.27l-.52 1.35a.09.09 0 0 1 -.07 0h-.19-.19a.05.05 0 0 1 0 0zm.26.56v.14s0 .1 0 .16l-.07.19-.82 2.18h2l-.83-2.18c0-.07 0-.14-.06-.19a1.31 1.31 0 0 0 -.05-.15v-.14z"/><path d="m61.09 6.06a2.73 2.73 0 0 1 .89.13 1.53 1.53 0 0 1 .66.42 2 2 0 0 1 .4.79 4.31 4.31 0 0 1 .14 1.22 4.23 4.23 0 0 1 -.18 1.21 1.9 1.9 0 0 1 -.4.79 1.51 1.51 0 0 1 -.66.44 2.93 2.93 0 0 1 -.89.13h-1.45v-5.13zm0 4.68a2.71 2.71 0 0 0 .66-.08 1 1 0 0 0 .48-.33 1.52 1.52 0 0 0 .31-.65 3.83 3.83 0 0 0 .11-1 3.93 3.93 0 0 0 -.11-1.05 1.53 1.53 0 0 0 -.31-.64 1 1 0 0 0 -.48-.33 2.25 2.25 0 0 0 -.66-.08h-.92v4.21z"/><path d="m29.43 13.22a2.43 2.43 0 0 1 .84.13 1.51 1.51 0 0 1 .62.4 1.77 1.77 0 0 1 .39.72 3.7 3.7 0 0 1 .13 1.06 3.66 3.66 0 0 1 -.13 1.06 1.78 1.78 0 0 1 -.39.72 1.51 1.51 0 0 1 -.62.4 2.47 2.47 0 0 1 -.84.13h-1.59v-4.62zm0 3.81a1.18 1.18 0 0 0 .39-.06.66.66 0 0 0 .3-.23 1.39 1.39 0 0 0 .19-.47 4.84 4.84 0 0 0 0-1.52 1.25 1.25 0 0 0 -.19-.46.64.64 0 0 0 -.3-.22 1.18 1.18 0 0 0 -.42-.07h-.52v3h.52z"/><path d="m35 13.22a.71.71 0 0 1 0 .17 1.36 1.36 0 0 1 0 .2 1.27 1.27 0 0 1 0 .41h-1.84v1.12h1.47a.85.85 0 0 1 0 .17 1.12 1.12 0 0 1 0 .2 1.25 1.25 0 0 1 0 .21 1 1 0 0 1 -.05.18h-1.43v1.12h1.85a1 1 0 0 1 0 .18 1.46 1.46 0 0 1 0 .22 1.77 1.77 0 0 1 0 .21 1.33 1.33 0 0 1 0 .19h-2.87v-4.58z"/><path d="m35.72 13.27h.14.16.42.17.14v4.51h-.14-.17-.44-.16-.13v-4.51z"/><path d="m37.45 14.56a1.5 1.5 0 0 1 .1-.58 1.22 1.22 0 0 1 .31-.44 1.42 1.42 0 0 1 .53-.29 2.78 2.78 0 0 1 .75-.1 4.39 4.39 0 0 1 .56 0l.43.07c.14 0 .25.08.36.11a1.34 1.34 0 0 1 -.06.4 1 1 0 0 1 -.2.35l-.23-.03-.3-.05h-.36c-.54 0-.81.17-.81.5a.29.29 0 0 0 .09.22 1 1 0 0 0 .25.16l.33.13.41.13.41.18a1.58 1.58 0 0 1 .36.26 1.09 1.09 0 0 1 .25.38 1.27 1.27 0 0 1 .1.54 1.34 1.34 0 0 1 -.42 1.07 2 2 0 0 1 -1.32.37 4.06 4.06 0 0 1 -.64-.05 4.19 4.19 0 0 1 -.49-.1 2.34 2.34 0 0 1 -.41-.16 1.52 1.52 0 0 1 .06-.42 1.59 1.59 0 0 1 .18-.37 3.25 3.25 0 0 0 .37.11 3.59 3.59 0 0 0 .39.06h.47a1 1 0 0 0 .56-.12.45.45 0 0 0 .13-.57.62.62 0 0 0 -.14-.14.72.72 0 0 0 -.21-.12l-.26-.06-.51-.16a2 2 0 0 1 -.48-.25 1.07 1.07 0 0 1 -.37-.39 1.22 1.22 0 0 1 -.19-.64z"/><path d="m44.16 13.22a.42.42 0 0 1 .05.17 1.36 1.36 0 0 1 0 .2 1 1 0 0 1 -.07.41h-1.77v1.12h1.48a.85.85 0 0 1 0 .17 1.12 1.12 0 0 1 0 .2 1.25 1.25 0 0 1 0 .21 1 1 0 0 1 0 .18h-1.49v1.12h1.86a1 1 0 0 1 .05.18 1.5 1.5 0 0 1 0 .22 1.65 1.65 0 0 1 0 .21 1.33 1.33 0 0 1 -.05.19h-2.87v-4.58z"/><path d="m46.71 13.22a1.59 1.59 0 0 1 .64.11 1.41 1.41 0 0 1 .48.28 1.54 1.54 0 0 1 .3.45 1.81 1.81 0 0 1 .09.58 1.43 1.43 0 0 1 -.21.79 1.13 1.13 0 0 1 -.59.49l1 1.87h-.16-.18-.49-.18-.15l-1-1.74h-.26v1.74h-.13-.16-.45-.17-.12v-4.57zm-.74 2h.59a.57.57 0 0 0 .44-.12.65.65 0 0 0 .15-.46.68.68 0 0 0 -.15-.47.57.57 0 0 0 -.44-.16h-.56z"/></g><path d="m4.58 21.19.01-.01z" fill="#891e80"/><path d="m4.93 20.57 4.74-2.74v-4.93l-4.72 2.72z" fill="#9f0484"/><path d="m4.58 21.17v.02l.01-.01z" fill="#fff"/><path d="m10.37 17.83 5.15 2.95 4.33-2.48-9.48-5.41z" fill="#d20083"/><path d="m4.25 15.62-4.25-2.42v5.01l4.25 2.38z" fill="#6c1482"/><path d="m0 6.27v6.13l4.25 2.41v-11z" fill="#362482"/><path d="m20.2 6.24-4.26-2.43v11.5l4.26 2.39z" fill="#f08"/></svg>