<svg height="42" viewBox="0 0 192 42" width="192" xmlns="http://www.w3.org/2000/svg"><g fill="#373760" fill-rule="evenodd" transform="translate(0 -3)"><path d="m182.6225 40.9536c-.532-.308-1.214-.126-1.522.406-.273.473-.781.766-1.326.766-.844 0-1.531-.687-1.531-1.53v-2.383-.003c0-.844.687-1.53 1.531-1.53.509 0 .984.252 1.27.675.215.319.566.491.924.491.214 0 .431-.062.622-.191.51-.345.644-1.037.3-1.547-.701-1.037-1.866-1.656-3.116-1.656-1.951 0-3.558 1.495-3.74 3.399-.01.06-.019.12-.019.183v2.896c0 .132.027.256.07.374.332 1.734 1.859 3.05 3.689 3.05 1.337 0 2.584-.72 3.254-1.878.308-.533.127-1.214-.406-1.522"/><path d="m188.1944 42.1179c-.018 0-.034.004-.052.005-.82-.027-1.479-.701-1.479-1.528v-2.385c0-.844.687-1.531 1.531-1.531.509 0 .984.253 1.27.676.171.253.261.548.261.855v2.377c0 .307-.09.603-.261.855-.286.423-.761.676-1.27.676m3.748-4.186c0-.006-.001-.012-.002-.018-.004-.037-.005-.075-.012-.111-.065-.606-.274-1.186-.618-1.695-.701-1.037-1.866-1.656-3.116-1.656-1.952 0-3.561 1.497-3.74 3.403-.01.058-.018.117-.018.178v2.896c0 .132.027.257.069.375.332 1.734 1.859 3.049 3.689 3.049.038 0 .075-.007.112-.011 1.208-.036 2.324-.647 3.004-1.652.282-.418.473-.884.569-1.373.045-.121.073-.251.073-.388v-2.896c0-.034-.007-.067-.01-.101"/><path d="m87.9851 37.6821-.016-.014c-.049.059-.095.12-.146.176z"/><path d="m129.4812 39.4038c-2.626 0-4.755-2.129-4.755-4.755v-21.193c0-3.603-2.931-6.535-6.534-6.535-2.965 0-5.47 1.986-6.267 4.696.584-.171 1.2-.268 1.838-.268 3.604 0 6.535 2.932 6.535 6.535v21.193c0 2.626 2.129 4.755 4.755 4.755 1.228 0 2.344-.47 3.188-1.234l.043.04 4.94-4.956-.065-.053c-.872 1.074-2.186 1.775-3.678 1.775"/><path d="m102.1475 25.1388v-11.683c0-3.603-2.931-6.535-6.535-6.535-2.964 0-5.469 1.986-6.266 4.696.584-.171 1.2-.267 1.838-.267 3.604 0 6.535 2.931 6.535 6.534v11.683c0 2.626 2.128 4.755 4.755 4.755.987 0 1.903-.301 2.664-.816l.032.031.215-.216c.319-.247.604-.534.85-.853l3.61-3.621c-.812.646-1.825 1.047-2.943 1.047-2.627 0-4.755-2.129-4.755-4.755"/><path d="m79.5684 34.6488v-21.873c0-.236.036-.461.069-.688.236-2.777 1.195-5.346 2.667-7.542-3.948 2.642-6.671 6.979-7.095 11.97-.033.227-.069.453-.069.688v21.873c0 2.626 2.128 4.755 4.755 4.755 1.208 0 2.308-.454 3.147-1.197l.003.003.056-.057c.107-.098.21-.201.308-.308l4.115-4.129c-.846.775-1.963 1.26-3.201 1.26-2.626 0-4.755-2.129-4.755-4.755"/><path d="m71.1357 33.5816c.008-.009.012-.017.02-.026-.033.042-.069.081-.102.122.027-.032.055-.064.082-.096"/><path d="m58.4875 39.7567c-7.812 0-14.33-5.615-15.749-13.02-.18-.501-.295-1.034-.295-1.598v-12.363c0-.267.036-.525.078-.781.314-3.288 1.636-6.28 3.636-8.69l-2.338 2.315c-.709.589-1.365 1.241-1.963 1.942l-.009.009v.001c-2.072 2.435-3.433 5.493-3.754 8.851-.042.256-.079.514-.079.781v12.363c0 .564.116 1.097.296 1.598 1.419 7.405 7.937 13.02 15.749 13.02 3.395 0 6.649-1.093 9.335-3.014l.003.008s.032-.026.087-.072c.789-.572 1.526-1.216 2.203-1.927 1.343-1.222 3.071-2.881 4.609-4.62-3.007 3.262-7.285 5.197-11.809 5.197"/><path d="m71.3628 33.2748c-.017.022-.032.046-.049.068.016-.022.035-.046.049-.068"/><path d="m72.0071 9.526-.018-.008c-.01.018-.018.037-.028.055z"/><path d="m63.9104 9.88c-1.221-1.806-3.248-2.885-5.422-2.885-2.964 0-5.47 1.986-6.266 4.696.583-.171 1.199-.267 1.838-.267 2.174 0 4.2 1.078 5.422 2.884.918 1.36 2.417 2.093 3.944 2.093.916 0 1.842-.264 2.658-.815.552-.373.999-.841 1.337-1.368l2.864-2.93c-.76.454-1.597.685-2.431.685-1.527 0-3.026-.733-3.944-2.093"/><path d="m20.52 6.9211c-2.965 0-5.47 1.986-6.267 4.696.584-.172 1.2-.268 1.839-.268 3.603 0 6.534 2.932 6.534 6.535v3.376h4.428v-7.804c0-3.603-2.931-6.535-6.534-6.535"/><path d="m35.4709 37.6821-.016-.014c-.049.059-.095.12-.146.176z"/><path d="m4.4753 34.6488v-21.873c0-.236.036-.461.069-.688.282-3.311 1.584-6.328 3.573-8.763l-1.998 2.009c-.968.772-1.844 1.653-2.612 2.625l-.008.008.001.001c-1.887 2.395-3.111 5.338-3.384 8.548-.033.227-.069.453-.069.688v21.873c0 2.626 2.128 4.755 4.755 4.755 1.208 0 2.308-.454 3.147-1.197l.003.003.056-.056c.107-.099.21-.202.308-.309l4.116-4.129c-.846.775-1.964 1.26-3.202 1.26-2.626 0-4.755-2.129-4.755-4.755"/><path d="m27.0542 34.6488v-3.878h-13.069v3.878c0 .188-.034.367-.055.55h8.696v3.878c0 2.626 2.129 4.755 4.755 4.755 1.208 0 2.308-.454 3.147-1.197l.003.003.056-.057c.107-.098.21-.201.308-.308l4.115-4.129c-.846.775-1.963 1.26-3.201 1.26-2.626 0-4.755-2.129-4.755-4.755"/><path d="m12.8921 37.6821-.017-.014c-.048.059-.094.12-.145.177z"/><path d="m168.5085 21.8153h-17.824v1.683c0 .981.224 1.909.613 2.745h11.959c1.157-1.495 3.069-2.138 4.867-1.698l4.042-4.446-.012-.02c-.872 1.052-2.172 1.736-3.645 1.736"/><path d="m162.6401 9.6664c-1.22-1.806-3.247-2.885-5.421-2.885-2.968 0-5.452 1.999-6.245 4.713.58-.169 1.183-.284 1.817-.284 1.304 0 2.552.394 3.608 1.095h7.274c-.146-.944-.494-1.842-1.033-2.639"/><path d="m157.2192 39.5431c-7.621 0-14.006-5.346-15.632-12.482-.261-.589-.412-1.237-.412-1.922v-12.363c0-.188.034-.365.054-.547.229-3.39 1.526-6.485 3.539-8.977l-2.035 2.013c-3.372 2.731-5.621 6.799-5.932 11.392-.02.182-.055.36-.055.547v12.363c0 .685.152 1.333.413 1.922 1.626 7.136 8.01 12.482 15.632 12.482.007 0 .013-.002.02-.002 3.278-.004 6.425-1.025 9.054-2.828l.013.038s.136-.113.374-.314c.812-.593 1.57-1.263 2.262-2.003 1.158-1.066 2.545-2.408 3.838-3.826-2.951 2.837-6.925 4.499-11.112 4.505-.007 0-.014.002-.021.002"/><path d="m35.3091 37.8445-.299.3c.105-.096.203-.195.299-.3"/><path d="m12.73 37.8447-.298.299c.104-.095.203-.195.298-.299"/><path d="m87.8232 37.8445-.299.3c.105-.096.203-.195.299-.3"/><path d="m71.3137 33.343c-.048.068-.098.138-.158.212.054-.069.105-.141.158-.212"/><path d="m71.054 33.6778c-.245.295-.499.589-.758.882.263-.284.516-.578.758-.882"/></g></svg>