<svg height="81" viewBox="0 0 150 81" width="150" xmlns="http://www.w3.org/2000/svg"><g fill="#373760" fill-rule="evenodd"><path d="m42.8823 31.2332 1.823 12.863h-3.646zm-2.585 17.654h5.138l1.151 7.499h5.175l-5.468-32.626h-6.77l-5.546 32.626h5.124z"/><path d="m62.9573 56.8028c2.135 0 3.967-.755 5.494-2.265 1.527-1.511 2.292-3.35 2.292-5.521v-4.556h-5.104v4.504c0 .781-.278 1.446-.833 1.992-.556.547-1.224.821-2.005.821s-1.445-.274-1.992-.821c-.547-.546-.82-1.211-.82-1.992v-17.862c0-.781.273-1.449.82-2.005.547-.555 1.211-.833 1.992-.833s1.449.278 2.005.833c.555.556.833 1.224.833 2.005v3.828h5.104v-3.724c0-2.152-.756-3.992-2.266-5.52-1.51-1.527-3.35-2.291-5.52-2.291-2.153 0-3.992.759-5.52 2.278s-2.291 3.364-2.291 5.533v17.81c0 2.153.759 3.989 2.278 5.508s3.363 2.278 5.533 2.278"/><path d="m79.6995 35.92 4.765 20.466h3.958l4.27-20.518v20.518h4.921v-32.652h-6.784l-4.403 23.456-4.586-23.456h-7.062v32.652h4.921z"/><path d="m116.0227 51.4389h-9.088v-8.905h6.64v-4.948h-6.64v-8.905h9.088v-4.947h-14.009v32.652h14.009z"/><path d="m5.809 75.157h138.382v-70.116h-138.382zm-5.041 5.041h148.464v-80.198h-148.464z"/></g></svg>