<svg viewBox="0 0 75 25" xmlns="http://www.w3.org/2000/svg"><g fill="#362482"><path d="m31.64 6.08a.62.62 0 0 1 0 .23.57.57 0 0 1 0 .24h-2.44v2h2.07a.49.49 0 0 1 0 .21.64.64 0 0 1 0 .24h-2.06v2h2.52a.57.57 0 0 1 0 .22.69.69 0 0 1 0 .25h-3.07v-5.39z"/><path d="m36 6.11a.47.47 0 0 1 .18 0 .52.52 0 0 1 .18 0h.13l-1.72 2.59 1.76 2.77h-.08-.25-.24-.09l-1.49-2.34-1.48 2.35h-.12-.37-.14l1.73-2.77-1.59-2.58h.08.11.29.09.09l1.37 2.15 1.4-2.15z"/><path d="m38 11.47h-.06-.2-.23-.06v-5.38h1.91a1.93 1.93 0 0 1 .65.12 1.41 1.41 0 0 1 .49.33 1.83 1.83 0 0 1 .31.51 2 2 0 0 1 .1.66 1.85 1.85 0 0 1 -.1.65 2 2 0 0 1 -.31.52 1.69 1.69 0 0 1 -.49.33 2 2 0 0 1 -.65.11h-1.36zm1.3-2.64a1 1 0 0 0 .77-.29 1.22 1.22 0 0 0 .27-.83 1.23 1.23 0 0 0 -.27-.84 1 1 0 0 0 -.77-.3h-1.3v2.27h1.3z"/><path d="m41.74 8.8a5.15 5.15 0 0 1 .14-1.26 2.38 2.38 0 0 1 .42-.86 1.67 1.67 0 0 1 .65-.5 2.39 2.39 0 0 1 1.72 0 1.67 1.67 0 0 1 .65.5 2.23 2.23 0 0 1 .42.86 4.71 4.71 0 0 1 .14 1.26 4.66 4.66 0 0 1 -.14 1.26 2.23 2.23 0 0 1 -.42.86 1.5 1.5 0 0 1 -.65.5 2.39 2.39 0 0 1 -1.72 0 1.5 1.5 0 0 1 -.65-.5 2.38 2.38 0 0 1 -.42-.86 5.63 5.63 0 0 1 -.14-1.26zm3.56 0a4.91 4.91 0 0 0 -.1-1.1 2.23 2.23 0 0 0 -.3-.7 1.06 1.06 0 0 0 -.47-.38 1.49 1.49 0 0 0 -.62-.12 1.59 1.59 0 0 0 -.62.12 1.06 1.06 0 0 0 -.47.38 2.23 2.23 0 0 0 -.29.71 4.34 4.34 0 0 0 -.11 1.1 4.34 4.34 0 0 0 .11 1.1 2.14 2.14 0 0 0 .29.71 1.16 1.16 0 0 0 .47.39 1.71 1.71 0 0 0 .62.11 1.75 1.75 0 0 0 .62-.11 1.16 1.16 0 0 0 .47-.39 2.14 2.14 0 0 0 .3-.71 4.91 4.91 0 0 0 .1-1.11z"/><path d="m49 6.08a1.84 1.84 0 0 1 .65.11 1.52 1.52 0 0 1 .49.31 1.46 1.46 0 0 1 .31.49 1.81 1.81 0 0 1 .11.63 1.59 1.59 0 0 1 -.29 1 1.44 1.44 0 0 1 -.8.52l1.31 2.34a.12.12 0 0 1 -.09 0h-.24-.25a.13.13 0 0 1 -.08 0l-1.29-2.33h-1.17v2.29a.09.09 0 0 1 -.07 0h-.2-.22-.07v-5.37h1.9zm-1.34 2.63h1.26a1 1 0 0 0 .75-.28 1.08 1.08 0 0 0 .27-.79 1.14 1.14 0 0 0 -.27-.79 1 1 0 0 0 -.75-.28h-1.26z"/><path d="m54.72 6.08a.15.15 0 0 0 0 .07s0 0 0 .07 0 .06 0 .1a.31.31 0 0 1 0 .1s0 .06 0 .08v.06h-1.47v4.9h-.07-.2-.22-.06v-4.89h-1.51a.14.14 0 0 1 0-.06.45.45 0 0 1 0-.18.37.37 0 0 1 0-.17.25.25 0 0 1 0-.07z"/><path d="m58.71 6.08a.62.62 0 0 1 0 .23.57.57 0 0 1 0 .24h-2.44v2h2.07a.49.49 0 0 1 0 .21.64.64 0 0 1 0 .24h-2.06v2h2.52a.57.57 0 0 1 0 .22.69.69 0 0 1 0 .25h-3.07v-5.39z"/><path d="m61.77 6.08a1.88 1.88 0 0 1 .65.11 1.52 1.52 0 0 1 .49.31 1.64 1.64 0 0 1 .31.49 1.81 1.81 0 0 1 .11.63 1.59 1.59 0 0 1 -.29 1 1.44 1.44 0 0 1 -.8.52l1.31 2.34a.12.12 0 0 1 -.09 0h-.24-.25a.13.13 0 0 1 -.08 0l-1.25-2.31h-1.17v2.3h-.06-.21-.22-.06v-5.38h1.85zm-1.31 2.63h1.26a1 1 0 0 0 .75-.28 1.08 1.08 0 0 0 .27-.79 1.14 1.14 0 0 0 -.27-.79 1 1 0 0 0 -.75-.28h-1.26z"/><path d="m30.27 13.41a2.82 2.82 0 0 1 .85.12 1.56 1.56 0 0 1 .64.42 1.78 1.78 0 0 1 .39.72 3.8 3.8 0 0 1 .14 1.09 3.48 3.48 0 0 1 -.14 1.09 1.62 1.62 0 0 1 -1 1.14 2.86 2.86 0 0 1 -.85.13h-1.65v-4.71zm-.05 3.89a1.35 1.35 0 0 0 .41-.07.66.66 0 0 0 .3-.23 1.28 1.28 0 0 0 .19-.47 4.07 4.07 0 0 0 .06-.77 4.19 4.19 0 0 0 -.06-.78 1.28 1.28 0 0 0 -.19-.47.62.62 0 0 0 -.3-.22 1.31 1.31 0 0 0 -.41-.06h-.53v3.07z"/><path d="m35.89 13.41a1.22 1.22 0 0 1 0 .17 1.36 1.36 0 0 1 0 .21 1.09 1.09 0 0 1 -.07.42h-1.75v1.14h1.49a.8.8 0 0 1 0 .18.62.62 0 0 1 0 .21.69.69 0 0 1 0 .22.78.78 0 0 1 -.05.18h-1.45v1.19h1.94a1 1 0 0 1 0 .18 1.36 1.36 0 0 1 0 .21 1.5 1.5 0 0 1 0 .22 1.8 1.8 0 0 1 0 .19h-3v-4.71h2.88z"/><path d="m36.67 13.46h.14.16.44.17.15v4.59h-.15-.17-.41a.35.35 0 0 1 -.16 0h-.13v-4.59z"/><path d="m38.43 14.77a1.47 1.47 0 0 1 .11-.59 1.12 1.12 0 0 1 .32-.45 1.36 1.36 0 0 1 .53-.3 2.2 2.2 0 0 1 .77-.11 4.91 4.91 0 0 1 .57 0c.17 0 .32.06.44.08l.36.1a1.52 1.52 0 0 1 -.06.42.92.92 0 0 1 -.2.35 2.14 2.14 0 0 0 -.27-.06l-.31-.05h-.36c-.56 0-.84.17-.84.5a.31.31 0 0 0 .1.23 2.22 2.22 0 0 0 .25.16l.35.13.4.12.43.18a1.26 1.26 0 0 1 .73 1.22 1.35 1.35 0 0 1 -.43 1.09 2 2 0 0 1 -1.33.37 4.57 4.57 0 0 1 -.67-.05l-.49-.11c-.16-.05-.29-.11-.41-.16a1.65 1.65 0 0 1 .06-.43 1.28 1.28 0 0 1 .18-.37 3.44 3.44 0 0 0 .38.11 3.24 3.24 0 0 0 .39.06 3.64 3.64 0 0 0 .48 0 1.07 1.07 0 0 0 .58-.12.48.48 0 0 0 .18-.38.31.31 0 0 0 -.06-.19.43.43 0 0 0 -.15-.15 1.3 1.3 0 0 0 -.21-.12l-.26-.1-.53-.15a2.13 2.13 0 0 1 -.5-.25 1.15 1.15 0 0 1 -.37-.39 1 1 0 0 1 -.16-.59z"/><path d="m45.27 13.41a.61.61 0 0 1 0 .17 1 1 0 0 1 0 .63h-1.82v1.14h1.49a.8.8 0 0 1 0 .18 1.15 1.15 0 0 1 0 .21 1.27 1.27 0 0 1 .06.26.78.78 0 0 1 0 .18h-1.56v1.19h1.9a1 1 0 0 1 0 .18 1.36 1.36 0 0 1 0 .21 1.5 1.5 0 0 1 0 .22 1.8 1.8 0 0 1 0 .19h-3v-4.75h2.88z"/><path d="m47.86 13.41a1.91 1.91 0 0 1 .66.1 1.61 1.61 0 0 1 .49.3 1.08 1.08 0 0 1 .3.46 1.82 1.82 0 0 1 .11.59 1.58 1.58 0 0 1 -.22.81 1.24 1.24 0 0 1 -.6.5l1.06 1.89h-.16-.19-.5-.18-.15l-1-1.77h-.38v1.77h-.13-.17-.45-.17-.13v-4.64zm-.76 2.06h.61a.58.58 0 0 0 .45-.16.65.65 0 0 0 .15-.47.64.64 0 0 0 -.15-.46.59.59 0 0 0 -.45-.16h-.61z"/></g><path d="m5.47 3.39-5.07 2.93-.03 5.55 9.92-5.75z" fill="#d20083"/><path d="m21.08 18.89-4.8-2.79-4.92 2.95 4.78 2.67z" fill="#362482"/><path d="m.72 18.89 10.16 5.84 4.52-2.59-10.3-5.87z" fill="#6c1482"/><path d="m.37 18.27 9.38-5.63-4.62-2.68-4.76 2.76z" fill="#9f0484"/><path d="m21.06 6.09-10.16-5.81-4.69 2.68 10.07 5.72z" fill="#f08"/></svg>