<svg height="62" viewBox="0 0 222 62" width="222" xmlns="http://www.w3.org/2000/svg"><g fill="none" fill-rule="evenodd"><g fill="#373760"><path d="m7.2655 48.3625h-2.579c-2.137 0-3.87-1.733-3.87-3.87v-27.166c0-2.137 1.733-3.87 3.87-3.87h2.155c2.137 0 3.87 1.733 3.87 3.87v27.59c0 1.903-1.543 3.446-3.446 3.446"/><path d="m61.6205 61.8185h-2.579c-2.137 0-3.87-1.733-3.87-3.87v-54.078c0-2.137 1.733-3.87 3.87-3.87h2.155c2.137 0 3.87 1.733 3.87 3.87v54.502c0 1.903-1.543 3.446-3.446 3.446"/><path d="m25.3838 61.8185h-2.579c-2.137 0-3.87-1.733-3.87-3.87v-54.078c0-2.137 1.733-3.87 3.87-3.87h2.155c2.137 0 3.87 1.733 3.87 3.87v54.502c0 1.903-1.543 3.446-3.446 3.446"/><path d="m79.7388 48.3625h-2.579c-2.137 0-3.87-1.733-3.87-3.87v-27.166c0-2.137 1.733-3.87 3.87-3.87h2.155c2.137 0 3.87 1.733 3.87 3.87v27.59c0 1.903-1.543 3.446-3.446 3.446"/><path d="m43.5021 49.4572h-2.579c-2.137 0-3.87-1.733-3.87-3.87v-26.395c0-2.138 1.733-3.87 3.87-3.87h2.155c2.137 0 3.87 1.732 3.87 3.87v26.819c0 1.903-1.543 3.446-3.446 3.446"/></g><g fill="#373760" transform="translate(115 21)"><path d="m11.7972 12.8614-2.039-4.428h-.027l-2.013 4.428zm-11.03 5.743 8.4-18.061c.081-.161.269-.295.456-.295h.269c.187 0 .375.134.456.295l8.4 18.061c.161.349-.054.698-.456.698h-2.979c-.483 0-.698-.161-.94-.671l-.966-2.12h-7.299l-.966 2.147c-.134.322-.43.644-.966.644h-2.953c-.402 0-.617-.349-.456-.698z"/><path d="m39.8409.2483c2.684 0 4.67.832 6.495 2.496.241.215.241.536.026.751l-2.093 2.174c-.188.188-.483.188-.671 0-.993-.886-2.308-1.369-3.623-1.369-3.032 0-5.26 2.523-5.26 5.529 0 2.978 2.255 5.447 5.287 5.447 1.261 0 2.63-.456 3.596-1.288.188-.161.537-.161.698.027l2.093 2.227c.188.188.161.537-.027.725-1.825 1.771-4.132 2.603-6.521 2.603-5.367 0-9.688-4.267-9.688-9.634s4.321-9.688 9.688-9.688"/><path d="m62.1685.6777c.027-.242.268-.429.483-.429h.429c.135 0 .376.107.457.268l6.226 11.593h.053l6.226-11.593c.081-.161.322-.268.457-.268h.429c.215 0 .456.187.483.429l3.033 18.034c.053.349-.188.59-.51.59h-3.167c-.242 0-.483-.214-.51-.429l-1.208-8.292h-.053l-4.509 8.695c-.08.161-.322.295-.456.295h-.483c-.161 0-.376-.134-.456-.295l-4.535-8.695h-.054l-1.181 8.292c-.027.215-.242.429-.51.429h-3.167c-.322 0-.563-.241-.509-.59z"/><path d="m94.6133 1.0266c0-.268.215-.51.51-.51h11.11c.295 0 .51.242.51.51v2.925c0 .268-.215.51-.51.51h-7.434v3.328h6.119c.269 0 .51.241.51.51v2.925c0 .295-.241.51-.51.51h-6.119v3.623h7.434c.295 0 .51.241.51.509v2.926c0 .268-.215.51-.51.51h-11.11c-.295 0-.51-.242-.51-.51z"/></g></g></svg>