<svg height="51" viewBox="0 0 215 51" width="215" xmlns="http://www.w3.org/2000/svg"><g fill="#fff" fill-rule="evenodd"><path d="m21.6685.3498-19.7577 7.8646c-2.1715 1.1251-2.2444 3.1521.5857 4.5586l16.757 9.4237c1.1049.5529 1.9927 2.0193 1.9747 3.2677l-.1796 14.9782c-.0185 1.2503-.832 1.6586-1.8149.9131l-11.5564-8.7655c-.9838-.746-1.8167-2.3718-1.8505-3.6176l-.2917-7.9204c-.0666-.6497-.4012-1.1737-1.0684-1.556l-4.4667-2.6167.4781 14.9147c.0365 1.2422.8681 2.872 1.8518 3.6176l19.489 14.7796c.9833.7442 2.6091.7622 3.6086.0459.8698-.5984 1.248-1.5965 1.2165-2.9175l.0126-21.8401c.0153-1.2462.9243-2.7184 2.0215-3.2767l12.0166-6.083c1.0977-.5525 1.9472.0135 1.8824 1.2565l-.629 12.0715c-.0612 1.2481-.2777 2.4673-1.2804 3.1886l-8.1887 5.8052c-1.0252.7757-1.7829 1.7509-1.7181 3.3263v4.6508l14.5324-10.4484c1.0018-.719 1.8716-2.3254 1.936-3.5658l1.0932-21.1008c0-1.5348-.8267-2.6266-1.9684-3.0706-.7974-.3084-2.1476-.2417-3.257.3071l-17.1158 8.8744c-1.095.5542-2.8945.5542-3.9958 0l-10.5128-5.2888c-1.099-.5502-1.0657-1.3827.0824-1.8311l10.1445-4.0421c1.1485-.4548 3.0156-.4651 4.166-.0243l5.807 2.1318c.6407.2625 1.1535.1666 1.6226-.054l6.0227-2.8446-13.4866-5.138c-.5627-.2156-1.3007-.3237-2.0417-.3237-.7677 0-1.5385.1162-2.1211.3498z" fill-opacity=".7"/><path d="m65.3597 17.0183c3.8008 0 5.7003 1.4889 5.7003 4.4658v.7446c0 2.9783-1.8995 4.4663-5.7003 4.4663h-9.4989v-2.9774h8.8663c1.266 0 1.9008-.4957 1.9008-1.4889v-.7446c0-.9923-.6348-1.488-1.9008-1.488h-3.1665c-3.8003 0-5.6998-1.4889-5.6998-4.4672 0-2.976 1.8995-4.4649 5.6998-4.4649h9.4994v2.9774h-8.8654c-1.2679 0-1.9009.497-1.9009 1.4875 0 .9932.633 1.4894 1.9009 1.4894z"/><path d="m81.9644 11.0681v2.9783h-1.8995v6.6976c0 1.9859 1.0554 2.9782 3.1669 2.9782v2.9778h-2.5334c-3.3771 0-5.0669-1.985-5.0669-5.956v-6.6976h-1.8995v-2.9783h1.8995v-2.9764h4.4334v2.9764z"/><path d="m96.6716 19.9815-4.4321.0144c-1.2674.0491-1.9008.5461-1.9008 1.488v.7451c0 .9932.6334 1.4889 1.9008 1.4889h4.4321zm4.4344 6.7133h-9.5013c-3.7986 0-5.6994-1.488-5.6994-4.4658v-.7595c0-2.9175 1.9008-4.3767 5.6994-4.3767h3.1674c1.266 0 1.8995-.5204 1.8995-1.5636 0-.991-.6335-1.488-1.8995-1.488h-8.8668v-2.9769h9.5002c3.7995 0 5.7005 1.6118 5.7005 4.8368z"/><path d="m117.076 23.7178.012 2.9769h-8.245c-3.377 0-5.066-1.9846-5.066-5.9547v-3.7216c0-3.9705 1.689-5.9542 5.066-5.9542h8.245v2.9769h-5.71c-2.113 0-3.167.9923-3.167 2.9773v3.7216c0 1.9851 1.054 2.9778 3.167 2.9778z"/><path d="m124.182 22.9886v3.6928h-4.432v-4.4658l.012-16.377h4.42v11.7775l6.333-6.5657h5.066l-8.056 8.3517 8.056 7.2793h-5.066l-5.345-4.839z"/><path d="m147.12 17.0183c3.799 0 5.699 1.4889 5.699 4.4658v.7446c0 2.9783-1.9 4.4663-5.699 4.4663h-9.501v-2.9774h8.867c1.267 0 1.899-.4957 1.899-1.4889v-.7446c0-.9923-.632-1.488-1.899-1.488h-3.165c-3.801 0-5.702-1.4889-5.702-4.4672 0-2.976 1.901-4.4649 5.702-4.4649h9.498v2.9774h-8.864c-1.268 0-1.901.497-1.901 1.4875 0 .9932.633 1.4894 1.901 1.4894zm21.671 6.6995.012 2.9769h-8.244c-3.378 0-5.068-1.9846-5.068-5.9547v-3.7216c0-3.9705 1.69-5.9542 5.068-5.9542h8.244v2.9769h-5.712c-2.111 0-3.165.9923-3.165 2.9773v3.7216c0 1.9851 1.054 2.9778 3.165 2.9778zm17.872 2.977h-9.499c-3.801 0-5.701-1.488-5.701-4.4658v-.7595c0-2.9175 1.9-4.3767 5.701-4.3767h3.166c1.267 0 1.9-.5204 1.9-1.5636 0-.991-.633-1.488-1.9-1.488h-8.867v-2.9769h9.5c3.799 0 5.7 1.6118 5.7 4.8368zm7.106-5.9683c0 1.9851 1.054 2.9778 3.165 2.9778v2.9774h-2.532c-3.38 0-5.068-1.9842-5.068-5.9552v-14.8877h4.435zm5.841-5.1972c0-2.9764 1.688-4.4649 5.066-4.4649h4.431c3.8 0 5.701 1.4885 5.701 4.4649v.7447c0 2.9769-1.901 4.4662-5.701 4.4662h-3.164c-1.267 0-1.901.4953-1.901 1.4885s.634 1.4893 1.901 1.4893h8.865v2.9769h-9.498c-3.801 0-5.7-1.6131-5.7-4.839zm-17.38 4.4522-4.432.0144c-1.268.0491-1.901.5461-1.901 1.488v.7451c0 .9932.633 1.4889 1.901 1.4889h4.432zm21.812-2.1443c.397-.0505.822-.0752 1.268-.0752h3.165c1.269 0 1.901-.4962 1.901-1.488v-.7447c0-.9909-.632-1.488-1.901-1.488h-2.532c-1.267 0-1.901.5061-1.901 1.5182z" fill-opacity=".7"/><path d="m143.333 36.8793h1.23c.821 0 1.232-.3296 1.232-.986v-1.2314c0-.6564-.411-.9837-1.232-.9837h-1.23zm2.215-4.1871c1.313 0 1.97.6568 1.97 1.9697v1.2314c0 1.3151-.657 1.9697-1.97 1.9697h-2.215v1.7253h-1.721l-.004-6.8961z"/><path d="m149.981 37.8628h-1.723v-5.1704h3.941c1.313 0 1.971.6565 1.971 1.9693h-1.726c0-.6564-.41-.9837-1.229-.9837h-1.234z"/><path d="m156.633 37.8542h-1.725v-5.1717h1.725zm-1.479-5.6643c-.165 0-.246-.0828-.246-.2458v-.7393c0-.1652.081-.2462.246-.2462h1.231c.165 0 .248.081.248.2462v.7393c0 .163-.083.2458-.248.2458z"/><path d="m159.338 37.8628-2.216-5.1704h1.724l1.48 3.695 1.475-3.695h1.726l-2.189 5.1704z"/><path d="m168.207 35.6411-1.726.0064c-.491.0148-.737.1814-.737.4939v.2458c0 .3273.246.4921.737.4921h1.726zm1.723 2.2219h-3.694c-1.475 0-2.215-.4921-2.215-1.4758v-.2522c0-.9648.74-1.4483 2.215-1.4483h1.233c.492 0 .738-.1711.738-.5169 0-.3291-.246-.4916-.738-.4916h-3.448v-.986h3.695c1.477 0 2.214.5339 2.214 1.6005z"/><path d="m173.871 32.6861v.9837h-.737v2.2174c0 .6582.408.9873 1.229.9873v.9842h-.984c-1.313 0-1.971-.6586-1.971-1.9715v-2.2174h-.737v-.9837h.737v-.9833h1.726v.9833z"/><path d="m176.826 34.9326c.155-.0166.317-.0252.495-.0252h1.231c.492 0 .737-.1621.737-.4916v-.2459c0-.3291-.245-.4921-.737-.4921h-.985c-.495 0-.741.1671-.741.5002zm-1.723-.7627c0-.9855.657-1.4776 1.969-1.4776h1.726c1.477 0 2.218.4921 2.218 1.4776v.2459c0 .9837-.741 1.4776-2.218 1.4776h-1.231c-.495 0-.741.1648-.741.4939 0 .3273.246.4921.741.4921h3.449v.9833h-3.695c-1.478 0-2.218-.5335-2.218-1.6006z"/><path d="m191.357 36.8793.007.9837h-3.209c-1.313 0-1.968-.6546-1.968-1.9697v-1.2314c0-1.3129.655-1.9697 1.968-1.9697h3.209v.986h-2.221c-.824 0-1.234.3273-1.234.9837v1.2314c0 .6564.41.986 1.234.986z"/><path d="m193.821 35.883c0 .6564.41.9855 1.232.9855v.9856h-.984c-1.317 0-1.971-.6583-1.971-1.9711v-4.9246h1.723z"/><path d="m199.979 34.6618c0-.6565-.413-.9838-1.234-.9838-.82 0-1.229.3273-1.229.9838v1.2313c0 .6565.409.986 1.229.986.821 0 1.234-.3295 1.234-.986zm-2.218 3.2011c-1.313 0-1.971-.6546-1.971-1.9698v-1.2313c0-1.3129.658-1.9698 1.971-1.9698h2.218c1.146 0 1.723.6569 1.723 1.9698v1.2313c0 1.3152-.658 1.9698-1.971 1.9698z"/><path d="m206.627 32.6922h1.725v3.2012c0 1.3151-.659 1.9693-1.971 1.9693h-1.969c-1.315 0-1.97-.6542-1.97-1.9693v-3.2012h1.721v3.2012c0 .6564.411.986 1.235.986.818 0 1.229-.3296 1.229-.986z"/><path d="m213.277 33.6655h-1.232c-.821 0-1.229.3295-1.229.9878v1.2295c0 .6565.408.9856 1.229.9856h1.232zm-2.216 4.1884c-1.315 0-1.971-.6582-1.971-1.9711v-1.2295c0-1.3147.656-1.9711 1.971-1.9711h2.216v-1.7235h1.719l.004 6.8952z"/></g></svg>