<svg enable-background="new 0 0 841.9 595.3" viewBox="0 0 841.9 595.3" xmlns="http://www.w3.org/2000/svg"><g fill="#fff"><path d="m63.2 304.4c0 24.2 18.1 43.2 41.1 43.2 8.5 0 16.1-2.1 22.7-6.3l1.2-.8v5.4h26.6v-82.7h-26.6v5.2l-1.2-.8c-6.5-4.2-14.2-6.3-22.7-6.3-23.1 0-41.1 18.9-41.1 43.1zm68.4.1c0 13.8-7.9 21.7-21.7 21.7-11.8 0-20.6-9.3-20.6-21.7s8.9-21.8 20.6-21.8c19.6-.1 21.7 15.2 21.7 21.8z"/><path d="m201.1 306.2v-43h-26.6v47.4c0 23.1 13.8 38 35.2 38 8.3 0 15.5-2.5 22.6-8l1.3-1v6.4h26.6v-82.7h-26.6v52.7l-.2.2c-5.1 5.6-10.6 8.6-16.1 8.6-10.3-.1-16.2-6.8-16.2-18.6z"/><path d="m329.7 324.2c-9 0-14-4.8-14-13.5v-25h28.7v-22.6h-28.7v-34l-26.6 13.7v20.3h-16.5v22.6h16.5v25.8c0 22.4 13 36.9 33.1 36.9 8 0 14.1-.6 24.7-3.9l-2.9-22.3c-6.1 1.2-10.4 2-14.3 2z"/><path d="m400.2 261.3c-25.9 0-44.1 17.8-44.1 43.2 0 25.5 18.6 43.4 45.3 43.4 20.2 0 35.8-10.5 40-26.7h-26.4c-2.7 3.9-7.4 6.1-13.3 6.1-10 0-17-5-19.7-14.1l-.3-1h60.3c.5-3 .5-6.2.5-9.3 0-24.6-17.4-41.6-42.3-41.6zm-18.8 35.8.2-1c2.3-9.3 9-14.7 18.5-14.7 9.7 0 15.9 5.2 17.5 14.8l.2.9z"/><path d="m508.7 260.6c-8.4 0-15.9 2.7-22.8 8.2l-1.3 1v-6.6h-26.6v82.7h26.6v-52.4l.2-.2c5-5.7 9.1-8.8 16.3-8.8 10.2 0 16.1 6.8 16.1 18.5v42.9h26.7v-47.4c0-23-13.8-37.9-35.2-37.9z"/><path d="m611.2 324.2c-9 0-14-4.8-14-13.5v-25h28.7v-22.6h-28.7v-41.4l-26.6 13.7v27.7h-16.5v22.6h16.5v25.8c0 22.4 13 36.9 33.1 36.9 8 0 14.1-.6 24.7-3.9l-2.9-22.3c-6.1 1.2-10.4 2-14.3 2z"/><path d="m644.9 263.2h26.6v82.7h-26.6z"/><path d="m729.5 261.3c-23.1 0-41.1 19-41.1 43.2s18.1 43.2 41.1 43.2c8.5 0 16.1-2.1 22.7-6.3l1.2-.8v5.4h26.6v-82.7h-26.6v5.2l-1.2-.8c-6.5-4.3-14.2-6.4-22.7-6.4zm27.3 43.2c0 13.8-7.9 21.7-21.7 21.7-11.8 0-20.6-9.3-20.6-21.7s8.9-21.8 20.6-21.8c19.6-.1 21.7 15.2 21.7 21.8z"/><path d="m657.3 218.2c-8.2.3-15 7.1-15 15.1 0 4.1 1.5 7.9 4.4 10.7 3 3 7.2 4.6 11.8 4.5 8.3-.2 15.3-7.1 15.3-15 0-4.2-1.6-8-4.6-10.8-3.1-3.1-7.4-4.8-11.9-4.5z"/><path d="m458.1 362.3h85.9v16.4h-85.9z"/></g></svg>