<svg enable-background="new 0 0 667.6 294" viewBox="0 0 667.6 294" xmlns="http://www.w3.org/2000/svg"><path d="m-347-382.9h1361.6" fill="none" stroke="#9c9b9b" stroke-miterlimit="3.864" stroke-width=".25"/><path d="m-327.6-408.4h5.5c1.5 0 2.7.4 3.5 1.2.7.7 1 1.6 1 2.8 0 1.9-1.1 3.2-2.6 3.7l2.9 4.3h-3.1l-2.6-3.9h-2v3.9h-2.7v-12zm5.3 5.9c1.3 0 2-.7 2-1.7 0-1.1-.8-1.7-2.1-1.7h-2.6v3.4z" fill="#9c9b9b"/><path d="m-315.7-402.3c0-3.5 2.7-6.3 6.3-6.3 2.2 0 3.5.6 4.7 1.7l-1.7 2c-.9-.8-1.8-1.2-3.2-1.2-1.9 0-3.5 1.7-3.5 3.8 0 2.2 1.5 3.8 3.7 3.8 1 0 1.8-.2 2.5-.7v-1.7h-2.7v-2.3h5.2v5.2c-1.2 1.1-2.9 1.9-5.2 1.9-3.5 0-6.1-2.6-6.1-6.2z" fill="#9c9b9b"/><path d="m-301.7-408.4h5.6c1.4 0 2.5.4 3.2 1.1.6.6.8 1.2.8 2 0 1.4-.7 2.1-1.6 2.6 1.4.5 2.3 1.3 2.3 3 0 2.2-1.8 3.3-4.5 3.3h-5.7v-12zm7 3.6c0-.8-.6-1.2-1.7-1.2h-2.6v2.5h2.4c1.1 0 1.9-.4 1.9-1.3zm-1.3 3.5h-3.1v2.7h3.2c1.2 0 1.9-.4 1.9-1.3-.1-.9-.7-1.4-2-1.4z" fill="#9c9b9b"/><g fill="#362482"><path d="m304.9 154.3c-.2.1-.4.2-.6.2-.4.1-1 .2-1.9.2s-1.6-.1-2-.2c-.2 0-.4-.1-.6-.2v-48.5h17.3c2.2 0 4.2.4 5.9 1.1s3.2 1.7 4.5 3c1.2 1.3 2.1 2.8 2.8 4.6s1 3.8 1 5.9c0 2.2-.3 4.1-1 5.9s-1.6 3.3-2.8 4.6-2.7 2.3-4.5 3-3.7 1.1-5.9 1.1h-12.3zm11.8-23.9c3 0 5.3-.9 6.9-2.7s2.4-4.3 2.4-7.4c0-3.3-.8-5.8-2.4-7.6s-3.9-2.7-6.9-2.7h-11.8v20.5z"/><path d="m358.1 105.8c2.2 0 4.2.3 5.9 1 1.8.7 3.2 1.6 4.5 2.8 1.2 1.2 2.1 2.7 2.8 4.4s1 3.6 1 5.7c0 3.4-.9 6.3-2.6 8.7s-4.1 3.9-7.3 4.7l11.9 21.2c-.2.1-.5.2-.8.2-.5.1-1.2.2-2.2.2s-1.7-.1-2.2-.2c-.3 0-.5-.1-.8-.2l-11.4-20.6h-10.7v20.7c-.2.1-.4.2-.6.2-.4.1-1 .2-1.9.2s-1.6-.1-2-.2c-.2 0-.4-.1-.6-.2v-48.5h17zm-11.9 23.6h11.5c2.9 0 5.2-.8 6.9-2.5 1.6-1.7 2.5-4.1 2.5-7.1s-.8-5.4-2.5-7.1c-1.6-1.7-3.9-2.5-6.9-2.5h-11.5z"/><path d="m381.5 130.3c0-4.4.4-8.2 1.3-11.4s2.1-5.8 3.7-7.8 3.6-3.5 5.9-4.5 5-1.5 7.9-1.5 5.6.5 7.9 1.5 4.3 2.5 5.9 4.5 2.9 4.6 3.7 7.8c.9 3.2 1.3 7 1.3 11.4s-.4 8.2-1.3 11.4-2.1 5.8-3.7 7.8-3.6 3.5-5.9 4.5-5 1.5-7.9 1.5-5.6-.5-7.9-1.5-4.3-2.5-5.9-4.5-2.9-4.6-3.7-7.8c-.9-3.3-1.3-7-1.3-11.4zm32.4 0c0-3.9-.3-7.2-1-9.9-.6-2.7-1.5-4.8-2.7-6.5-1.2-1.6-2.6-2.8-4.3-3.5s-3.5-1.1-5.6-1.1-3.9.4-5.6 1.1-3.1 1.9-4.2 3.5c-1.2 1.6-2.1 3.8-2.7 6.5s-1 6-1 9.9.3 7.3 1 9.9 1.5 4.8 2.7 6.5c1.2 1.6 2.6 2.8 4.2 3.5 1.7.7 3.5 1.1 5.6 1.1s3.9-.3 5.6-1.1c1.7-.7 3.1-1.9 4.3-3.5s2.1-3.8 2.7-6.5c.7-2.8 1-6 1-9.9z"/><path d="m435.3 154.3c-.2.1-.4.2-.6.2-.4.1-1.1.2-1.9.2s-1.5-.1-1.9-.2c-.2 0-.4-.1-.6-.2v-48.5h26.9c.1.2.2.5.3.8s.1.8.1 1.3 0 .9-.1 1.3c-.1.3-.2.6-.3.8h-21.9v18.6h19.1c.1.2.2.5.3.8s.1.7.1 1.2 0 .9-.1 1.3-.2.7-.3.9h-19.1z"/><path d="m466.7 106.2.6-.2c.2 0 .5-.1.8-.1s.7-.1 1.1-.1.8 0 1.1.1c.3 0 .6.1.8.1l.6.2v48.1c-.2.1-.5.2-.7.2-.4.1-1 .2-1.9.2s-1.5-.1-1.9-.2c-.2 0-.4-.1-.6-.2v-48.1z"/><path d="m512.1 105.8c.3.6.4 1.3.4 2 0 .9-.1 1.6-.4 2.2h-22.1v17.9h18.7c.3.6.4 1.3.4 2 0 .8-.1 1.5-.4 2.2h-18.7v18.5h22.8c.3.6.4 1.3.4 2 0 .8-.1 1.5-.4 2.2h-27.9v-48.9h27.2z"/><path d="m522.9 106.2.6-.2c.2 0 .5-.1.8-.1s.7-.1 1.1-.1.8 0 1.1.1c.3 0 .6.1.8.1l.6.2v44.1h21.5c.1.2.2.5.2.9.1.4.1.8.1 1.3s0 .9-.1 1.3-.2.7-.2 1h-26.5z"/><path d="m572.4 105.8c3.2 0 6 .4 8.5 1.2s4.6 2.2 6.3 4.1 3 4.4 3.8 7.5c.9 3.1 1.3 7 1.3 11.6s-.4 8.4-1.3 11.6c-.9 3.1-2.1 5.6-3.8 7.5s-3.8 3.3-6.3 4.1-5.3 1.3-8.5 1.3h-14.4v-48.9zm-.4 44.6c2.3 0 4.4-.3 6.3-.8 1.8-.6 3.4-1.6 4.7-3.1s2.3-3.6 2.9-6.2c.7-2.6 1-5.9 1-10s-.3-7.4-1-10.1c-.7-2.6-1.7-4.7-2.9-6.2-1.3-1.5-2.8-2.5-4.7-3.1s-3.9-.8-6.3-.8h-8.8v40.4z"/><path d="m600.9 118.6c0-4.1 1.4-7.4 4.1-9.8 2.7-2.5 6.8-3.7 12.1-3.7 2 0 3.7.1 5.3.3s3 .4 4.1.6c1.3.3 2.5.6 3.5.9 0 .7-.1 1.4-.3 2.1s-.6 1.3-1 1.8c-1-.3-2-.5-3.2-.7-1-.2-2.2-.3-3.5-.5s-2.7-.2-4.2-.2c-4 0-7 .8-8.9 2.3-1.9 1.6-2.9 3.7-2.9 6.6 0 1.5.3 2.8 1 3.8s1.6 1.8 2.7 2.5 2.5 1.3 4 1.7c1.5.5 3.1 1 4.8 1.5 1.6.5 3.3 1.1 4.9 1.7 1.6.7 3 1.5 4.3 2.5s2.3 2.3 3.1 3.8 1.2 3.4 1.2 5.7c0 4.4-1.4 7.8-4.3 10.2s-7 3.6-12.4 3.6c-2.2 0-4.2-.1-5.9-.4-1.8-.3-3.3-.6-4.5-1-1.5-.4-2.8-.9-3.9-1.4 0-.7.1-1.4.3-2.1s.5-1.4 1-1.9c1.2.4 2.5.8 3.9 1.1 1.2.3 2.5.5 4.1.7 1.5.2 3.1.3 4.7.3 3.9 0 6.8-.8 8.8-2.3s3-3.8 3-6.8c0-1.5-.3-2.7-.8-3.7s-1.3-1.8-2.2-2.5-2-1.2-3.2-1.7-2.5-.9-3.9-1.3c-1.8-.5-3.7-1.1-5.5-1.7-1.9-.6-3.5-1.4-5-2.4s-2.7-2.3-3.7-3.8c-1.1-1.3-1.6-3.3-1.6-5.8z"/><path d="m315.1 173.4c3 0 5.7.4 8.1 1.2s4.4 2.1 6 3.9 2.9 4 3.7 6.8 1.3 6.2 1.3 10.1c0 4-.4 7.3-1.3 10.1s-2.1 5.1-3.7 6.8c-1.7 1.8-3.7 3-6 3.9-2.4.8-5.1 1.2-8.1 1.2h-15.3v-44.2h15.3zm-.3 36.5c1.4 0 2.7-.2 3.8-.6s2.1-1.1 2.8-2.2c.8-1.1 1.4-2.5 1.8-4.4s.6-4.3.6-7.2c0-3-.2-5.4-.6-7.3s-1-3.3-1.8-4.4c-.8-1-1.7-1.8-2.8-2.1-1.1-.4-2.4-.6-3.8-.6h-5v28.8z"/><path d="m368.2 173.4c.2.4.3 1 .4 1.6s.2 1.3.2 2c0 1.5-.2 2.8-.6 3.9h-17.2v10.7h14.1c.2.5.3 1.1.4 1.7s.2 1.2.2 2-.1 1.5-.2 2.1-.3 1.2-.5 1.7h-14v11.1h17.8c.2.5.4 1.1.5 1.7s.2 1.3.2 2-.1 1.4-.2 2-.3 1.2-.5 1.8h-27.7v-44.2h27.1z"/><path d="m375.6 173.9c.4-.1.8-.2 1.3-.2.5-.1 1-.2 1.5-.2.6-.1 1.3-.1 2-.1.8 0 1.5 0 2.1.1s1.1.1 1.6.2.9.2 1.4.2v43.1c-.4.1-.9.2-1.4.3s-1 .1-1.6.2c-.6 0-1.3.1-2 .1-.8 0-1.5 0-2.2-.1-.6 0-1.1-.1-1.5-.2-.5-.1-.9-.2-1.2-.3z"/><path d="m392.2 186.2c0-2 .3-3.8 1-5.5s1.7-3.1 3-4.3 3-2.1 5.1-2.8c2-.7 4.5-1 7.3-1 2 0 3.8.1 5.4.3s3 .5 4.1.7c1.3.3 2.5.7 3.5 1 0 1.3-.2 2.6-.6 3.9s-1 2.4-1.9 3.3c-.8-.2-1.7-.5-2.7-.6-.8-.2-1.8-.3-2.9-.4s-2.2-.2-3.4-.2c-5.2 0-7.9 1.6-7.9 4.7 0 .9.3 1.6.9 2.1.6.6 1.4 1 2.3 1.5.9.4 2 .8 3.3 1.2 1.2.4 2.5.8 3.8 1.2 1.4.5 2.7 1.1 4 1.7 1.3.7 2.5 1.5 3.5 2.5s1.9 2.2 2.5 3.6.9 3.1.9 5.2c0 4.5-1.4 7.9-4.1 10.2s-6.9 3.5-12.6 3.5c-2.3 0-4.4-.2-6.2-.5s-3.4-.6-4.6-1c-1.5-.5-2.8-1-4-1.5 0-1.3.2-2.6.6-4s1-2.5 1.7-3.5c1.1.4 2.2.7 3.5 1 1.1.2 2.3.5 3.7.6 1.4.2 2.9.3 4.5.3 2.5 0 4.3-.4 5.4-1.2s1.7-2 1.7-3.5c0-.7-.2-1.3-.5-1.8s-.8-1-1.4-1.4-1.2-.8-2-1.1-1.6-.6-2.5-.9c-1.6-.5-3.2-1-4.9-1.6s-3.3-1.3-4.7-2.3-2.6-2.2-3.6-3.7c-.7-1.3-1.2-3.3-1.2-5.7z"/><path d="m456.7 173.4c.2.4.3 1 .4 1.6s.2 1.3.2 2c0 1.5-.2 2.8-.6 3.9h-17.2v10.7h14.1c.2.5.3 1.1.4 1.7s.2 1.2.2 2-.1 1.5-.2 2.1-.3 1.2-.5 1.7h-14.1v11.1h17.8c.2.5.4 1.1.5 1.7s.2 1.3.2 2-.1 1.4-.2 2-.3 1.2-.5 1.8h-27.7v-44.2h27.2z"/><path d="m481.1 173.4c2.4 0 4.4.3 6.2 1s3.3 1.6 4.6 2.8 2.2 2.6 2.8 4.3 1 3.5 1 5.5c0 2.9-.7 5.4-2 7.6-1.3 2.1-3.2 3.7-5.7 4.7l10.1 17.8c-.5.1-.9.2-1.5.3-.5.1-1.1.1-1.8.2-.7 0-1.5.1-2.4.1s-1.6 0-2.3-.1c-.7 0-1.2-.1-1.7-.2s-1-.2-1.4-.3l-9.2-16.6h-3.8v16.6c-.4.1-.8.2-1.3.3s-1 .1-1.6.2c-.6 0-1.3.1-2 .1-.8 0-1.6 0-2.2-.1-.6 0-1.2-.1-1.6-.2-.5-.1-.9-.2-1.2-.3v-43.6zm-7.1 19.5h5.7c1.9 0 3.3-.5 4.3-1.5.9-1 1.4-2.5 1.4-4.4s-.5-3.4-1.4-4.4-2.4-1.5-4.3-1.5h-5.7z"/></g><path d="m178 184.9 49.1-27.8v-45.8l-89.3 50.8z" fill="#d20083"/><path d="m171.4 188.7-88.8-50.6v49.6l45 25.5z" fill="#9f0484"/><path d="m124.5 101.9-39.5-22.8-49.2 28.2.1 47z" fill="#362482"/><path d="m223.8 105.6-92.3-53-39.9 22.7 92 53.3z" fill="#f08"/><path d="m35.7 218.6 40.3 22.8v-103.2l-40 23.7z" fill="#6c1482"/></svg>