<svg height="45" viewBox="0 0 198 45" width="198" xmlns="http://www.w3.org/2000/svg"><g fill="#fff" fill-rule="evenodd"><path d="m19.3146103 37.4745269c1.6376258-1.6539013 4.2919447-1.6543049 5.9298902 0 1.6375459 1.6536996 1.6377457 4.3345292 0 5.9890359-1.6375459 1.6539013-4.2920646 1.6541031-5.9298902 0-1.6375459-1.6541032-1.6379455-4.3349328 0-5.9890359zm-3.1140545-15.1216345c1.6379455-1.654305 4.2929437-1.6551121 5.9308892-.0008072 1.6373461 1.6536996 1.6361473 4.3365673-.000999 5.990065l-5.928092 5.987018c-1.6379455 1.6543049-4.2928638 1.6551121-5.9308093.0010089-1.63754591-1.6536995-1.63614732-4.3365471.000999-5.9902466zm2.8173542-21.1122646c1.6376258-1.65390134 4.2923443-1.65430493 5.93009-.00020179 1.6375459 1.65390134 1.6387447 4.33392377-.0001998 5.98923767l-17.789311 17.96692602c-1.63754591 1.6541031-4.29206458 1.6543049-5.92981029.0002018-1.63754591-1.6539215-1.6389445-4.333944 0-5.9892579z"/><path d="m19.3146103 37.4745269c1.6376258-1.6539013 4.2919447-1.6543049 5.9298902 0 1.6375459 1.6536996 1.6377457 4.3345292 0 5.9890359-1.6375459 1.6539013-4.2920646 1.6541031-5.9298902 0-1.6375459-1.6541032-1.6379455-4.3349328 0-5.9890359zm-3.1140545-15.1216345c1.6379455-1.654305 4.2929437-1.6551121 5.9308892-.0008072 1.6373461 1.6536996 1.6361473 4.3365673-.000999 5.990065l-5.928092 5.987018c-1.6379455 1.6543049-4.2928638 1.6551121-5.9308093.0010089-1.63754591-1.6536995-1.63614732-4.3365471.000999-5.9902466zm2.8173542-21.1122646c1.6376258-1.65390134 4.2923443-1.65430493 5.93009-.00020179 1.6375459 1.65390134 1.6387447 4.33392377-.0001998 5.98923767l-17.789311 17.96692602c-1.63754591 1.6541031-4.29206458 1.6543049-5.92981029.0002018-1.63754591-1.6539215-1.6389445-4.333944 0-5.9892579z"/><path d="m195.284343 42.8133834c-1.734048 1.4371749-3.935025 2.1557623-6.60293 2.1557623-1.778604 0-3.631532-.3218609-5.558186-.9655829-1.926854-.643722-3.660902-1.5943722-5.202345-2.8517489l2.934636-4.2215247c2.490084 1.9460987 5.143005 2.919148 7.95916 2.919148.859732 0 1.541443-.17213 2.045334-.5165919.504091-.3440583.756036-.8009193.756036-1.369574 0-.5688565-.348448-1.0929148-1.044944-1.5717713-.696696-.4790583-1.704478-.9282511-3.023746-1.3473767-1.318868-.4191255-2.326849-.7783184-3.023346-1.0777803-.696896-.2994618-1.489895-.7335201-2.378997-1.3023766-1.808173-1.137713-2.71246-2.8216816-2.71246-5.0523094 0-2.2306279.889302-4.0492131 2.668105-5.4565225 1.778404-1.4071076 4.075883-2.1107623 6.892038-2.1107623 2.815956 0 5.632111.9581166 8.448267 2.874148l-2.490085 4.4911412c-2.075104-1.4371749-4.142616-2.1557623-6.202934-2.1557623-2.06012 0-3.090279.5690583-3.090279 1.7063677 0 .628991.326071 1.1229821.978212 1.4821749.652341.3591928 1.734248.7785202 3.245921 1.2575785 1.511873.4790583 2.586388.8457175 3.223944 1.1003811.637156.2542601 1.400385.6509866 2.289887 1.1897758 1.659923 1.0180494 2.490084 2.7171525 2.490084 5.0973094 0 2.380157-.867124 4.2889238-2.601372 5.7258969"/><path d="m159.729857 31.1369529v13.4729597h-6.669863v-24.1611458h6.669863v2.6945516c2.015764-2.0659641 4.283273-3.0987444 6.803128-3.0987444 2.519655 0 4.631721.8979821 6.3362 2.6945516 1.704478 1.7961659 2.556817 4.1912354 2.556817 7.1854506v14.6853364h-6.669863v-13.6525561c0-3.7123991-1.348637-5.5686995-4.046313-5.5686995-1.333852 0-2.497477.4865246-3.490474 1.4595739-.993197.9728476-1.489495 2.4025561-1.489495 4.288722"/><path d="m91.9565146 44.6098722h6.669663v-24.1611659h-6.669663z"/><path d="m72.228442 44.6098318h-6.669663v-24.1612668h6.669663v2.6945516c2.0157639-2.0657623 4.2834732-3.0987444 6.8031281-3.0987444 2.5198547 0 4.6317215.8981839 6.3363996 2.6945516 1.7044783 1.7963677 2.5568174 4.1915583 2.5568174 7.1857735v14.6851345h-6.6698628v-13.6523542c0-3.7126009-1.3488375-5.5689014-4.0463128-5.5689014-1.3340525 0-2.4974773.4865247-3.4904743 1.459574-.9931967.9730494-1.4896952 2.4027579-1.4896952 4.288722z"/><path d="m91.3784985 14.5654709c0-1.1076458.3780181-2.0433633 1.1338547-2.8067489.7560363-.7633857 1.6823007-1.1451794 2.7791927-1.1451794 1.0966922 0 2.0231564.3817937 2.7789929 1.1451794.7558366.7633856 1.1338547 1.6991031 1.1338547 2.8067489 0 1.1078475-.3780181 2.0433632-1.1338547 2.8069506-.7558365.7633857-1.6823007 1.1449776-2.7789929 1.1449776-1.096892 0-2.0231564-.3815919-2.7791927-1.1449776-.7558366-.7635874-1.1338547-1.6991031-1.1338547-2.8069506"/><path d="m54.2216307 14.5654709c0-1.1076458.3780181-2.0433633 1.1338547-2.8067489.7558365-.7633857 1.6823007-1.1451794 2.7789929-1.1451794 1.096892 0 2.0231564.3817937 2.7791927 1.1451794.7558366.7633856 1.1338547 1.6991031 1.1338547 2.8067489 0 1.1078475-.3780181 2.0433632-1.1338547 2.8069506-.7560363.7633857-1.6823007 1.1449776-2.7791927 1.1449776-1.0966922 0-2.0231564-.3815919-2.7789929-1.1449776-.7558366-.7635874-1.1338547-1.6991031-1.1338547-2.8069506"/><path d="m54.7996468 44.6098722h6.669663v-24.1611659h-6.669663z"/><path d="m45.012333 20.6731614h5.570773v4.8501727h-5.570773v19.0864574h-6.714218v-19.0864574h-2.8011705v-4.8501727h2.8011705v-1.4819731c0-2.6346188.792999-4.722982 2.3787972-6.2648879 1.585998-1.5419058 3.5572069-2.3127578 5.9138264-2.3127578 2.3568194 0 4.4984562.8981839 6.4253098 2.6945516l-2.4009747 4.5357175c-.9784117-1.137713-2.0603189-1.7065695-3.2461211-1.7065695-.6817114 0-1.2449425.2471973-1.6896933.7409865-.4445509.4941928-.6669263 1.2200448-.6669263 2.1781614z"/><path d="m140.605774 26.9319955c-.919072-.7783184-2.037942-1.1675785-3.357209-1.1675785-1.319068 0-2.527047.4041929-3.62374 1.2125785-1.096892.8083857-1.734248 1.9013005-1.912068 3.2783408h10.4938c-.14825-1.4369731-.681711-2.5450224-1.600783-3.3233408zm6.452882 14.1776233c-2.697675 2.5748879-5.862079 3.8621301-9.493411 3.8621301s-6.6327-1.1300449-9.004105-3.3903363c-2.371404-2.2604933-3.557207-5.2920404-3.557207-9.0942377 0-3.8023991 1.20798-6.826278 3.62394-9.0716368 2.415959-2.2455605 5.269078-3.3683408 8.559554-3.3683408 3.290276 0 6.084254 1.0031166 8.381534 3.0089462 2.297479 2.0060314 3.446119 4.7605157 3.446119 8.2632511v3.5929372h-17.430194c.20739 1.3171077.889102 2.3950897 2.045134 3.2333408 1.156232.838453 2.460315 1.2573767 3.913048 1.2573767 2.341834 0 4.268488-.7934529 5.780561-2.3801569z"/><path d="m103.621332 26.0394821v-5.5687198h19.297907v5.2543251l-11.605277 13.2931615h12.272403v5.6136995h-20.80998v-5.5686995l11.294392-13.0237668z"/></g></svg>