<svg height="77" viewBox="0 0 166 77" width="166" xmlns="http://www.w3.org/2000/svg" xmlns:xlink="http://www.w3.org/1999/xlink"><mask id="a" fill="#fff"><path d="m62.1873.173h-62.187v76.7469h62.187z" fill="#fff" fill-rule="evenodd"/></mask><g fill="none" fill-rule="evenodd" transform="translate(0 -1)"><g fill="#373760"><path d="m88.582 49.1754c1.659 0 3.235-1.244 3.733-2.074v-2.654c-.249-.166-1.411-.664-2.904-.664-1.99 0-3.359 1.037-3.359 2.738 0 1.493.995 2.654 2.53 2.654m.498-7.963c1.741 0 3.276.498 3.276.498.041-2.613-.456-3.65-2.572-3.65-1.907 0-3.774.498-4.645.746-.497.125-.787-.207-.912-.663l-.332-1.535c-.124-.539.166-.829.539-.954.291-.124 2.655-.954 5.724-.954 5.309 0 5.806 3.235 5.806 7.383v8.834c0 .415-.373.788-.788.788h-1.161c-.373 0-.539-.166-.705-.581l-.415-1.12c-.912.872-2.53 2.115-5.101 2.115-3.111 0-5.35-2.115-5.35-5.557 0-3.028 2.405-5.35 6.636-5.35"/><path d="m108.6545 34.7007c2.53 0 4.479 1.037 6.014 2.944.29.374.207.872-.166 1.162l-1.369 1.244c-.498.456-.788.125-1.119-.166-.747-.829-1.95-1.576-3.318-1.576-2.696 0-4.812 2.281-4.812 5.102 0 2.861 2.074 5.143 4.77 5.143 2.115 0 2.986-1.079 3.857-1.908.373-.374.746-.374 1.12-.083l1.119.912c.416.332.581.747.291 1.162-1.327 2.115-3.567 3.483-6.429 3.483-4.645 0-8.668-3.691-8.668-8.668 0-4.894 4.106-8.751 8.71-8.751"/><path d="m119.1884 35.9036c0-.415.373-.788.788-.788h1.161c.374 0 .581.207.705.497l.457 1.411c.373-.374 2.281-2.323 5.474-2.323 2.406 0 4.148.954 5.351 2.654.456-.456 2.861-2.654 6.013-2.654 5.06 0 6.843 3.567 6.843 7.88v8.336c0 .415-.331.789-.788.789h-2.322c-.456 0-.788-.374-.788-.789v-8.501c0-2.614-1.203-4.107-3.443-4.107-2.53 0-3.981 1.784-4.272 2.032.083.374.125 1.162.125 1.992v8.584c0 .415-.373.789-.788.789h-2.198c-.456 0-.788-.374-.788-.789v-8.501c0-2.655-1.203-4.107-3.525-4.107-2.489 0-3.899 1.95-4.106 2.489v10.119c0 .415-.374.789-.788.789h-2.323c-.415 0-.788-.374-.788-.789z"/><path d="m162.0303 41.5854c-.124-1.991-1.783-3.691-3.815-3.691-2.24 0-3.982 1.617-4.231 3.691zm-3.774-6.885c4.313 0 7.631 3.235 7.631 7.673 0 .29-.041.83-.083 1.12-.041.415-.373.705-.746.705h-11.281c.124 2.24 2.073 4.438 4.769 4.438 1.493 0 2.862-.664 3.692-1.203.497-.29.788-.456 1.119-.042l1.162 1.576c.29.333.414.664-.083 1.079-1.203 1.037-3.36 2.073-6.139 2.073-5.018 0-8.336-3.939-8.336-8.709 0-4.687 3.318-8.71 8.295-8.71z"/></g><path d="m56.3553 54.9949c0 5.342-4.37 9.712-9.712 9.712h-31.099c-5.342 0-9.712-4.37-9.712-9.712v-26.783c0-2.423 1.982-4.405 4.405-4.405h41.713c2.423 0 4.405 1.982 4.405 4.405zm.131-37.444h-19.933l10.172-13.781c.74-1.003.527-2.416-.476-3.156s-2.416-.528-3.156.475l-12.15 16.462h-.672l-7.915-7.915c-.881-.882-2.31-.882-3.192 0-.881.881-.881 2.31 0 3.191l4.724 4.724h-18.187c-3.136 0-5.701 2.565-5.701 5.701v33.064c0 8.056 6.591 14.647 14.647 14.647h7.985l-2.684 1.764c-1.042.684-1.331 2.084-.647 3.125.685 1.042 2.083 1.332 3.125.648l8.427-5.537h.478l8.477 5.585c.382.252.813.372 1.239.372.734 0 1.453-.357 1.887-1.016.686-1.04.398-2.44-.643-3.126l-2.755-1.815h8.004c8.056 0 14.647-6.591 14.647-14.647v-33.064c0-3.136-2.565-5.701-5.701-5.701z" fill="#373760" mask="url(#a)" transform="translate(0 .827)"/></g></svg>