<svg height="66" viewBox="0 0 230 66" width="230" xmlns="http://www.w3.org/2000/svg"><g fill="none" fill-rule="evenodd"><g fill="#fff"><path d="m85 64v-8h5.813639v.9440744h-4.7495702v2.4501871h4.4479083v.9386233h-4.4479083v2.7230408h4.9359312v.9440744z"/><path d="m92 64h1v-8h-1z"/><path d="m98.4505684 65 .4781261-2.5290021h-.9286945v-.8845788h1.0935814l.406476-2.1549977h-1.5000574v-.8845788h1.6649443l.4778967-2.5468426h.824205l-.477897 2.5468426h1.730624l.478126-2.5468426h.829716l-.478126 2.5468426h.950511v.8845788h-1.115398l-.411987 2.1549977h1.527385v.8845788h-1.692272l-.477897 2.5290021h-.824205l.472385-2.5290021h-1.7251117l-.4781261 2.5290021zm1.4669882-3.4135809h1.7253414l.412217-2.1549977h-1.730853z"/><path d="m105 62.1567536 1.008909-.1513465c.056867.3855846.214672.6810706.473415.8864807.25898.2054101.620794.3081152 1.085679.3081152.468676 0 .816273-.0910022 1.043029-.272984s.340252-.39548.340252-.6405398c0-.2198015-.100227-.3927915-.300445-.5189023-.139797-.0865063-.487632-.1963958-1.043029-.3297361-.748508-.1801744-1.267179-.3360394-1.556251-.4675724s-.508246-.3135148-.657521-.5459454c-.149511-.2324307-.224149-.4891933-.224149-.7702654 0-.255859.061606-.4928081.184343-.7108248s.29002-.3990948.501611-.5432343c.158753-.1117194.37532-.2063138.649228-.2837832.273907-.0774693.567955-.1162153.881433-.1162153.472467 0 .887356.0648628 1.244431.1945884.357076.1297255.620795.3054041.790921.5270355.170126.2216089.287176.5180212.351388.8891918l-.997772.1297256c-.045257-.2955086-.176524-.5261319-.394039-.6918923-.217278-.1657605-.524358-.248652-.92124-.248652-.468439 0-.803004.0738771-1.003222.2216315-.200455.1477317-.300446.3207217-.300446.5189023 0 .1261334.041466.2396376.124633.3405579.083168.1044898.213487.1909735.391195.2594511.101886.0360349.402569.1189264.901337.248652.721969.1837892 1.225476.334232 1.510757.451351s.50943.2873754.671737.5108143c.162544.2234162.243816.5008961.243816.832417 0 .3243366-.099043.6297407-.297602.9162349-.198323.2864717-.484788.5081032-.858923.6648493-.374136.1567687-.797318.2351417-1.269785.2351417-.782391 0-1.378543-.1549613-1.788693-.4648613-.409914-.3099226-.671738-.7693617-.784997-1.3783851z"/><path d="m110.579639 65.8821092-.123453-.9055463c.242783.0571538.454381.0857306.635309.0857306.246649 0 .443814-.035721.59201-.1071632.147938-.0714422.269072-.1714836.36366-.3000795.069845-.0964357.18299-.3357782.339175-.718005.020619-.0535928.053608-.1321792.098712-.2357816l-2.485052-5.7012642h1.196392l1.362629 3.2953876c.176804.4179479.335051.8573284.474742 1.3181416.127577-.4429638.279639-.8752001.456443-1.2967089l1.399742-3.3168203h1.110052l-2.491237 5.7870172c-.267268.6251302-.475 1.0555749-.622938 1.2913564-.197165.3179289-.423454.5510006-.678351.6992599-.254897.1482369-.55902.2223665-.912629.2223665-.213659 0-.452061-.0393044-.715206-.1178908z"/><path d="m116 62.1567536 1.008909-.1513465c.056867.3855846.214672.6810706.473415.8864807.25898.2054101.620794.3081152 1.085679.3081152.468676 0 .816273-.0910022 1.043029-.272984s.340252-.39548.340252-.6405398c0-.2198015-.100227-.3927915-.300445-.5189023-.139797-.0865063-.487632-.1963958-1.043029-.3297361-.748508-.1801744-1.267179-.3360394-1.556251-.4675724s-.508246-.3135148-.657521-.5459454c-.149511-.2324307-.224149-.4891933-.224149-.7702654 0-.255859.061606-.4928081.184343-.7108248s.29002-.3990948.501611-.5432343c.158753-.1117194.37532-.2063138.649228-.2837832.273907-.0774693.567955-.1162153.881433-.1162153.472467 0 .887356.0648628 1.244431.1945884.357076.1297255.620795.3054041.790921.5270355.170126.2216089.287176.5180212.351388.8891918l-.997772.1297256c-.045257-.2955086-.176524-.5261319-.394039-.6918923-.217278-.1657605-.524358-.248652-.92124-.248652-.468439 0-.803004.0738771-1.003222.2216315-.200455.1477317-.300446.3207217-.300446.5189023 0 .1261334.041466.2396376.124633.3405579.083168.1044898.213487.1909735.391195.2594511.101886.0360349.402569.1189264.901337.248652.721969.1837892 1.225476.334232 1.510757.451351s.50943.2873754.671737.5108143c.162544.2234162.243816.5008961.243816.832417 0 .3243366-.099043.6297407-.297602.9162349-.198323.2864717-.484788.5081032-.858923.6648493-.374136.1567687-.797318.2351417-1.269785.2351417-.782391 0-1.378543-.1549613-1.788693-.4648613-.409914-.3099226-.671738-.7693617-.784997-1.3783851z"/><path d="m126.625839 63.1621607c-.408992.3063078-.802599.5225171-1.181076.6486505-.378222.1261334-.784136.1891888-1.217745.1891888-.715671 0-1.265951-.1540576-1.650327-.4621502-.384375-.3081152-.576691-.7018104-.576691-1.1810856 0-.2810947.072567-.5378348.217702-.770288.145134-.2324307.335399-.4189083.570537-.5594557.235138-.1405247.500021-.2468446.794649-.3189143.216676-.0504489.54387-.0990903.981581-.145947.891576-.0936907 1.548014-.2054101 1.969314-.3351357.004103-.1333403.006155-.2180167.006155-.2540515 0-.3964063-.104364-.675671-.312834-.8378393-.28232-.2198241-.701569-.3297361-1.257746-.3297361-.51951 0-.902859.0801804-1.150306.2405413-.247446.1603609-.430531.444144-.548998.8513495l-1.079789-.1297256c.097952-.4072054.259498-.7360379.484636-.9864747.224881-.2504593.550023-.4432403.975426-.5783881.425403-.1351251.918244-.202699 1.478525-.202699.556177 0 1.008248.0576558 1.355955.1729674.347451.1153117.603103.2603549.766699.4351297.163597.1747748.278217.3955026.343605.6621608.036925.165783.055387.4648838.055387.8973024v1.297301c0 .9045094.023334 1.4765717.070516 1.7162319.046925.2396376.140006.4693571.278986.6891812h-1.153383c-.114363-.2017953-.187956-.4378407-.220778-.7081137zm-.092056-2.1729825c-.400786.1441622-1.002094.2666808-1.803666.3675784-.454122.0576558-.775162.1225186-.963118.1945884-.188214.0720698-.333348.1774859-.43566.3162259-.102312.1387399-.15334.2927975-.15334.4621502 0 .2594737.111287.475683.334373.6486504.22283.1729901.548998.2594738.978504.2594738.425402 0 .803624-.0819878 1.13492-.2459635.331296-.1639531.57464-.388273.730031-.6729599.118723-.2198241.177956-.544138.177956-.972987z"/><path d="m132.093488 63.8711451v-.7194735c-.365555.5655523-.903109.8483284-1.612435.8483284-.459723 0-.882233-.1252868-1.267756-.375838s-.684139-.6004477-.895847-1.0496671c-.211709-.4492193-.31745-.9655365-.31745-1.5489966 0-.5691204.095757-1.08546.287724-1.5489966.19174-.4635365.479465-.8187739.863172-1.0657571.383708-.2469831.812571-.3704746 1.28659-.3704746.347629 0 .656909.0724837.928523.217451.271386.1449674.492171.333784.662355.56645v-2.824171h.971636v7.8711451zm-3.089177-2.8456468c0 .7302003.155662 1.276072.466985 1.6375928.311096.3615208.678466.5422812 1.101883.5422812.427275 0 .790107-.1727041 1.088723-.5181125.298388-.3454308.447696-.8724971.447696-1.5812215 0-.7803105-.151804-1.3530214-.455865-1.7181103-.304062-.3651113-.678693-.547667-1.123894-.547667-.434309 0-.797141.175397-1.088496.5261912-.291354.3507717-.437032.903802-.437032 1.6590461z"/><path d="m135 64v-5.8674077h.895059v.8232179c.185425-.2873065.431962-.518431.739377-.6933734.307648-.1749656.65805-.2624368 1.050742-.2624368.437538 0 .796073.0902422 1.075837.2707267.279765.1804614.477272.4327609.592059.7568986.467049-.6850835 1.074908-1.0276253 1.823579-1.0276253.585553 0 1.035871.1611336 1.350955.483424.315083.3222904.472392.8185996.472392 1.4889507v4.0276253h-.994975v-3.6961445c0-.397777-.032531-.6841598-.09736-.8591023-.064829-.1749656-.182637-.3158478-.352958-.4226468-.170554-.106822-.370618-.1602331-.600424-.1602331-.415232 0-.759825.1372107-1.034012.411609-.27442.2743983-.411514.7136249-.411514 1.3176797v3.408838h-1.000784v-3.812157c0-.4419976-.081327-.7734784-.244445-.9944657-.163118-.2210103-.430103-.331504-.80072-.331504-.281624 0-.541869.0736625-.78097.2209873-.239101.1473479-.412443.3628163-.519794.6464281-.107584.2836118-.16126.6924498-.16126 1.2265139v3.0441974z"/><path d="m145 57.1295958v-1.1295958h1v1.1295958zm0 6.8704042v-5.7953654h1v5.7953654z"/><path d="m147 64v-5.8674077h.93859v.8342558c.451859-.6445577 1.104707-.9668481 1.958301-.9668481.370738 0 .711691.0635252 1.022617.1905986.310926.1270735.543636.2937491.698131.5000039.154494.2062547.262495.4512111.324486.7347999.038503.1841791.057875.5064464.057875.9668711v3.6077265h-1.042958v-3.569071c0-.4051433-.04044-.708106-.121562-.9088418-.081121-.2007359-.224961-.3609459-.431761-.4806531-.206557-.1197072-.448953-.1795608-.726946-.1795608-.444353 0-.827683.1344397-1.150233.4033191-.322549.2688794-.483582.7789974-.483582 1.5303771v3.2044305z"/><path d="m161.093302 63.8711451v-.7194735c-.365538.5655523-.903068.8483284-1.612362.8483284-.459702 0-.882192-.1252868-1.267698-.375838-.385279-.2505512-.683881-.6004477-.89558-1.0496671-.211699-.4492193-.317662-.9655365-.317662-1.5489966 0-.5691204.095979-1.08546.287711-1.5489966.191732-.4635365.479443-.8187739.863133-1.0657571.38369-.2469831.812534-.3704746 1.286758-.3704746.347386 0 .65688.0724837.928254.217451.271374.1449674.492149.333784.662325.56645v-2.824171h.971819v7.8711451zm-3.089036-2.8456468c0 .7302003.155654 1.276072.466963 1.6375928s.678662.5422812 1.10206.5422812c.427029 0 .789844-.1727041 1.088446-.5181125.298603-.3454308.447904-.8724971.447904-1.5812215 0-.7803105-.152024-1.3530214-.456072-1.7181103-.304048-.3651113-.678662-.547667-1.123843-.547667-.434289 0-.797105.175397-1.088446.5261912-.291342.3507717-.437012.903802-.437012 1.6590461z"/><path d="m167.823464 62.0216285 1.139905.124326c-.179823.5873798-.512829 1.0432268-.999018 1.3675633-.486189.3243139-1.107373.4864822-1.863296.4864822-.951885 0-1.706784-.2585475-2.264441-.775665s-.836614-1.2423562-.836614-2.1756936c0-.9657574.28203-1.7153056.845835-2.2486444.563805-.5333389 1.295138-.799997 2.193998-.799997.870426 0 1.581266.2612585 2.132775.7837756.551765.5225397.827392 1.2576739.827392 2.2054026 0 .0576784-.002049.1441622-.006148.2594738h-4.853947c.040986.6306217.243095 1.1135117.60684 1.4486475.363489.3351357.817145.5027035 1.360457.5027035.404731 0 .749776-.0936907 1.035905-.2810721.285873-.187404.512829-.4865048.680357-.8973024zm-3.622337-1.5729735h3.634377c-.048927-.48289-.187765-.8450462-.416514-1.0864913-.35145-.3747853-.807155-.5621667-1.366862-.5621667-.506681 0-.932673.1495617-1.277718.4486399-.345302.2991008-.536396.6990993-.573283 1.2000181z"/><path d="m174.849443 63.0324836.150557.8790604c-.29361.0589707-.555995.088456-.787639.088456-.378328 0-.671938-.0571221-.880346-.1713662-.208407-.1142672-.355091-.2644668-.440051-.4505988-.084961-.1861319-.127562-.5777369-.127562-1.1748381v-3.378035h-.764402v-.7740132h.764402v-1.4540476l1.036711-.5971011v2.0511487h1.04833v.7740132h-1.04833v3.4333085c0 .2838079.018396.4662657.054946.5473504.036792.0810847.096579.1455781.179603.1935033.083024.0479021.20163.0718647.356302.0718647.115701 0 .268194-.012894.457479-.0387052z"/><path d="m180.065049 63.8674077v-.8618734c-.480098.6629848-1.132525.9944657-1.957039.9944657-.363835 0-.703641-.0662962-1.019175-.1988885-.315534-.1325924-.549757-.299268-.70267-.5000039-.152913-.2007358-.260437-.4465928-.32233-.7375709-.042476-.1952169-.063835-.5045991-.063835-.9281695v-3.6353672h1.045388v3.2541469c0 .5193316.021117.8692396.063835 1.049724.065777.2615132.205097.4668442.417961.6160164.213107.1491722.476214.2237583.789806.2237583.313593 0 .60801-.0764335.882767-.2292772.274758-.1528668.469418-.3609689.583738-.6243063.114078-.2633604.171117-.6455044.171117-1.1464088v-3.1436533h1.045388v5.8674077z"/><path d="m190.823258 62.0216285 1.139857.124326c-.179816.5873798-.512808 1.0432268-.998976 1.3675633-.486168.3243139-1.107069.4864822-1.862961.4864822-.9521 0-1.706967-.2585475-2.2646-.775665s-.836578-1.2423562-.836578-2.1756936c0-.9657574.282018-1.7153056.845799-2.2486444.563781-.5333389 1.295082-.799997 2.193904-.799997.870389 0 1.581199.2612585 2.13294.7837756.551486.5225397.827357 1.2576739.827357 2.2054026 0 .0576784-.002049.1441622-.006148.2594738h-4.853995c.040983.6306217.24334 1.1135117.606813 1.4486475.36373.3351357.817111.5027035 1.360656.5027035.404457 0 .749744-.0936907 1.035604-.2810721.286117-.187404.512808-.4865048.680328-.8973024zm-3.621926-1.5729735h3.634221c-.04918-.48289-.188012-.8450462-.416752-1.0864913-.351434-.3747853-.806865-.5621667-1.366803-.5621667-.50666 0-.932377.1495617-1.277664.4486399-.345287.2991008-.536373.6990993-.573002 1.2000181z"/><path d="m192 64v-5.8674077h.895059v.8232179c.185425-.2873065.431962-.518431.739377-.6933734.307648-.1749656.65805-.2624368 1.050742-.2624368.437538 0 .796073.0902422 1.075837.2707267.279765.1804614.477272.4327609.592059.7568986.467049-.6850835 1.074908-1.0276253 1.823579-1.0276253.585553 0 1.035871.1611336 1.350955.483424.315083.3222904.472392.8185996.472392 1.4889507v4.0276253h-.994975v-3.6961445c0-.397777-.032531-.6841598-.09736-.8591023-.064829-.1749656-.182404-.3158478-.352958-.4226468-.170554-.106822-.370618-.1602331-.600424-.1602331-.415232 0-.759825.1372107-1.034012.411609-.27442.2743983-.411514.7136249-.411514 1.3176797v3.408838h-1.000784v-3.812157c0-.4419976-.081327-.7734784-.244445-.9944657-.163118-.2210103-.430103-.331504-.80072-.331504-.281624 0-.541869.0736625-.78097.2209873-.239101.1473479-.412443.3628163-.519794.6464281-.107584.2836118-.16126.6924498-.16126 1.2265139v3.0441974z"/><path d="m202 66v-7.8714041h.889206v.73946c.209892-.2893519.44653-.5063659.710595-.6510419.263837-.144676.583888-.217014.959925-.217014.491636 0 .925473.125035 1.30151.3750826s.659821.6028017.851353 1.0582623c.191758.4554606.287411.9546824.287411 1.4976653 0 .5822648-.105626 1.1065025-.317104 1.5726683-.211705.4661881-.518836.823399-.922073 1.0716773-.40301.2482559-.826873.3723951-1.27159.3723951-.32549 0-.617435-.0678812-.875833-.2036214-.258624-.1357401-.471009-.3072013-.637381-.5143836v2.7702541zm.883993-4.9939644c0 .7322935.150052 1.2734847.44993 1.6235737.300104.3500666.663448.5251111 1.090031.5251111.434063 0 .80534-.1812929 1.114511-.5438787s.463756-.9243138.463756-1.6851841c0-.7251716-.150958-1.2681545-.452876-1.6289486-.301918-.3607942-.662541-.5411913-1.081871-.5411913-.415704 0-.783581.1920205-1.103632.5760165-.32005.3840185-.479849.9421856-.479849 1.6745014z"/><path d="m208 64v-5.8674077h.842304v.8895141c.214922-.4162042.413328-.6906255.595436-.8232179.181891-.1325923.382035-.1988885.600435-.1988885.315537 0 .636073.106822.961825.3204431l-.322275.9226506c-.22883-.1436533-.457442-.2154684-.686273-.2154684-.204491 0-.388337.0653725-.551104.1961406-.162985.1307451-.27903.3121532-.348352.5441782-.104093.3536027-.156031.740342-.156031 1.1602408v3.0718151z"/><path d="m216.823464 62.0216285 1.139905.124326c-.179823.5873798-.512829 1.0432268-.999018 1.3675633-.486189.3243139-1.107373.4864822-1.863296.4864822-.951885 0-1.706784-.2585475-2.264441-.775665s-.836614-1.2423562-.836614-2.1756936c0-.9657574.28203-1.7153056.845835-2.2486444.563805-.5333389 1.295138-.799997 2.193998-.799997.870426 0 1.581266.2612585 2.132775.7837756.551765.5225397.827392 1.2576739.827392 2.2054026 0 .0576784-.002049.1441622-.006148.2594738h-4.853947c.040986.6306217.243095 1.1135117.60684 1.4486475.363489.3351357.817145.5027035 1.360457.5027035.404475 0 .749776-.0936907 1.035905-.2810721.285873-.187404.512829-.4865048.680357-.8973024zm-3.622337-1.5729735h3.634377c-.048927-.48289-.187765-.8450462-.41677-1.0864913-.351194-.3747853-.806899-.5621667-1.366606-.5621667-.506681 0-.932673.1495617-1.277974.4486399-.345046.2991008-.53614.6990993-.573027 1.2000181z"/><path d="m218 62.1567536 1.009098-.1513465c.056627.3855846.214425.6810706.473393.8864807s.620764.3081152 1.085627.3081152c.468654 0 .816235-.0910022 1.04298-.272984s.340236-.39548.340236-.6405398c0-.2198015-.100223-.3927915-.300431-.5189023-.140028-.0865063-.487609-.1963958-1.043217-.3297361-.748235-.1801744-1.266881-.3360394-1.55594-.4675724-.289295-.131533-.508458-.3135148-.657726-.5459454-.149268-.2324307-.223902-.4891933-.223902-.7702654 0-.255859.061366-.4928081.184334-.7108248.122731-.2180167.290006-.3990948.501587-.5432343.158746-.1117194.375066-.2063138.649197-.2837832.273895-.0774693.567692-.1162153.881391-.1162153.472445 0 .887078.0648628 1.244373.1945884.357059.1297255.620765.3054041.790646.5270355.170118.2216089.2874.5180212.351609.8891918l-.997725.1297256c-.045492-.2955086-.176753-.5261319-.39402-.6918923-.217268-.1657605-.524333-.248652-.921196-.248652-.468654 0-.802967.0738771-1.003412.2216315-.200209.1477317-.300431.3207217-.300431.5189023 0 .1261334.0417.2396376.124863.3405579.082927.1044898.213477.1909735.39094.2594511.102118.0360349.402549.1189264.901531.248652.721698.1837892 1.225418.334232 1.510685.451351.285268.117119.50917.2873754.671706.5108143.162536.2234162.243804.5008961.243804.832417 0 .3243366-.099275.6297407-.297588.9162349-.19855.2864717-.484765.5081032-.858883.6648493-.374117.1567687-.797517.2351417-1.269724.2351417-.782354 0-1.378477-.1549613-1.788609-.4648613-.410131-.3099226-.671705-.7693617-.785196-1.3783851z"/><path d="m228.625839 63.1621607c-.409249.3063078-.802855.5225171-1.181076.6486505-.378478.1261334-.784393.1891888-1.217745.1891888-.715928 0-1.265951-.1540576-1.650327-.4621502-.384632-.3081152-.576691-.7018104-.576691-1.1810856 0-.2810947.072567-.5378348.217702-.770288.145134-.2324307.335399-.4189083.570537-.5594557.235138-.1405247.500021-.2468446.794393-.3189143.216932-.0504489.544126-.0990903.98158-.145947.891833-.0936907 1.548271-.2054101 1.969571-.3351357.004103-.1333403.006155-.2180167.006155-.2540515 0-.3964063-.104364-.675671-.313091-.8378393-.282063-.2198241-.701312-.3297361-1.257489-.3297361-.51951 0-.902859.0801804-1.150306.2405413-.247703.1603609-.430531.444144-.549254.8513495l-1.07979-.1297256c.098209-.4072054.259755-.7360379.484636-.9864747.225138-.2504593.55028-.4432403.975683-.5783881.425146-.1351251.917988-.202699 1.478525-.202699.556177 0 1.007991.0576558 1.355699.1729674.347707.1153117.603359.2603549.766955.4351297.163597.1747748.278217.3955026.343605.6621608.036668.165783.05513.4648838.05513.8973024v1.297301c0 .9045094.023591 1.4765717.070516 1.7162319.047182.2396376.140263.4693571.279243.6891812h-1.153383c-.11462-.2017953-.188213-.4378407-.220778-.7081137zm-.092056-2.1729825c-.400786.1441622-1.002094.2666808-1.803923.3675784-.453865.0576558-.774905.1225186-.963118.1945884s-.333347.1774859-.435659.3162259c-.102056.1387399-.15334.2927975-.15334.4621502 0 .2594737.111543.475683.334373.6486504.223086.1729901.549254.2594738.978503.2594738.425403 0 .803881-.0819878 1.135177-.2459635.331296-.1639531.57464-.388273.730031-.6729599.118467-.2198241.177956-.544138.177956-.972987z"/></g><path d="m37 46.1080756 5.1169667-.7747812c.2178081.9850002.6592857 1.7327362 1.3246672 2.2432548.665147.5105185 1.5966343.7657661 2.7942272.7657661 1.3185714 0 2.3105478-.2402303 2.9759293-.7207142.4475734-.3363364.6712429-.7867857.6712429-1.3513712 0-.3843778-.1209784-.7026841-.3629354-.9549423-.253914-.2402536-.8224659-.4624771-1.7056555-.6666705-4.1127986-.9008986-6.7196968-1.7238146-7.8204601-2.4683743-1.5241878-1.0332285-2.286399-2.4686312-2.286399-4.3064419 0-1.6577431.6592857-3.0511068 1.9778571-4.180091 1.3185714-1.1292178 3.3630135-1.6937099 6.1330919-1.6937099 2.6371428 0 4.5967124.4264636 5.8789434 1.2791573 1.282231.8529273 2.1654206 2.1141013 2.6493344 3.7837554l-4.8084247.8830553c-.2058509-.7447932-.5957486-1.3153577-1.1703962-1.7116933-.5746477-.3965691-1.3943002-.5946201-2.458723-.5946201-1.3427202 0-2.3044521.1861399-2.8849611.5584198-.3873186.2643794-.5807435.6067648-.5807435 1.0271561 0 .3603688.1692761.6665538.5080626.9187886.4597651.336313 2.0472556.8108881 4.7631751 1.4234917 2.715685.6126035 4.6117175 1.3634691 5.688332 2.2523632 1.0646573.9008052 1.5968687 2.1560703 1.5968687 3.7656786 0 1.7537557-.7378279 3.261279-2.2137182 4.5225464-1.4758903 1.2612673-3.6593638 1.891901-6.5504207 1.891901-2.6249512 0-4.7026858-.5285487-6.232735-1.5855993-1.5302837-1.0570739-2.5314039-2.4925001-3.0031261-4.3063251z" fill="#4b728d"/><path d="m67.5958554 31.9300483v4.1398235h-3.3739267v7.9095495c0 1.6016484.0322407 2.5349173.0967222 2.7998066s.2109272.4835703.439337.6560669c.2284099.1724727.5065431.258733.8346269.258733.4568196 0 1.1186633-.1663403 1.9857579-.4989731l.4216273 4.0287464c-1.1479524.5174659-2.4482538.7761989-3.9009041.7761989-.8904805 0-1.6928665-.1570939-2.4073852-.4712577-.7145187-.3141877-1.2387715-.7207441-1.5727584-1.2197172-.3337599-.4989731-.5651214-1.1735329-.6940844-2.0236316-.1053501-.6037023-.1580251-1.8234196-.1580251-3.6591517v-8.55637h-2.2668428v-4.1398235h2.2668428v-3.8993199l4.9550859-3.0307284v6.9300483z" fill="#4b728d"/><path d="m76.3095256 52h-5.3095256v-19.5581437h4.9315817v2.7809971c.8440259-1.313872 1.6030876-2.1794424 2.276941-2.5967113.6740976-.4175076 1.439263-.6261421 2.2959847-.6261421 1.2092739 0 2.3743567.3253647 3.4954926.9760942l-1.6438606 4.5118992c-.8943207-.5647931-1.7258949-.8471896-2.4942343-.8471896-.743192 0-1.3730984.1995634-1.8894752.5984515-.516621.3991268-.9228863 1.120515-1.2187958 2.163926-.2959096 1.0436497-.4441085 3.2290599-.4441085 6.5562782z" fill="#4b728d"/><path d="m85 45.8558175 3.2290653-.504493c.181424 1.2852764.6863171 2.2702766 1.5146792 2.9549539.8283622.6847007 1.9865221 1.0270394 3.4740111 1.0270394 1.4996777 0 2.6121301-.3033124 3.337826-.9099137s1.0885438-1.3183238 1.0885438-2.1351441c0-.7327421-.3206563-1.3093088-.9615001-1.7297468-.4474656-.2882717-1.5601524-.6546427-3.337826-1.0990897-2.3946089-.6007159-4.0546147-1.1201327-4.9797832-1.5585074-.9251685-.4386083-1.6264869-1.0451395-2.1041898-1.8198273-.4777029-.7749213-.7165544-1.6306512-.7165544-2.5676567 0-.8529273.1964254-1.6425623.5895107-2.3693722.3930853-.7268098.9282156-1.3303049 1.6053911-1.8107188.5079403-.3725134 1.2003516-.6878069 2.0772342-.946114.8766481-.2580735 1.8170524-.3872271 2.8207442-.3872271 1.5118664 0 2.8390272.2160344 3.9819513.6485704 1.1429241.4325359 1.9862878 1.0180476 2.5305597 1.7567686.5442719.7387209.9190739 1.7266405 1.1248759 2.9639923l-3.1929685.4323024c-.1450923-.9848834-.5653677-1.7537324-1.2605919-2.3063135-.6954585-.5523474-1.6780545-.828638-2.9480223-.828638-1.4996777 0-2.5699384.2461625-3.2107823.738721-.6410782.4923249-.9615001 1.0689617-.9615001 1.7296767 0 .4203913.1329036.7987435.3991796 1.1350566.2660416.3484576.6832699.6366592 1.2516847.8648383.3265163.1202786 1.2880164.3965691 2.8842661.8288715 2.3099912.6126036 3.9214767 1.1142706 4.8344565 1.5045339.9132141.3904968 1.6297685.958025 2.1496632 1.7027483.520129.7447465.780076 1.6696775.780076 2.7747928 0 1.081083-.317375 2.0991073-.952359 3.0540495-.6349835.9549656-1.5510105 1.6937099-2.7483149 2.2162329-1.1973044.5225231-2.5516554.7837963-4.0635218.7837963-2.5033695 0-4.4111339-.5165208-5.7232933-1.5495624s-2.1496631-2.5645738-2.512511-4.5946201z" fill="#fff"/><path d="m105 28.8124702v-3.8124702h3v3.8124702zm0 23.1875298v-19.5593568h3v19.5593568z" fill="#fff"/><path d="m112 45.8558175 3.229018-.504493c.181421 1.2852764.686307 2.2702766 1.514657 2.9549539.82835.6847007 1.986493 1.0270394 3.47396 1.0270394 1.499656 0 2.612326-.3033124 3.337777-.9099137.725686-.6066013 1.088528-1.3183238 1.088528-2.1351441 0-.7327421-.320417-1.3093088-.961486-1.7297468-.447459-.2882717-1.560129-.6546427-3.337777-1.0990897-2.394574-.6007159-4.054555-1.1201327-4.97971-1.5585074-.925155-.4386083-1.626463-1.0451395-2.104159-1.8198273-.477696-.7749213-.716544-1.6306512-.716544-2.5676567 0-.8529273.196422-1.6425623.589502-2.3693722.393079-.7268098.928202-1.3303049 1.605368-1.8107188.507932-.3725134 1.200334-.6878069 2.077203-.946114.876636-.2580735 1.817026-.3872271 2.820703-.3872271 1.511844 0 2.838986.2160344 3.981893.6485704 1.142908.4325359 1.986493 1.0180476 2.530523 1.7567686.544264.7387209.919295 1.7266405 1.124859 2.9639923l-3.192687.4323024c-.14509-.9848834-.56536-1.7537324-1.260808-2.3063135-.695448-.5523474-1.67803-.828638-2.947979-.828638-1.499421 0-2.569901.2461625-3.210735.738721-.641069.4923249-.961486 1.0689617-.961486 1.7296767 0 .4203913.133136.7987435.399173 1.1350566.266038.3484576.68326.6366592 1.251667.8648383.326511.1202786 1.287997.3965691 2.884224.8288715 2.309957.6126036 3.921419 1.1142706 4.83462 1.5045339.912966.3904968 1.62951.958025 2.149631 1.7027483.519887.7447465.780065 1.6696775.780065 2.7747928 0 1.081083-.317604 2.0991073-.952579 3.0540495-.63474.9549656-1.550988 1.6937099-2.748275 2.2162329-1.197287.5225231-2.551618.7837963-4.063462.7837963-2.503333 0-4.41107-.5165208-5.72321-1.5495624s-2.149631-2.5645738-2.512474-4.5946201z" fill="#fff"/><path d="m138.548305 48.7346239.451695 2.9668219c-.880266.1990281-1.667814.2985542-2.362868.2985542-1.135074 0-2.015565-.1928122-2.641023-.5784367-.625459-.3856244-1.065704-.8925426-1.320512-1.5207302-.254808-.6282119-.3821-1.9498898-.3821-3.9651065v-11.4008089h-2.293497v-2.6123493h2.293497v-4.9073759l3.110005-2.0151925v6.9225684h3.144803v2.6123493h-3.144803v11.5874052c0 .9578453.055003 1.5736013.165008 1.8472679s.289606.4913664.538577.6530752c.249195.1617088.605253.2425632 1.068622.2425632.347527 0 .805059-.0435351 1.372596-.1306053z" fill="#fff"/><path d="m155.469941 45.4053682 3.419826.4144124c-.539285 1.9579725-1.538268 3.4775003-2.996951 4.5585833-1.458682 1.0810829-3.32171 1.6216361-5.589557 1.6216361-2.855835 0-5.120356-.8618723-6.793565-2.5855934-1.673208-1.7237445-2.509694-4.1411581-2.509694-7.2523808 0-3.2190297.845751-5.7175554 2.537252-7.4953436 1.691502-1.7777881 3.885703-2.6666822 6.582365-2.6666822 2.610661 0 4.743569.8709107 6.398247 2.6124985 1.654916 1.7418213 2.482136 4.1922356 2.482136 7.3514763 0 .1922123-.005939.4804139-.018293.8648384h-14.56188c.122586 2.1020733.729341 3.7117049 1.820264 4.8288248 1.090924 1.1171198 2.45149 1.6756798 4.081698 1.6756798 1.21351 0 2.249317-.3123274 3.107184-.9369355.858104-.6246314 1.538506-1.6216361 2.040968-2.9910141zm-10.866235-5.2432373h10.903058c-.147056-1.6096316-.563992-2.8168553-1.250333-3.6216712-1.0541-1.2492628-2.420843-1.8737775-4.100228-1.8737775-1.519739 0-2.79763.4983973-3.833437 1.4954254-1.035807.997028-1.608827 2.3303691-1.71906 4.0000233z" fill="#fff"/><path d="m163 52v-19.5581437h2.908915v2.7439967c.602327-.9574747 1.403329-1.7280376 2.403006-2.3112115.99991-.5831739 2.138262-.8746415 3.415056-.8746415 1.421306 0 2.58674.3007774 3.496067.9023321.909561.6015547 1.550877 1.4425378 1.924413 2.5229492 1.517725-2.2835209 3.493032-3.4252813 5.926155-3.4252813 1.903168 0 3.36673.5371024 4.390687 1.6113073 1.023723 1.0744436 1.535701 2.7287191 1.535701 4.963304v13.4253887h-3.234125v-12.32039c0-1.3260462-.105524-2.2806563-.316105-2.8638302-.210814-.5831739-.593222-1.0527208-1.147457-1.4088793-.554001-.3559199-1.204421-.5339992-1.951261-.5339992-1.349166 0-2.469309.4573725-3.36066 1.371879-.891351.9147451-1.337027 2.378767-1.337027 4.3923044v11.3629153h-3.252334v-12.7073424c0-1.473093-.264978-2.5780917-.795166-3.3147576-.529955-.7366658-1.397259-1.1049987-2.601681-1.1049987-.915397 0-1.761691.2453961-2.538646.7366658-.776956.491031-1.340062 1.209316-1.689319 2.1546163-.349256.9453003-.523884 2.3081082-.523884 4.0884238v10.1473928z" fill="#fff"/><path d="m206.877343 49.207177c-1.227094 1.0210371-2.408053 1.7417513-3.543116 2.1621893-1.134824.4204147-2.352644.6306337-3.653221.6306337-2.147178 0-3.797572-.5135313-4.950946-1.5405473-1.153373-1.0270394-1.73006-2.3393609-1.73006-3.9369647 0-.9369354.217833-1.7927821.653499-2.5675633.435428-.7747812 1.00617-1.3963297 1.711511-1.8648325.70558-.4685028 1.500099-.8227992 2.38356-1.0631229.65017-.1681566 1.631845-.3302408 2.944789-.4864862 2.674637-.3122573 4.643933-.6847707 5.907888-1.1170731.012128-.4444471.018311-.7268099.018311-.846855 0-1.32143-.312956-2.2523632-.938632-2.7927996-.8466-.7328822-2.104371-1.0990898-3.773077-1.0990898-1.558124 0-2.708407.2671821-3.450846.8017797-.742202.5345976-1.291303 1.4804781-1.647065 2.8378749l-3.239434-.4325359c.294645-1.3573969.7793-2.4534505 1.453964-3.2881608.674902-.8349438 1.650394-1.4776754 2.926477-1.9279612 1.276083-.4505194 2.754542-.6756623 4.435614-.6756623 1.668705 0 3.024454.1922123 4.067484.5764032 1.042793.3844245 1.809727.8678745 2.300565 1.4505836.490599.5824755.834233 1.3183939 1.030664 2.2072879.110343.5523475.165515 1.5493756.165515 2.9908507v4.3243786c0 3.0150231.070629 4.9219415.21165 5.7207551.141258.7987902.420208 1.5645563.837563 2.2972984h-3.460121c-.343634-.6726728-.564558-1.4594585-.662536-2.3603805zm-.276096-7.2432022c-1.2026.4804139-3.006143.8888941-5.411106 1.2251838-1.361932.1921889-2.325058.4084101-2.889616.6486404-.564321.2402537-.999987.5916074-1.306523 1.0540612-.306774.4624538-.46016.9759851-.46016 1.5405473 0 .8648617.334359 1.5855759 1.003078 2.1621659.668719.5765667 1.647065.8648618 2.935514.8648618 1.276083 0 2.410907-.2732778 3.404711-.8198098.994042-.5465554 1.724115-1.2943148 2.190221-2.2432548.356-.732742.533881-1.813825.533881-3.2431555z" fill="#fff"/><path d="m214 45.8558175 3.229018-.504493c.181421 1.2852764.686307 2.2702766 1.514657 2.9549539.828584.6847007 1.986493 1.0270394 3.47396 1.0270394 1.499656 0 2.612326-.3033124 3.338012-.9099137.725451-.6066013 1.088293-1.3183238 1.088293-2.1351441 0-.7327421-.320417-1.3093088-.961486-1.7297468-.447459-.2882717-1.560129-.6546427-3.337777-1.0990897-2.394574-.6007159-4.054321-1.1201327-4.979476-1.5585074-.925155-.4386083-1.626697-1.0451395-2.104393-1.8198273-.477696-.7749213-.716544-1.6306512-.716544-2.5676567 0-.8529273.196422-1.6425623.589502-2.3693722.393079-.7268098.928202-1.3303049 1.605602-1.8107188.507933-.3725134 1.2001-.6878069 2.076969-.946114.87687-.2580735 1.817026-.3872271 2.820938-.3872271 1.511609 0 2.838985.2160344 3.981658.6485704 1.142908.4325359 1.986493 1.0180476 2.530757 1.7567686.544264.7387209.919061 1.7266405 1.124625 2.9639923l-3.192687.4323024c-.14509-.9848834-.56536-1.7537324-1.260808-2.3063135-.695448-.5523474-1.67803-.828638-2.947745-.828638-1.499655 0-2.5699.2461625-3.210969.738721-.640835.4923249-.961486 1.0689617-.961486 1.7296767 0 .4203913.133136.7987435.399173 1.1350566.266038.3484576.68326.6366592 1.251667.8648383.326511.1202786 1.287997.3965691 2.884458.8288715 2.309723.6126036 3.921185 1.1142706 4.834386 1.5045339.912966.3904968 1.62951.958025 2.149631 1.7027483.519887.7447465.780065 1.6696775.780065 2.7747928 0 1.081083-.317604 2.0991073-.952345 3.0540495-.634974.9549656-1.550988 1.6937099-2.748275 2.2162329-1.197287.5225231-2.551852.7837963-4.063462.7837963-2.503567 0-4.411304-.5165208-5.723444-1.5495624s-2.149631-2.5645738-2.512474-4.5946201z" fill="#fff"/><path d="m48.999883 25.7010925c-2.8701904 0-5.1968213-2.3284383-5.1968213-5.2008582 0-2.8721857 2.3266309-5.2008582 5.1968213-5.2008582 2.8701903 0 5.1968212 2.3286725 5.1968212 5.2008582 0 2.8724199-2.3266309 5.2008582-5.1968212 5.2008582m7.0519928-1.5469039c.0390932-.0749674.0753773-.1515746.1121296-.2281818.0065546-.0135879.0135773-.0269414.0198978-.0405293.002575-.0053882.00515-.0110108.007725-.0163991.0517341-.1103425.1008932-.2220907.1477114-.3347759.0002341-.0007028.0007023-.0014057.0009364-.0023427.002575-.0058569.00515-.0117137.007725-.0173362.0002341-.0009371.0007023-.0021085.0011704-.0030456.0437751-.1063599.084741-.2141254.1238342-.322828.0007023-.0016399.0014046-.0032799.0021068-.005154 0 0 .0002341-.0002343.0002341-.0004686v-.0004685c.0002341-.0002343.0004682-.0007028.0004682-.0014057.2434547-.6765801.3944434-1.3927523.444773-2.131649l1.5794123-.1885897-.3516048-2.9483243-1.5782418.1885897c-.0201318-.0646593-.0402637-.1290844-.0620341-.1928066 0 0-.0002341-.0002343-.0002341-.0004686-.0028091-.0081995-.0060864-.0166333-.0088955-.0250672-.1331978-.3825676-.2942524-.750376-.480823-1.1020196 0 0 0-.0002343-.0002341-.0004686-.0016386-.0032798-.0035114-.0065596-.0053841-.0100737-.0021068-.0037484-.0042136-.0074968-.0060864-.0114794-.2839524-.5313309-.6245549-1.0256467-1.0147847-1.4733422l.9815438-1.2477374-2.3334196-1.8359967-.9817778 1.2477374c-.4234707-.2202165-.8684778-.401778-1.3296372-.5432788-.0002341 0-.0007023-.0002343-.0009363-.0002343-.0011705-.0004685-.002341-.0009371-.0037455-.0011713-.329132-.1009716-.6666913-.1808587-1.0108052-.2382556-.0030431-.0004685-.0058522-.000937-.0088954-.0014056-.2411138-.0400607-.4852708-.0693448-.7324709-.0871495-.0072568-.0004686-.0145136-.0011714-.0217705-.0016399l-.1882092-1.5764223-2.9481426.3518779.1879751 1.5764223c-.0037455.0011713-.0074909.0028112-.0112364.0042169-.1957001.061848-.3874207.1311928-.5756299.2073315-.0053841.0023427-.0105341.0044512-.0159182.0067939-.3902298.1590713-.763605.3478952-1.1180188.5629578-.0035114.0023427-.0070228.0044511-.0105341.0065596-.3848457.2345072-.7476868.4992355-1.0843098.7925452l-1.2477053-.9813692-1.8359761 2.3335923 1.2477053.9816034c-.4927616.9473996-.7931004 2.0023304-.86918 3.1078642l-1.5805828.1885897.3518388 2.9483243 1.5780078-.1883554c.0763137.2424724.1633956.4800252.2614797.7112525.0014046.0032798.0028091.0065596.0042136.0100737.1128319.2644941.2385388.5217258.3780571.7695865.0002341.0007028.0007023.0014056.0009364.0018742 0 .0002342.000234.0002342.000234.0002342.1444342.2567631.3024457.5041553.4730981.7414737.0002341.0002343.0004681.0007029.0007022.0009371.0088955.0119479.018025.0236616.0266864.0356095.0011705.0016399.0023409.0032798.0037455.0049197.0620341.0850411.1247705.1693793.1900819.2518434 0 .0002343.0002341.0002343.0004682.0004685.0119386.0149935.0243455.0295184.0365182.0445119.0046818.0056225.0095977.0112451.0142795.0171019.0608637.0754359.1221956.1504032.1856342.2232621.0007023.0009371.0014046.0016399.002341.002577l-.9815438 1.2475031 2.3334196 1.8359967.9815437-1.2475032c.0007023.0004686.0016387.0009371.002575.0014057.0009364.0004685.0018728.0009371.0028091.0014056.0826342.0428719.1664388.0829326.2504774.122759.0081932.0039826.0163864.0081995.0248137.0121822.018025.0086681.0362841.018039.0545432.0264728.0009364.0004686.0016386.0007028.002575.0011714.0955092.0440433.1924229.0852753.2895706.1255703l.004916.0021084c.012875.005154.0259841.0112451.0390932.0166334.0007022.0002343.0014045.0004685.0021068.0007028.0980841.0400607.1975728.0770758.2975297.1131538.0023409.0009371.0049159.0018742.0072568.0028113.0107682.0037484.0213023.0081995.0318364.0119479.0016386.0004686.0030432.0009371.0044477.0014056.0999569.0353752.2008502.0681735.3024457.0993317.0037454.0011714.007725.0028113.0114704.0037484.0070228.0023427.0140455.0044512.0210682.0067939.0021068.0007028.0046818.0014057.0067887.0021085.048925.0147592.09785.0297526.1470091.043809.0009364.0002343.0018728.0004686.002575.0007028.0014046.0002343.002341.0004686.0037455.0009371.0149818.0042169.0299637.007731.0449455.0117137.102766.028347.2060001.0555226.3101706.0796528.0011705.0002342.002575.0007028.0035114.000937.0084273.0018742.0170886.0035141.0252818.005154.0021068.0004686.0042137.0007029.0063205.0014057.1460728.0330325.2937843.0613795.4424321.0862124.0065545.0011714.0131091.0021085.0194295.0032798.1495842.0245987.3003388.0447462.4520298.060911.0011705.0002343.002575.0004685.0039796.0004685.0280909.0030456.0564159.0065597.0845069.0093709.0016386 0 .0032772.0002343.0049159.0002343.0571182.0053883.1144705.0100737.1718228.0142907.0098318.0007028.0194296.0018741.0292614.002577l.1882092 1.5759537 2.9483767-.3518779-.1879751-1.576188c.0046819-.0016399.0091296-.0037484.0140455-.005154.1921887-.0611452.3811002-.1290844.5662662-.2038174.0079591-.0032798.0156841-.0067939.0236432-.0100737.3841435-.1567286.7519005-.3420385 1.1013984-.5533526.0067887-.0042169.0135773-.0081996.0203659-.0121822.1814206-.1105768.3581594-.2272447.5292799-.3511751.0016386-.0011713.0035114-.0023427.00515-.0037483.0060864-.0044512.0119387-.0089024.018025-.0133536.0014046-.0011714.0030432-.002577.0046818-.0037484.1828252-.1337698.3605003-.273865.5306845-.4221597.0007022-.0007028.0011704-.0011714.0018727-.0016399l1.2474712.9813691 1.8359761-2.3335922-1.2472371-.9813692c.0004682-.0011713.0011704-.002577.0016386-.0037483" fill="#4b728d"/><path d="m26.9994975 31.2468935c-4.5511383 0-8.240468-3.6921314-8.240468-8.2467738 0-4.5544029 3.6893297-8.2467738 8.240468-8.2467738 4.5511862 0 8.2405159 3.6923709 8.2405159 8.2467738 0 4.5546424-3.6893297 8.2467738-8.2405159 8.2467738zm11.7343606-7.1515141c.0098102-.0986548.0196203-.197549.0263199-.2962038 0-.0014367.0002393-.0028734.0002393-.0043102.0033498-.0481301.005264-.0964997.007896-.1446298.0002392-.0023945.0002392-.0047891.0002392-.0071836.0071782-.1266708.0141171-.2531022.0169883-.3792941 0-.0009578.0002393-.0019156.0002393-.0031129v-.0217903c.0004785-.0155644 0-.0308895.0002393-.0462145.0050247-.3033874-.0011964-.6055775-.019381-.9056126-.0002393-.0043101-.0002393-.0083809-.0004786-.012691-.0007178-.0141278-.0009571-.0280161-.0019142-.0421438 0-.0007184 0-.0014367-.0002392-.0021551-.0055033-.0859637-.0141171-.1714486-.0215345-.2569334 0-.0009579-.0002393-.0021551-.0002393-.0033524-.0004785-.0043102-.000957-.0086203-.0011963-.0129305-.007896-.0888372-.0155527-.1779138-.0253628-.266751-.0004786-.0040707-.0007178-.007902-.0011964-.0117332 0-.0007184 0-.0011973-.0002392-.0016762-.0081353-.0730333-.0181847-.1455877-.0277556-.2183815l-.0007178-.0052679c-.0019141-.0150856-.0045461-.0301712-.0066996-.0452567-.0004785-.0050286-.0014356-.0102965-.0021534-.015325-.0215345-.1549264-.0447438-.3093738-.0722601-.4626239-.0002392-.0007184-.0002392-.0014368-.0004785-.0021551-.0033498-.0198747-.007896-.0399887-.011485-.0601028-.0007179-.0028735-.0014357-.0059864-.0019142-.0090992-.0282341-.1525318-.058143-.3043453-.0923589-.4552009-.0002392-.0011973-.0004785-.0023945-.0007178-.0038312-.0062211-.0265794-.0133992-.0529192-.0196203-.0794986-.0019141-.0079019-.0038283-.0155644-.0057425-.0234664-.0337373-.1422353-.0681924-.2839917-.1071937-.4245508 0-.0004789 0-.0007184-.0002393-.0011973-.0086137-.0316078-.0189024-.0629762-.0279947-.094584-.0009571-.0033524-.0019142-.0067047-.0028713-.0098176-.0404369-.1412775-.0815916-.2820761-.1272925-.4214379 0-.0002395-.0002393-.0007184-.0002393-.0009579-.0007178-.0019156-.0011964-.0038312-.0019142-.0055074-.0004785-.0014367-.0009571-.0028734-.0014356-.0040707l2.0630002-1.1383613-2.1287999-3.858312-2.0630002 1.1386007c-.7757187-.9374599-1.7021786-1.7585455-2.7540168-2.4261414-.0033498-.0019157-.0066996-.0040707-.0100494-.0062258-.306507-.1941967-.6233027-.3754629-.9508656-.5421224-.0098101-.005268-.0196203-.010536-.0294304-.0155645l.6539294-2.2635526-4.2336727-1.2226489-.6539294 2.2635526c-.0110065-.0009578-.0224915-.0014367-.0337373-.0023945-.1196358-.0110149-.2387931-.0193957-.3581897-.0268188-.0483328-.0028734-.0966657-.0055074-.1449986-.0076625-.1251391-.0062258-.2502781-.0107754-.3749387-.0129305-.0267984-.0002394-.0538361 0-.0806345-.0002394-.6036824-.0057469-1.201383.0354391-1.7895128.1209239-.0162704.0023946-.0323016.0045496-.0485721.0069442-.1447594.0215508-.2888009.0457356-.4323639.0727938-.014117.002634-.0279948.0055074-.0421118.0081414-.3392872.0648919-.6747461.1441509-1.0053716.2380167l-.0002393.0002394c-.0002393 0-.0007178 0-.0009571.0002395-.1507411.0428621-.301243.0874004-.45007.1362489l-1.1382153-2.06265124-3.8582554 2.12897984 1.137976 2.0626513c-1.2219604 1.0112115-2.2486751 2.2760042-2.9913743 3.7440927l-2.261835-.6532287-1.2229174 4.2335354 2.265424.654426c-.0354122.374984-.0538361.7487707-.0531183 1.1206418v.0170012c.0014357.5148247.0368479 1.0250998.104801 1.5286702.0004786.0035918.0009571.0071836.0014357.0107754l.0004785.0019157c.0244057.1800689.0526398.35918.08542.5373333 0 .0002395.0002393.0004789.0002393.0004789v.0002395c.0959479.5227267.2251546 1.036833.3895342 1.5384878v.0002395c.0007178.0019156.0014356.0035918.0019142.0055074l-2.0625217 1.1381218 2.1290392 3.8580726 2.0622824-1.1381218c.0011964.0014367.0021535.0028734.0033498.0043101.0004786.0007184.0011964.0014368.0019142.0021551.0952301.1146982.1940493.2267623.2935863.3381082.0035891.0040707.0069389.0081414.010528.0119726.0181846.0203536.0358907.0416649.0543146.061779.0002393.0002395.0004786.0004789.0007179.0009578.1074329.1180505.218455.2332276.3309127.3472074.0145955.0146066.0287126.0301711.0433081.0447778l.0019142.0019156c.113654.1137403.2304186.2243678.3488581.3335585.0011963.0011973.0023927.0023946.003589.0035918.0112458.0102965.0222523.0213114.0337374.0316079.0007178.0007183.0016749.0014367.0023927.002155.1177216.1075146.2383145.2121557.3603431.3148812.0047854.0040707.0095708.0081414.0143563.0122121.0069389.0059864.0138777.0119727.0208166.017959.0019142.0014368.0038284.0031129.0057425.0045497.0605358.0505246.120593.1010493.1820858.1503767.0009571.0007183.0019141.0014367.0028712.0023945.0014357.0009578.002632.0019156.0038284.0028734.0720207.0572294.1449986.1125431.2179765.1678569.000957.0007183.0016749.0014367.0026319.002155.0715423.0543559.1426059.1096697.2155838.1625889.0004785.0004789.0011964.0009578.0019142.0014367.0093316.0067047.0189024.0131699.028234.0196352.0021535.0016761.0045462.0028734.0064604.0043101.1830428.1314599.3706318.2569335.5618098.3783363.0066996.0043102.0136385.0083809.0203381.0126911.1940493.1226001.3924055.2396928.5948293.3515175.0009571.0004789.001675.0009578.0023928.0014367.0330195.0181985.0655604.0371153.0985799.0548348l.0028712.0014368c.0784812.0423832.1574408.0835692.236879.1242763.011485.0059863.0229701.0122121.0346944.0181984l-.6536902 2.2630737 4.2333856 1.2226489.6539294-2.2633132c.0110065.0011973.0224916.0014367.0337373.002634.1193966.0107754.2383146.0191563.3574719.0263399.0485721.0031129.0973835.0057469.146195.0081414.1244212.0059863.2488425.0105359.3730245.0124516.0279948.0004789.0559895.0002394.0842236.0004789.5986577.0055074 1.1915729-.0349602 1.7751564-.1192478.0217737-.0031129.0437867-.0059863.0657997-.0093387.139974-.0210719.2792301-.0440594.4180076-.0701598.0198596-.0035918.0399584-.007902.0598179-.0117332.1457165-.0280161.2907151-.0577083.4349959-.0912318.0016749-.0004789.0033498-.0004789.0050247-.0009578.0076567-.0019156.0155527-.0038312.0234486-.0057469.0093316-.002155.0186632-.004789.0282341-.0071836.1703614-.0404676.3397657-.0842875.5077344-.1319388.0045462-.0014367.0090924-.0028734.0136385-.0040707.0081353-.002155.0162705-.0050285.0244057-.0071836.1363849-.0395098.2727697-.079259.4074797-.1233185.0011963-.0004789.0023927-.0007183.003589-.0011972l1.137976 2.0624118 3.8582555-2.1292193-1.137976-2.0624118c.0011964-.0007184.0021535-.0016762.0031105-.002634.1069545-.0885977.2110376-.1807873.3151208-.2732163.0083745-.007423.016749-.0143672.0248843-.0217902.0038283-.0033524.0076567-.0067047.011485-.0102965.1344707-.1204451.2660701-.2444819.3952768-.3713922.002632-.0028734.0055032-.005268.0081352-.007902.0062211-.0057468.0124422-.0117332.0184239-.0177195.0009571-.0009578.0019142-.0021551.0031106-.0031129.8809982-.8728075 1.6287221-1.8943156 2.2065632-3.0377054l2.2675775.654905 1.2231567-4.2335355z" fill="#4b728d"/><path d="m27.0003687 26.6321127c-2.0043809 0-3.628894-1.6260028-3.628894-3.6316814 0-2.0056785 1.6245131-3.6316813 3.628894-3.6316813 2.0041519 0 3.628917 1.6260028 3.628917 3.6316813 0 2.0056786-1.6247651 3.6316814-3.628917 3.6316814m5.6896561-6.7720311c-1.7338159-3.1424132-5.6869069-4.2841918-8.8296543-2.5499722-3.1425413 1.7342195-4.2843672 5.6873414-2.5505513 8.8299838 1.7340449 3.1424132 5.6871131 4.2839625 8.8298834 2.549743 3.1425413-1.7339903 4.2843672-5.6873414 2.5503222-8.8297546" fill="#4b728d"/><path d="m29.6262333 21.5508029c-.8002874-1.4502448-2.6246856-1.9773466-4.0752512-1.176924-1.4503274.8004227-1.9775028 2.6250243-1.1772154 4.0752692.8002874 1.4504831 2.6249237 1.9773466 4.0752512 1.1769239 1.4503274-.8001844 1.9775028-2.6250242 1.1772154-4.0752691" fill="#4b728d"/><path d="m18.0002397 56.2043109c-4.5270925 0-8.19708618-3.6730977-8.19708618-8.2034834 0-4.5308654 3.66999368-8.2034594 8.19708618-8.2034594s8.1970861 3.672594 8.1970861 8.2034594c0 4.5303857-3.6699936 8.2034834-8.1970861 8.2034834zm11.6372258-10.1867114c-.0165379-.0995452-.0325966-.1988506-.0520107-.2974363-.0002397-.0004797-.0002397-.0007196-.0002397-.0011993-.0091079-.0462945-.0196538-.092589-.0292411-.1388836-.0009587-.0052771-.0021571-.0105542-.0033555-.0158312-.0258855-.1232922-.0517711-.2463444-.0814915-.3681973-.0011984-.0052771-.0026365-.0107941-.0040746-.0158313-.0026365-.0117535-.005992-.0230273-.0091078-.034541-.0743011-.2988754-.1596275-.5934333-.2562189-.8829539-.0016778-.0050372-.0031158-.0100744-.0047936-.0151116-.0040746-.0131928-.0081492-.0266254-.0124634-.040058-.0002397-.0009595-.0007191-.0016791-.0009587-.0021588-.027803-.0820348-.0582425-.1626305-.0879629-.2437058-.0004794-.0016791-.0011984-.003598-.0016778-.0052771-.0014381-.0038379-.0031158-.0079157-.0045539-.0117535-.0304395-.083714-.0606393-.167188-.0929962-.2501823-.0014381-.003598-.0026365-.007196-.0040746-.0105542l-.0002397-.0007196c-.0275633-.0702813-.0568043-.1396031-.0858057-.2091648-.0002397-.0004798-.0004794-.0009595-.0004794-.0014392-.0055126-.0129529-.011265-.0256659-.016538-.0383789h-.0002396c-.2758727-.657454-.6073514-1.2854283-.9927583-1.8764629 0 0-.0002396-.0002399-.0002396-.0004797-.0021572-.0028784-.0040746-.0057569-.0062317-.0088751l1.7010152-1.6363791-3.0602455-3.1811286-1.7007756 1.6363791c-1.2875657-.9146164-2.7678348-1.5764121-4.3698618-1.9155853-.0095872-.001919-.0189348-.0045575-.0282824-.0064765l.0457791-2.3598207-4.4134838-.085393-.045779 2.3598208c-.0107857.001679-.0213316.0040777-.0321173.0059966-.1198404.0206287-.2387221.0438959-.3573641.0678827-.0457791.0093548-.0913185.0189495-.1370975.0287841-.1243944.0271051-.2480697.0554095-.3707863.0861126-.0234888.0057568-.0467378.0122333-.0702265.0184698-.5881769.1515966-1.1586174.3470889-1.7082057.5833589-.0139015.0059967-.0275633.0117535-.0412251.0179901-.1354197.0587676-.2694013.1196941-.4021845.1832591-.0119841.0059967-.0239681.0119934-.0359521.0177502-.4546747.2201988-.8942494.4665431-1.3141703.740952l-1.63606172-1.7004238-3.18128435 3.0599953 1.6360617 1.7009035c-.9201349 1.2952869-1.58596839 2.7850826-1.92367876 4.3981945l-2.3582202-.0455749-.08556607 4.4133302 2.36181541.0458147c.06303607.3722751.14237045.7397527.2394412 1.0995546.00119841.0050373.00239681.0100745.0038349.014632.1804797.6661132.41728441 1.309439.70633956 1.9239807.00023968 0 .00023968.0002399.00023968.0002399.00719042.0153515.01486021.0302233.02229032.0455749.0011984.0031183.00287617.0059967.00455394.009115.06830905.1436809.13853555.2859225.21259694.4262453l.00071904.0014392c.01030628.0196692.02181096.0393383.03235692.0590075.00167777.0033581.00359521.0064764.00527298.0095947.16058619.2991153.33195802.5917542.51675198.8750382.00023968.0002399.00023968.0004798.00047936.0007196.00071905.0011994.00167777.0023987.00239681.0033582.00023968.0002399.00047936.0004797.00047936.0007196l-1.70053585 1.6361392 3.0602455 3.1808887 1.70029615-1.6358993c.0011984.0009594.0023968.0019189.0035952.0026385.0009588.0007196.0019175.0014392.0028762.0021588.1100135.0779571.2229032.1523162.3360326.2269151.0146205.0095947.0292411.0201489.0441013.0297436.0244474.0158313.0484155.0331018.072863.0486932.0019174.0011993.0035952.0023987.0055126.003598.1200802.0769976.2430364.1503972.3659927.2230772.0129428.0076758.0254062.0158313.038349.0232672.0184554.0107941.0366712.0223077.0551266.0331018.0014381.0007196.0026365.001679.0040746.0021588.1332625.0772375.2686822.1501573.4050607.2221177.0071904.0038379.0143808.0079156.0213316.0117535.0141411.0071961.0280426.0153516.0419441.0225476.0021571.0011993.0045539.0023987.0069508.0033582.1406926.0729198.2835424.1422416.4275906.2098844.0067111.0028784.0136619.0064764.0203729.0098346.0069508.0031183.0139015.0064764.0208523.0098346.0021571.0007196.0043142.001679.0064713.0028784.0707059.032622.1411721.0659637.2128367.0973864.0016777.0004797.0031158.0011993.0047936.0019189.0011984.0004797.0026365.0011993.0040746.0016791.0805327.0352606.1617846.0681225.2430364.1014641.0076698.0033582.0153395.0059967.0230093.0093549.0800534.032622.1593878.0662035.2401603.0971465.0014381.0004797.0028761.0011993.0043142.0016791.0107857.0043176.0220507.0079156.033076.0119934.0033555.0011993.0069507.0023986.0103063.003598.208762.0789165.4208796.1508769.6349146.2182798.0098269.0026385.0194142.0057568.0292411.0088751.2161922.0669232.4347811.1280895.6560066.1830192.0014381.0004798.0028761.0007197.0043142.0009595.0395474.0098346.078855.0206287.1186421.0299835.0026365.0007196.0055126.0011994.0083888.001919.0824502.0194293.1651401.0378991.2480697.0556493.0146205.0031183.0294808.0069562.0441013.0100745l-.0457791 2.3591011 4.4132441.085393.0457791-2.359341c.0124634-.0021588.0249268-.0047974.0373902-.0069562.1145675-.019909.2284159-.0419769.3417849-.0650042.0517711-.0105542.1035422-.0213482.1553132-.032622.1186421-.0259058.2365651-.052771.353769-.0820349.0316379-.0076757.0627964-.0165509.0944343-.0249462.4283097-.110819.8475116-.2446653 1.2559278-.4012991.0057524-.0019189.0117444-.0040777.0174967-.0062366.1332626-.0513317.2648474-.1055418.3957131-.1614311.0222904-.0095947.0445807-.0191894.066871-.0287841.129188-.0558893.2569379-.1139373.3834894-.1746239.0177364-.0083954.0349934-.0172705.0524901-.0256659.1349404-.065244.268922-.1321672.4009862-.2024485l.0038348-.0019189c.0079095-.0043177.015819-.0086353.0237285-.0129529.0088681-.0047974.0174967-.0100745.0263649-.0148718.1392545-.0748388.2773107-.1515966.4132098-.2319523.0011984-.0007196.0023968-.0014392.0035952-.0021588.0031159-.0016791.005992-.0038379.0091079-.005517.0110253-.0064764.0218109-.0136725.0330759-.0206286.0023969-.0011994.0050333-.0028784.0074302-.0043176.1311054-.0786767.2614918-.158073.3894814-.2417869.0011984-.0009595.0026365-.0016791.0040746-.0026386l1.635822 1.7004238 3.1812843-3.060475-1.635822-1.7001839c.0011984-.0016791.0021571-.0031183.0031159-.0047974.0937152-.1319273.1833558-.2664932.2717981-.4027382.0026365-.003598.005273-.0076758.0079094-.0117535.0031159-.0045575.0064714-.009115.0095873-.0139124.000719-.0009595.0011984-.0021588.0019174-.0031183.09012-.1396031.1764052-.2818448.2607728-.4252858.0009588-.0016791.0021572-.003598.0031159-.0052771.0045539-.0074359.0091079-.0148718.0136618-.0223077.0004794-.0009595.0011984-.0021588.0016778-.0031183.0843676-.1446404.1649004-.2914396.2432761-.4399178.0026364-.0057568.005992-.0107941.0088681-.0165509.0002397-.0004797.0007191-.0009595.0009588-.0016791.0004793-.0004797.000719-.0011993.0009587-.0019189l.0016778-.0033582c.0635154-.1211333.124634-.2437058.1840749-.3674776.0057523-.0124732.0115047-.0247064.0174967-.0369397.3952338-.8299431.6943555-1.7143361.887778-2.6383074l2.3634931.0455749.0858058-4.4133302z" fill="#4b728d"/><path d="m9.49988295 14.8409534c-2.94767449 0-5.33727591-2.3914577-5.33727591-5.34142195 0-2.94996424 2.38960142-5.34142191 5.33727591-5.34142191 2.94767445 0 5.33727595 2.39145767 5.33727595 5.34142191 0 2.94996425-2.3896015 5.34142195-5.33727595 5.34142195m7.05129055-1.6853592c.0479887-.0923035.0931683-.186247.1374115-.2804247l.0016386-.0035141c.0044477-.0091366.0093637-.0182732.0135773-.0276442.0004682-.000937.0009364-.0021084.0014045-.0030455.0465842-.1000345.0903592-.2014747.1327297-.3038519.0011704-.0028113.002575-.0053883.0037454-.0081996.0021068-.0049197.0042137-.0098395.0063205-.0147592.0002341-.0009371.0004682-.0014056.0009363-.0023427.3171934-.7721635.5128935-1.6017238.5716504-2.4622081l1.5794123-.1883554-.3518388-2.94832433-1.5782419.1883554c-.0201318-.06419077-.0400296-.12838154-.0618-.1918695-.0002341-.00046854-.0002341-.00117136-.0004682-.00163991-.0107682-.03092402-.0222387-.06161377-.0332409-.09230352-.0004682-.00117136-.0007023-.00210845-.0011705-.00304554-.0287932-.08058988-.0578205-.16117975-.0891887-.24036399-.0002341-.00070282-.0004682-.00140564-.0007023-.00210846-.0028091-.00655964-.0056182-.01358782-.0086613-.02038174-.0793569-.19889768-.1664388-.39357846-.2607775-.58380804-.0004681-.00093709-.0009363-.00187419-.0014045-.00281128-.0042136-.00866809-.0081932-.01757046-.0124068-.02623856-.0002341-.00023427-.0004682-.00070282-.0007023-.00117137-.0255159-.05060294-.0526705-.10050307-.0791228-.15063746l-.002575-.00445119c-.0018727-.00374837-.0039795-.00749673-.0058523-.0112451-.0276227-.05177431-.0547773-.10378289-.0835705-.15485438-.0016386-.00281127-.0030431-.00562255-.0044477-.00843382-.0004682-.00046855-.0007023-.00093709-.0009364-.00140564-.0238772-.04263767-.048925-.08433824-.0735045-.12627309-.0009364-.00140564-.0016387-.00281127-.002341-.00398264-.0056181-.00960519-.0117045-.01921037-.0173227-.02881556-.0037455-.00632537-.007725-.01241647-.0114705-.01874183-.1772069-.29635521-.3717365-.58052823-.5845253-.84923923l-.0007023-.00070282c-.0140454-.01803902-.0292614-.03537521-.0435409-.05317995-.0044477-.00538828-.0088955-.01054228-.0133432-.01593056-.0606296-.07496732-.1214933-.1494661-.1846978-.2220907l.9817778-1.24773741-2.3336537-1.83576238-.9817778 1.24750315c-.9417483-.48963034-1.9888376-.79324801-3.0869587-.87126088-.0070227-.00046855-.0142795-.00140564-.0213023-.00187419l-.18797507-1.57642228-2.94837677.35211216.18797511 1.57642228c-.00351136.00117136-.00678864.002577-.01053409.00374836-.19523194.06208232-.38695251.13095855-.57469353.20709724-.00585227.00234273-.01170455.00491973-.01755683.00726246-.38859114.15860275-.76056182.34648961-1.11380521.5608493-.00444773.002577-.00889546.005154-.01334319.00796528-.38531387.23474144-.74862317.49970408-1.08548019.79348228l-1.24770529-.98160341-1.8359761 2.33359226 1.2474712.98160342c-.49299575.94786811-.79614366 2.0023304-.87128689 3.10809844l-1.57824185.18835541.35160476 2.94855862 1.57847594-.1885897c.0236432.0759044.04752048.1515746.07350459.2263076.00585228.0161648.01170455.0323297.01755683.0484945.00023409.0007028.00046818.0016399.00070227.0023427.05220231.1464206.10861825.2904984.16877965.4324678.00163863.0039826.00327727.0079653.00491591.0117136.06343867.1489976.13038871.296121.20225467.4397303.00023409.0004685.00046818.0007028.00070227.0011713.1334319.2666026.28207971.5233657.44313435.7707578.00070228.0009371.00117046.0018742.00163864.0028113.00608637.0093709.01264092.0185076.01896138.0276442.00046818.0011714.00140454.0023427.00210682.0032798.05922503.0897265.11938643.1787502.18188874.2656655.00046818.0009371.00117046.0016399.00163864.0023427.00889546.0124165.01849319.0245987.02762274.0370151.0028091.0039827.00585228.007731.00889546.0117137.13296372.18203.27248198.3586718.41995934.5280511.0002341.0004685.00046819.0007028.00070228.0009371l.00304318.0035141-.98154377 1.2475031 2.33365367 1.8357624.98130968-1.2475032c.00117045.0007028.00210682.0011714.00327727.0018742.00070228.0004686.00163864.0007028.00234091.0011714.08848642.0459175.17837738.0890237.26850244.1316613.00491591.0021085.00959773.0046855.01427955.006794.0156841.0074967.03113411.015462.04681821.0227244.00046818.0002343.00093637.0004686.00140455.0004686.09527505.0440433.19172057.0852753.28886835.1255702.002575.0009371.00515001.0021085.00772501.0032799.012875.0053882.02551592.0112451.03839093.0163991l.002575.0009371c.09504097.038655.19125239.0744987.28793199.1096397.00632046.0023427.01240683.0046854.01872728.0070282.00959774.0032798.01942956.0072624.02902729.0105422.00140455.0007029.0028091.0011714.00444773.0016399.09878643.0349067.19874331.0672364.29940246.0983947.00585227.0018741.01170455.0039826.01755683.0058568.00561818.0016399.01123637.0035141.01708864.0053883l.00678864.0018741c.0496273.0152278.09925461.0304555.14935009.0445119.00070227.0002343.00140455.0004685.00234091.0007028.00046818.0002343.00093637.0004686.00163864.0004686.01872728.0053882.03745457.0098394.05594776.0147591.09995688.0271757.20014785.0536485.30150927.0770758.00117046.0004686.00234091.0007028.00327728.0009371.00795909.0018742.01591819.0032798.02364319.0049197.00187273.0004686.00351137.0007029.00515001.0011714.14747736.0332668.29635926.0618481.44617753.0869153.00561819.000937.01123638.0016399.01685456.002577.15122282.0250672.30361609.0456832.45741391.061848.00163864.0002343.00351137.0004685.00538409.0007028.02551593.002577.05126594.0058568.07701596.0084338.00140455 0 .00280909.0002343.00421364.0002343.05899094.0056226.11821598.010308.17744101.0147592.00866137.0007028.01732274.0014056.02598411.0021085l.18797511 1.5759537 2.94837681-.3518779-.1879752-1.576188c.0046819-.0014056.0091296-.0035141.0138114-.0049197.192891-.0613795.3820366-.1295529.5674367-.2045203.0081932-.0032798.0159182-.0065596.0241114-.0100737.3848457-.1569628.7530709-.3427412 1.103037-.5545239.0070228-.0042169.0138114-.0081996.0206-.0124165.1809524-.1103425.357223-.2270104.5278753-.3507065.0014046-.0007028.002575-.0016399.0039796-.002577.0039795-.0030456.0081932-.0060911.0124068-.0091366.0016387-.0014057.0032773-.0028113.0049159-.0039827.1846979-.1349412.3637775-.276442.5353663-.4259081.0007022-.0004686.0014045-.0009371.0018727-.0016399l1.2477053.9813691 1.8359761-2.3335922-1.2474712-.9813692c.0004682-.0007028.0007023-.0016399.0011704-.0023427" fill="#4b728d"/></g></svg>