<svg height="68" viewBox="0 0 254 68" width="254" xmlns="http://www.w3.org/2000/svg"><g fill="#373760" fill-rule="evenodd"><path d="m30.3675 35.2269v-4.644c0-2.144 1.744-3.889 3.888-3.889 2.145 0 3.889 1.745 3.889 3.889v4.644zm3.888-14.192c-4.989 0-9.091 3.85-9.506 8.734-.019.135-.041.269-.041.409v13.016c0 1.562 1.267 2.829 2.83 2.829 1.562 0 2.829-1.267 2.829-2.829v-2.308h7.777v2.308c0 1.562 1.266 2.829 2.829 2.829s2.83-1.267 2.83-2.829v-13.016c0-.14-.022-.274-.042-.409-.415-4.884-4.516-8.734-9.506-8.734z"/><path d="m34.2558 61.3994c-15.368 0-27.87-12.502-27.87-27.87s12.502-27.87 27.87-27.87 27.87 12.502 27.87 27.87-12.502 27.87-27.87 27.87m0-61.399c-18.488 0-33.529 15.041-33.529 33.529s15.041 33.529 33.529 33.529 33.529-15.041 33.529-33.529-15.041-33.529-33.529-33.529"/><path d="m99.7839 35.2269v-4.644c0-2.144 1.744-3.889 3.888-3.889 2.145 0 3.889 1.745 3.889 3.889v4.644zm3.888-14.192c-4.989 0-9.091 3.85-9.506 8.734-.019.135-.041.269-.041.409v13.016c0 1.562 1.267 2.829 2.83 2.829 1.562 0 2.829-1.267 2.829-2.829v-2.308h7.777v2.308c0 1.562 1.266 2.829 2.829 2.829s2.83-1.267 2.83-2.829v-13.016c0-.14-.022-.274-.042-.409-.415-4.884-4.516-8.734-9.506-8.734z"/><path d="m161.7917 21.0354c-2.618 0-4.991 1.06-6.718 2.772-1.726-1.712-4.1-2.772-6.718-2.772-4.989 0-9.09 3.849-9.506 8.734-.019.134-.041.269-.041.409v13.015c0 1.563 1.267 2.83 2.83 2.83s2.829-1.267 2.829-2.83v-12.611c0-2.144 1.744-3.888 3.888-3.888 2.145 0 3.889 1.744 3.889 3.888v6.952c0 1.563 1.266 2.83 2.829 2.83s2.83-1.267 2.83-2.83v-6.952c0-2.144 1.744-3.888 3.888-3.888s3.888 1.744 3.888 3.888v12.611c0 1.563 1.267 2.83 2.83 2.83s2.829-1.267 2.829-2.83v-13.015c0-.14-.021-.275-.041-.409-.415-4.885-4.516-8.734-9.506-8.734"/><path d="m133.5003 37.5965c-1.352-.783-3.084-.32-3.866 1.032-.694 1.2-1.985 1.946-3.37 1.946-2.144 0-3.888-1.745-3.888-3.889v-6.053c0-.002.001-.004.001-.006 0-2.144 1.744-3.888 3.888-3.888 1.294 0 2.5.642 3.226 1.716.547.81 1.439 1.246 2.347 1.246.545 0 1.096-.157 1.582-.485 1.295-.875 1.635-2.634.76-3.929-1.78-2.634-4.739-4.207-7.915-4.207-4.956 0-9.039 3.797-9.501 8.634-.025.152-.047.305-.047.465v7.356c0 .335.069.653.176.951.845 4.406 4.723 7.748 9.371 7.748 3.397 0 6.566-1.828 8.268-4.771.783-1.353.321-3.083-1.032-3.866"/><path d="m229.6916 37.4694c-1.352-.784-3.084-.32-3.866 1.032-.694 1.2-1.985 1.946-3.37 1.946-2.144 0-3.888-1.745-3.888-3.889v-6.053c0-.002.001-.004.001-.006 0-2.144 1.744-3.888 3.888-3.888 1.294 0 2.499.642 3.226 1.716.547.81 1.439 1.246 2.347 1.246.545 0 1.096-.157 1.582-.485 1.295-.875 1.635-2.634.76-3.929-1.78-2.634-4.739-4.207-7.915-4.207-4.956 0-9.039 3.797-9.501 8.634-.025.152-.047.305-.047.465v7.356c0 .335.069.653.176.951.845 4.406 4.723 7.748 9.371 7.748 3.397 0 6.566-1.828 8.268-4.771.783-1.353.321-3.083-1.032-3.866"/><path d="m243.8461 40.4271c-.045 0-.087.011-.131.013-2.083-.07-3.757-1.782-3.757-3.881v-6.059c0-2.144 1.744-3.889 3.888-3.889 1.294 0 2.5.642 3.226 1.717.434.641.662 1.392.662 2.172v6.039c0 .779-.228 1.53-.662 2.172-.726 1.074-1.932 1.716-3.226 1.716m9.521-10.635c-.001-.015-.003-.03-.004-.045-.011-.093-.013-.19-.032-.28-.166-1.541-.696-3.014-1.57-4.307-1.779-2.635-4.738-4.208-7.915-4.208-4.96 0-9.045 3.803-9.501 8.645-.025.149-.046.298-.046.454v7.356c0 .336.068.653.176.951.844 4.406 4.722 7.748 9.371 7.748.098 0 .19-.019.285-.029 3.067-.091 5.904-1.643 7.63-4.198.718-1.062 1.202-2.245 1.446-3.487.115-.308.186-.637.186-.985v-7.356c0-.089-.018-.172-.026-.259"/><path d="m188.8553 29.8981h-7.677c.29-1.859 1.897-3.287 3.837-3.287 1.293 0 2.499.642 3.225 1.717.321.474.528 1.009.615 1.57m4.074-4.739c-1.78-2.634-4.739-4.207-7.914-4.207-5.047 0-9.18 3.938-9.515 8.901-.012.108-.033.214-.033.325v7.357c0 .407.09.793.246 1.143.967 4.246 4.766 7.428 9.302 7.428.004 0 .008-.001.012-.001 3.392-.005 6.554-1.831 8.255-4.77.783-1.352.321-3.083-1.031-3.866-1.354-.783-3.084-.321-3.867 1.031-.695 1.2-1.986 1.946-3.369 1.946-.002 0-.004.001-.006.001-2.142-.003-3.883-1.746-3.883-3.888v-1.002h10.606c1.563 0 2.83-1.267 2.83-2.83v-3.253c0-.415-.094-.805-.254-1.16-.263-1.12-.725-2.188-1.379-3.155"/></g></svg>