<svg height="18" viewBox="0 0 143 18" width="143" xmlns="http://www.w3.org/2000/svg"><path d="m0 .225v17.525h5.2v-17.525zm9.85000005 0v17.525h4.77499995v-9.75l7.425 9.75h4.425v-17.525h-4.75v9.8l-7.425-9.8zm33.87500005 5.8 1.925-4c-1.9-1.225-4.65-2.025-7.325-2.025-4.375 0-7.25 2.15-7.25 5.525 0 6.175 9.15 4.5 9.15 7.15 0 .8-.7 1.175-1.8 1.175-1.8 0-4.725-1.15-6.525-2.675l-1.95 3.95c2.2 1.725 5.45 2.775 8.425 2.775 3.925 0 7.225-1.775 7.225-5.5 0-6.325-9.15-4.8-9.15-7.375 0-.65.575-.95 1.45-.95 1.475 0 4.025.925 5.825 1.95zm5.475-5.8v17.525h14.575v-4h-9.375v-2.775h8.275v-4h-8.275v-2.75h9.125v-4zm34.9500001 17.525-3.55-5.725c1.9-1.075 2.95-2.975 2.95-5.575 0-3.975-2.7-6.225-7.4-6.225h-8.175v17.525h5.2v-4.725h2.75l2.325 4.725zm-10.975-13.525h2.975c1.55 0 2.45.85 2.45 2.375 0 1.575-.9 2.425-2.45 2.425h-2.975zm12.925-4 6.7 17.525h5.4l6.7749998-17.525h-5.3249998l-4 12.125-4-12.125zm21.9499998 0v17.525h14.575v-4h-9.375v-2.775h8.275v-4h-8.275v-2.75h9.125v-4zm34.95 17.525-3.55-5.725c1.9-1.075 2.95-2.975 2.95-5.575 0-3.975-2.7-6.225-7.4-6.225h-8.175v17.525h5.2v-4.725h2.75l2.325 4.725zm-10.975-13.525h2.975c1.55 0 2.45.85 2.45 2.375 0 1.575-.9 2.425-2.45 2.425h-2.975z" fill="#fff" fill-rule="evenodd"/></svg>