<svg height="95" viewBox="0 0 75 95" width="75" xmlns="http://www.w3.org/2000/svg"><g fill="#373760" fill-rule="evenodd"><g transform="translate(0 80)"><path d="m8.3186 9.4897-1.426-3.095h-.018l-1.407 3.095zm-7.71 4.014 5.872-12.625c.056-.112.187-.206.319-.206h.187c.131 0 .263.094.319.206l5.872 12.625c.112.244-.038.488-.319.488h-2.082c-.338 0-.488-.112-.657-.469l-.675-1.482h-5.103l-.675 1.501c-.094.225-.3.45-.676.45h-2.063c-.281 0-.432-.244-.319-.488z"/><path d="m27.9219.6728c1.876 0 3.264.582 4.54 1.745.169.15.169.375.019.525l-1.464 1.519c-.131.132-.337.132-.469 0-.694-.619-1.613-.956-2.532-.956-2.12 0-3.677 1.763-3.677 3.864 0 2.082 1.576 3.808 3.696 3.808.881 0 1.838-.319 2.513-.9.132-.113.375-.113.488.019l1.463 1.557c.132.131.113.375-.018.506-1.276 1.238-2.889 1.82-4.559 1.82-3.752 0-6.772-2.983-6.772-6.735s3.02-6.772 6.772-6.772"/><path d="m43.5295.973c.019-.169.188-.3.338-.3h.3c.094 0 .262.075.319.187l4.352 8.104h.038l4.352-8.104c.056-.112.225-.187.318-.187h.301c.15 0 .318.131.337.3l2.12 12.606c.038.244-.131.413-.356.413h-2.214c-.169 0-.338-.15-.356-.3l-.845-5.797h-.037l-3.152 6.078c-.056.113-.225.207-.319.207h-.337c-.113 0-.263-.094-.319-.207l-3.17-6.078h-.038l-.825 5.797c-.019.15-.169.3-.357.3h-2.213c-.226 0-.394-.169-.357-.413z"/><path d="m66.2093 1.2169c0-.188.15-.356.357-.356h7.766c.206 0 .356.168.356.356v2.045c0 .187-.15.356-.356.356h-5.197v2.326h4.278c.187 0 .356.169.356.357v2.045c0 .206-.169.356-.356.356h-4.278v2.532h5.197c.206 0 .356.169.356.357v2.045c0 .187-.15.356-.356.356h-7.766c-.207 0-.357-.169-.357-.356z"/></g><g transform="translate(16)"><path d="m18.8582 12.0636c1.574 0 2.851-1.276 2.851-2.851s-1.277-2.851-2.851-2.851c-1.575 0-2.851 1.276-2.851 2.851s1.276 2.851 2.851 2.851"/><path d="m26.4376 6.5833c1.818 0 3.292-1.474 3.292-3.292s-1.474-3.291-3.292-3.291-3.292 1.473-3.292 3.291 1.474 3.292 3.292 3.292"/><path d="m30.7134 58.7576h-18.192c-2.035 0-3.233-2.284-2.076-3.958l9.305-13.467c1.016-1.471 3.198-1.448 4.182.044l8.887 13.467c1.108 1.678-.096 3.914-2.106 3.914m11.07-3.462-12.931-21.358v-11.928h.314c1.871 0 3.388-1.518 3.388-3.389s-1.517-3.388-3.388-3.388h-15.073c-1.871 0-3.388 1.517-3.388 3.388s1.517 3.389 3.388 3.389h.314v11.928l-12.931 21.358c-2.266 4.55 1.044 9.895 6.127 9.895h28.052c5.084 0 8.393-5.345 6.128-9.895"/></g></g></svg>