<svg height="73" viewBox="0 0 294 73" width="294" xmlns="http://www.w3.org/2000/svg"><g fill="#fff" fill-rule="evenodd"><path d="m93.6726607 15.5068514v17.534181h21.9315393v-17.534181h6.065045v41.1047425h-6.065045v-17.534181h-21.9315393v17.534181h-6.0657145v-41.1047425z"/><path d="m132.949451 26.5160194v30.0955745h-6.409954v-30.0955745zm-.747415-13.7686428c.689819.6707313 1.034728 1.494763 1.034728 2.4720281 0 .958178-.344909 1.7726326-1.034728 2.4432969-.670396.6898854-1.49483 1.0347946-2.471961 1.0347946-.958379 0-1.772766-.3449092-2.443163-1.0347946-.689818-.6706643-1.034728-1.4851189-1.034728-2.4432969 0-.9772651.34491-1.8012968 1.034728-2.4720281.670397-.6898185 1.484784-1.0347947 2.443163-1.0347947.977131 0 1.801565.3449762 2.471961 1.0347947z"/><path d="m155.181028 25.7399401v6.5537443c-.574625-.0958379-1.149921-.1437233-1.724546-.1437233-2.184648 0-4.120159.6994625-5.80653 2.0983876-1.66695 1.3797039-2.711054 3.1235382-3.132982 5.2315029-.172119.8239648-.258514 1.600111-.258514 2.3283048v14.8034375h-6.438752v-14.860967c0-.9964863.04755-1.820451.143321-2.4720281.479524-3.8708863 2.184648-7.1094835 5.116712-9.7156579 2.970238-2.6253286 6.429376-3.9379929 10.376745-3.9379929.574625 0 1.149921.0383084 1.724546.1149921z"/><path d="m165.598627 26.5160194v30.0955745h-6.409954v-30.0955745zm-.747415-13.7686428c.690488.6707313 1.035397 1.494763 1.035397 2.4720281 0 .958178-.344909 1.7726326-1.035397 2.4432969-.670397.6898854-1.494161 1.0347946-2.471962 1.0347946-.957709 0-1.772096-.3449092-2.443163-1.0347946-.689818-.6706643-1.034727-1.4851189-1.034727-2.4432969 0-.9772651.344909-1.8012968 1.034727-2.4720281.671067-.6898185 1.485454-1.0347947 2.443163-1.0347947.977801 0 1.801565.3449762 2.471962 1.0347947z"/><path d="m196.181025 29.4192175c2.893889 2.4911824 4.637188 5.6147876 5.231235 9.3707487.134615.8240317.201588 2.2133127.201588 4.167977v13.6536507h-6.409954v-13.5961882c0-1.5330713-.086395-2.7115893-.259184-3.5355541-.421258-2.1079647-1.466032-3.851799-3.132981-5.2315029-1.686372-1.3989251-3.621882-2.0983876-5.806531-2.0983876-2.2034 0-4.148287.6994625-5.834659 2.0983876-1.667619 1.3797039-2.711723 3.1235382-3.133651 5.2315029-.153367.8239648-.229716 1.600111-.229716 2.3283048v14.8034375h-6.438752v-14.860967c0-.9964863.038174-1.820451.115193-2.4720281.498277-3.8708863 2.212777-7.1094835 5.14484-9.7156579 2.951486-2.6253286 6.409954-3.9379929 10.376745-3.9379929 3.852268 0 7.243764 1.2647789 10.175827 3.7942695z"/><path d="m231.079813 29.3904863c2.893219 2.4911823 4.637187 5.6052104 5.231235 9.3419504h-6.64034c-.555204-1.916289-1.638152-3.4876687-3.247505-4.7140721-1.629445-1.2456247-3.468514-1.8684035-5.519217-1.8684035-2.529558 0-4.685408.8910713-6.467551 2.673281-1.782143 1.7821427-2.673549 3.9284157-2.673549 6.4387522 0 2.5294907.891406 4.6853409 2.673549 6.4675505 1.782143 1.7821427 3.937993 2.673214 6.467551 2.673214 3.353321-.0191542 5.931099-1.3797709 7.731994-4.0817162.977801-1.4563876 1.466032-3.2769056 1.466032-5.461487h6.409954v16.4131255c0 4.3117003-1.522959 7.9909777-4.570215 11.0378992-3.046587 3.0469216-6.726065 4.5704158-11.037765 4.5704158-4.311701 0-8.000555-1.5234942-11.066564-4.5704158-3.047256-3.0469215-4.570215-6.7261989-4.570215-11.0378992v-.2586484h6.467551v.2586484c0 2.5295576.890736 4.6854078 2.672879 6.4675505 1.801565 1.8012968 3.966791 2.7020122 6.496349 2.7020122 2.433786 0 4.541416-.8431858 6.323559-2.5295576 1.76339-1.6863048 2.702347-3.746384 2.81687-6.1800368l.057597-.7186167v-3.1044511c-2.739852 1.9929727-5.806531 2.989459-9.198026 2.989459-4.311701 0-8.000555-1.5330713-11.066564-4.599147-3.047256-3.0469215-4.570215-6.726199-4.570215-11.0378993s1.522959-7.9909777 4.570215-11.0378992c3.066009-3.0660757 6.754863-4.5991471 11.066564-4.5991471 3.851598 0 7.243763 1.2552018 10.175827 3.7655383z"/><path d="m255.00111 12.6746443c2.241575-.5848723 3.569643-.865086 3.984204-.8407749.413891.0243781 1.011287.426482 1.790849 1.2063117.877342.877275 1.267123 1.9981965 1.170013 3.3628985-.097781.9259641-.328836 1.5474035-.694507 1.8641842-.365671.3167808-.767507.4507931-1.206178.4021039-.438671-.0487561-.902122.0730672-1.389013.3655368-.487561.2924027-.877342.8285189-1.170012 1.6083487-.146001.438604-.413891 1.1087325-.804342 2.0103855-.389781.901653-.681782 1.7423609-.877342 2.5221906-.194891.7797628-.389781 1.9007513-.584671 3.3628986-.097111 1.1696776-.316781 2.4490565-.657672 3.8380696-.341561 1.3890131-.706562 2.656203-1.097012 3.8015695-.389781 1.1452996-.767507 2.3149772-1.133178 3.5090999-.365001 1.1940557-.657671 2.2540991-.876672 3.1801301-.21967.9259641-.292671 1.778928-.21967 2.5586908.073.7798297.304725 1.3890131.694506 1.8276841.731342.7797628 1.048122 2.0225745.950342 3.7284354l-.219 2.4856235-4.605711.1462014c-3.070696.1462013-4.849491-.0853232-5.337052-.6945066-.487561-.6092503-.584671-1.2915679-.29267-2.0470196.29267-.7553847.853232-1.2793119 1.681684-1.5717815.682451-.2924027 1.096342-.877275 1.243012-1.7545499.146001-.877275.304726-2.0713307.474836-3.5822341.170781-1.5108364.597397-2.8998495 1.279848-4.1670393.925562-1.7057939 1.389013-2.8267824 1.389013-3.3628986 0-.2924027.060945-.5848723.182836-.877275.12122-.2924026.413891-1.1087994.876672-2.4490565.463451-1.3403239.963067-3.1801301 1.498848-5.5195523.926232-3.8990148 1.486793-6.20187 1.681684-6.9085655.19489-.7066956-.292671-1.3524461-1.462013-1.9373184-1.121123-.5848053-1.742629-1.1209215-1.86452-1.6083486-.12189-.4873601.182836-1.1940557.914177-2.1200868.779562-.9747202 2.339356-1.7545499 4.678711-2.3393552z"/><path d="m277.244742 21.5205281c.438671-.5361162.999232-.7310736 1.681684-.5848723.730671.1462014 1.023342 1.6814158.876672 4.6057104-.146001 2.9242275-.657672 5.5073633-1.535014 7.7492734-.438671 1.1209885-.791617 2.5100016-1.060177 4.1670393-.267891 1.6571047-.474836 3.131441-.620837 4.4229419-.14667 1.2915679-.34156 2.5100017-.585341 3.6553682-.24378 1.1452996-.633561 1.9616295-1.169343 2.4490565-.536451.4873601-1.267122.5848054-2.193354.2924027-.975122-.2924027-1.620739-1.0722324-1.93752-2.3394223-.31678-1.2671898-.206945-2.680581.328836-4.2401735 2.291135-6.1409248 3.436368-10.2105189 3.436368-12.2087824 0-1.0722324.304725-2.4734345.913507-4.2036064.609451-1.7301719 1.230958-2.9851727 1.864519-3.7649355zm-15.571815-1.7546169c.243781-1.5108364 1.973685-2.7536482 5.190382-3.7283684 3.216697-.9747872 6.701955-1.6083486 10.454433-1.9008182 3.753148-.2924027 7.225681-.414226 10.417599-.3655368 3.192587.0487561 4.983436.2680915 5.373217.6580064.536451.5361162.792286 1.3768241.768176 2.5221237-.02478 1.1453666-.329505 2.0835866-.914177 2.8145933-.340891.4874271-.694506.7676407-1.060177.8407749-.365671.0730672-.913507.012189-1.644849-.1827684-1.121122-.2924697-4.130204-.438671-9.028585-.438671s-9.491366.1462013-13.780296.438671c-3.655368.2924026-5.580832.2680246-5.775723-.0731342-.09711-.1462013-.09711-.3411588 0-.5848723z"/><path d="m38.7884928 0c7.0903963 0 12.8413392 6.28746099 12.8413392 14.0388775 0 7.7534257-5.7509429 14.0394803-12.8413392 14.0394803s-12.8406695-6.2860546-12.8406695-14.0394803c0-7.75141651 5.7502732-14.0388775 12.8406695-14.0388775"/><path d="m70.2710712 25.6308416c4.5461047 1.4867933 7.8538847 5.7790715 7.8538847 10.8060399v19.992011h-14.4012666v-19.1682472c0-1.5330043-.2216795-3.0278343-.6315522-4.4503337z"/><path d="m51.2575979 25.0791878c5.1100146 1.6743167 8.8276673 6.4996973 8.8276673 12.1488418v22.4787061h-42.593277v-22.4787061c0-5.6511536 3.7176528-10.4745251 8.8283371-12.1488418l8.151913 8.1505736c2.3741811 2.3755205 6.2585958 2.3755205 8.6334466 0z"/><path d="m50.9956678 29.741423-6.0583474 6.0576778c-3.3854684 3.3854683-8.9120529 3.3854683-12.2961818 0l-6.0583475-6.0576778c-2.6748883 1.5376925-4.4148382 4.4188566-4.4148382 7.5900124v17.7115917h33.2418835v-17.7115917c0-3.1711558-1.7399499-6.0523199-4.4141686-7.5900124"/><path d="m38.7884928 4.68138945c-4.9680325 0-8.3106383 4.6548013-8.3106383 9.35695225 0 4.7014813 3.3426058 9.3574211 8.3106383 9.3574211 4.9687022 0 8.311308-4.6572793 8.311308-9.3574211 0-4.70148122-3.3426058-9.35695225-8.311308-9.35695225"/><path d="m7.8538847 25.6308416c-4.54610466 1.4867933-7.8538847 5.7790715-7.8538847 10.8060399v19.992011h14.5169954v-19.1682472c0-1.499518.2116336-2.96488.6074421-4.3612601l-.0180826-.019422z"/><path d="m18.9452281 3.17383471c-6.3074858 0-11.4228581 5.59215075-11.4228581 12.48765659 0 6.3382932 4.3210765 11.5735466 9.9166429 12.3798976 1.8290235-2.6065763 4.4242144-4.6713436 7.5170121-5.8373377-1.2758293-2.5134842-1.9830606-5.3631712-1.9830606-8.2979135 0-3.0968162.7896077-6.09987056 2.2013915-8.71106789-1.7915188-1.27850822-3.9319653-2.0212351-6.2291278-2.0212351"/><path d="m59.1812012 3.17383471c6.3068161 0 11.4213847 5.59215075 11.4213847 12.48765659 0 6.2994491-4.2666946 11.5099226-9.8106921 12.3651636-1.8296932-2.599879-4.4222052-4.6586188-7.5083057-5.8226037 1.2751596-2.5134842 1.982391-5.3631712 1.982391-8.2979135 0-3.1195869-.798984-6.14407252-2.2315293-8.77067357 1.7761151-1.24100352 3.8830752-1.96162942 6.1467514-1.96162942"/><path d="m39.4229249 40.2235831 1.3930314 4.3237554 4.5434258-.0066973c.3194596 0 .5920384.1968997.6911579.4996161.0984499.3053954-.0053578.6261945-.2652117.8130482l-3.6821573 2.6621636 1.4117838 4.3190673c.0991196.3047256-.004688.6255247-.264542.8123784-.2585145.1888629-.5967265.1888629-.8545712 0l-3.668093-2.6795764-3.6727811 2.6755581c-.2578448.1875234-.5947173.1902023-.8545712.0026789-.2578448-.1895327-.3616524-.5103318-.2625329-.8150574l1.413793-4.3163884-3.6801481-2.6668516c-.257175-.186184-.3609826-.5076528-.2618631-.8117087.0991196-.3060651.3703589-.5016253.6904882-.5009556l4.5434258.0113854 1.3977195-4.3250949c.0991196-.3047256.3710286-.5016253.6904882-.5016253.3207991 0 .5920384.1982391.691158.5043042"/></g></svg>