<svg height="83" viewBox="0 0 235 83" width="235" xmlns="http://www.w3.org/2000/svg" xmlns:xlink="http://www.w3.org/1999/xlink"><mask id="a" fill="#fff"><path d="m42.9863528 0h-42.39631731v82.76605h42.39631731z" fill="#fff" fill-rule="evenodd"/></mask><g fill="none" fill-rule="evenodd"><g fill="#373760" transform="translate(64 29)"><path d="m8.8286 18.9381c2.163 0 4.219-1.623 4.869-2.705v-3.462c-.325-.216-1.84-.865-3.787-.865-2.597 0-4.382 1.352-4.382 3.57 0 1.947 1.299 3.462 3.3 3.462m.649-10.386c2.272 0 4.274.649 4.274.649.053-3.408-.596-4.76-3.355-4.76-2.488 0-4.922.649-6.058.973-.649.162-1.028-.27-1.19-.865l-.433-2.002c-.162-.703.216-1.082.703-1.244.379-.163 3.462-1.244 7.466-1.244 6.924 0 7.573 4.219 7.573 9.629v11.521c0 .542-.488 1.029-1.028 1.029h-1.515c-.487 0-.703-.217-.919-.758l-.541-1.46c-1.191 1.136-3.3 2.758-6.654 2.758-4.057 0-6.978-2.758-6.978-7.248 0-3.949 3.137-6.978 8.655-6.978"/><path d="m35.009.0588c3.3 0 5.842 1.352 7.844 3.84.378.488.27 1.137-.217 1.515l-1.785 1.623c-.649.595-1.028.163-1.46-.216-.974-1.082-2.543-2.056-4.328-2.056-3.516 0-6.275 2.976-6.275 6.654 0 3.732 2.705 6.708 6.221 6.708 2.759 0 3.895-1.407 5.031-2.488.487-.488.973-.488 1.46-.109l1.461 1.19c.541.433.757.974.379 1.515-1.732 2.759-4.652 4.544-8.385 4.544-6.059 0-11.306-4.815-11.306-11.306 0-6.383 5.356-11.414 11.36-11.414"/><path d="m48.7484 1.6277c0-.541.487-1.028 1.027-1.028h1.515c.488 0 .758.271.92.649l.595 1.84c.487-.488 2.975-3.03 7.141-3.03 3.137 0 5.409 1.244 6.978 3.462.595-.595 3.732-3.462 7.843-3.462 6.6 0 8.926 4.652 8.926 10.278v10.873c0 .541-.433 1.028-1.028 1.028h-3.029c-.595 0-1.028-.487-1.028-1.028v-11.089c0-3.408-1.568-5.356-4.49-5.356-3.299 0-5.193 2.327-5.572 2.651.109.487.163 1.515.163 2.597v11.197c0 .541-.487 1.028-1.028 1.028h-2.867c-.595 0-1.028-.487-1.028-1.028v-11.089c0-3.463-1.569-5.356-4.598-5.356-3.245 0-5.085 2.543-5.355 3.246v13.199c0 .541-.487 1.028-1.028 1.028h-3.03c-.54 0-1.027-.487-1.027-1.028z"/><path d="m104.6268 9.0385c-.162-2.596-2.326-4.814-4.976-4.814-2.921 0-5.194 2.109-5.518 4.814zm-4.922-8.98c5.625 0 9.953 4.22 9.953 10.008 0 .378-.054 1.082-.108 1.46-.054.542-.487.92-.974.92h-14.714c.163 2.921 2.705 5.788 6.221 5.788 1.948 0 3.733-.865 4.815-1.569.649-.378 1.028-.595 1.46-.054l1.515 2.056c.379.433.541.866-.108 1.406-1.569 1.353-4.382 2.705-8.007 2.705-6.545 0-10.872-5.139-10.872-11.36 0-6.113 4.327-11.36 10.819-11.36z"/><path d="m136.4867.0588c3.3 0 5.842 1.352 7.844 3.84.378.488.27 1.137-.217 1.515l-1.785 1.623c-.649.595-1.028.163-1.46-.216-.974-1.082-2.543-2.056-4.328-2.056-3.516 0-6.275 2.976-6.275 6.654 0 3.732 2.705 6.708 6.221 6.708 2.759 0 3.895-1.407 5.031-2.488.487-.488.973-.488 1.46-.109l1.461 1.19c.541.433.757.974.379 1.515-1.732 2.759-4.652 4.544-8.385 4.544-6.059 0-11.306-4.815-11.306-11.306 0-6.383 5.356-11.414 11.36-11.414"/><path d="m159.5292 18.1265c3.409 0 6.113-3.03 6.113-6.762 0-3.624-2.704-6.6-6.113-6.6-3.408 0-6.113 2.976-6.113 6.6 0 3.732 2.705 6.762 6.113 6.762m0-18.068c6.059 0 10.928 5.194 10.928 11.306 0 6.221-4.869 11.414-10.928 11.414-6.058 0-10.927-5.193-10.927-11.414 0-6.112 4.869-11.306 10.927-11.306"/></g><path d="m21.4501 40.4183c-3.135-.037-5.705-2.607-5.742-5.744-.036-3.135 2.477-5.647 5.612-5.612 3.136.035 5.707 2.607 5.743 5.743.037 3.137-2.476 5.649-5.613 5.613m12.721 11.702s4.986-35.847-11.52-49.271l-.893-2.452c-.19-.521-.923-.533-1.129-.017l-.972 2.428c-16.213 13.043-10.516 49.025-10.516 49.025-12.534 9.85-9.485 6.159-2.332 23.531 1.363 3.317 3.753 2.535 4.834.141 1.08-2.391 3.466-7.673 3.466-7.673h1.133l4.379 13.991c.393 1.257 2.172 1.257 2.566 0l4.378-13.991h1.04s2.59 5.494 3.726 7.912c1.136 2.419 3.543 3.255 4.832-.031 6.755-17.212 9.771-13.453-2.992-23.593" fill="#373760" mask="url(#a)"/></g></svg>