<svg viewBox="0 0 491.1 71.76" xmlns="http://www.w3.org/2000/svg" xmlns:xlink="http://www.w3.org/1999/xlink"><linearGradient id="a" gradientUnits="userSpaceOnUse" x1="42.66" x2="42.66" y1="50.35" y2="20.14"><stop offset=".18" stop-color="#0052cc"/><stop offset="1" stop-color="#2684ff"/></linearGradient><g fill="#253858"><path d="m107.51 65.68c-11.18 0-16.37-2.2-20.86-4.49v-8.09c5.35 2.81 13.65 4.84 21.35 4.84 8.71 0 12-3.43 12-8.54s-3.17-7.83-14.17-10.47c-13-3.17-18.83-7.66-18.83-17.16 0-9 6.86-15.66 20.33-15.66 8.36 0 13.73 2 17.69 4.22v7.92a35.53 35.53 0 0 0 -18-4.4c-7.57 0-12.06 2.64-12.06 7.92 0 4.75 3.7 7.13 13.9 9.68 12.23 3.08 19.1 7 19.1 17.42-.12 10.04-6.11 16.81-20.45 16.81z"/><path d="m134.53 42.71c0-13.2 7.74-22.79 20.94-22.79s20.77 9.59 20.77 22.79-7.66 23-20.77 23-20.94-9.8-20.94-23zm7.39 0c0 8.36 4.14 15.93 13.55 15.93s13.38-7.57 13.38-15.93-4.05-15.71-13.38-15.71-13.55 7.36-13.55 15.71z"/><path d="m184.16 20.8h7.57v26.58c0 7.92 3.17 11.44 10.38 11.44 7 0 11.88-4.66 11.88-13.55v-24.47h7.57v44h-7.56v-7.21a15.43 15.43 0 0 1 -13.9 8.1c-10.12 0-15.93-7-15.93-19.1z"/><path d="m233 20.8h7.39v7.74c2.55-5.19 7-8.89 15.58-8.36v7.39c-9.68-1-15.58 1.94-15.58 11.26v26h-7.39z"/><path d="m292.66 63.66c-2.64 1.41-6.69 2-10.74 2-15.66 0-23-9.5-23-23 0-13.29 7.3-22.79 23-22.79a23.26 23.26 0 0 1 10.48 2.13v7a22.18 22.18 0 0 0 -9.95-2c-11.44 0-16.1 7.22-16.1 15.75s4.75 15.75 16.28 15.75a27.8 27.8 0 0 0 10-1.58z"/><path d="m322.32 65.68c-16.46 0-23.67-9.5-23.67-23 0-13.29 7.39-22.79 20.77-22.79 13.55 0 19 9.42 19 22.79v3.43h-32.12c1.06 7.48 5.9 12.32 16.28 12.32a39 39 0 0 0 13.42-2.34v7c-3.65 1.91-9.2 2.59-13.68 2.59zm-16.1-26h24.55c-.44-8.18-4.14-12.85-11.7-12.85-8.02-.04-12.07 5.17-12.86 12.8z"/><path d="m364.82 57.41a24 24 0 0 0 4.75-.62v7.3a18.19 18.19 0 0 1 -5.1.7c-9.42 0-14-5.54-14-13.73v-23.22h-7.13v-7h7.13v-9.36h7.39v9.32h11.7v7h-11.7v23.1c.01 3.87 2.3 6.51 6.96 6.51z"/><path d="m379.25 20.8h7.39v7.74c2.55-5.19 7-8.89 15.58-8.36v7.39c-9.68-1-15.58 1.94-15.58 11.26v26h-7.39z"/><path d="m428.88 65.68c-16.46 0-23.67-9.5-23.67-23 0-13.29 7.39-22.79 20.77-22.79 13.55 0 19 9.42 19 22.79v3.43h-32.11c1.06 7.48 5.9 12.32 16.28 12.32a39 39 0 0 0 13.38-2.38v7c-3.61 1.95-9.16 2.63-13.65 2.63zm-16.1-26h24.55c-.44-8.18-4.14-12.85-11.7-12.85-8.01-.04-12.06 5.17-12.85 12.8z"/><path d="m475 65.68c-16.46 0-23.67-9.5-23.67-23 0-13.29 7.39-22.79 20.77-22.79 13.55 0 19 9.42 19 22.79v3.43h-32.1c1.06 7.48 5.9 12.32 16.28 12.32a39 39 0 0 0 13.38-2.38v7c-3.66 1.95-9.18 2.63-13.66 2.63zm-16.1-26h24.55c-.44-8.18-4.14-12.85-11.7-12.85-8.02-.04-12.07 5.17-12.86 12.8z"/></g><path d="m56.88 28.44a28.44 28.44 0 0 0 -28.44-28.44 28.43 28.43 0 0 0 -8.79 55.48v14.25a2 2 0 0 0 2 2h13.5a2 2 0 0 0 2-2v-14.24a28.45 28.45 0 0 0 19.73-27.05zm-28.44 9.61a9.61 9.61 0 1 1 0-19.23 9.61 9.61 0 0 1 0 19.23z" fill="#2684ff"/><path d="m28.44 0v18.83a9.61 9.61 0 0 1 0 19.23 8.79 8.79 0 0 1 8.79 8.79v8.65a28.44 28.44 0 0 0 -8.79-55.5z" fill="url(#a)"/></svg>