<svg enable-background="new 0 0 100 50" viewBox="0 0 100 50" xmlns="http://www.w3.org/2000/svg"><path d="m41.6 17.9c3.9 0 6.1 2 6.1 7.1s-2.2 7.1-6.1 7.1h-4.9v-14.2zm-.1 11.7c1.8 0 2.9-.8 2.9-4.6s-1.1-4.6-2.9-4.6h-1.6v9.3h1.6zm17-11.7c.1.3.2.7.2 1.1 0 .5-.1.9-.2 1.3h-5.5v3.4h4.5c.1.3.2.7.2 1.2s-.1.9-.2 1.2h-4.5v3.6h5.7c.1.3.2.7.2 1.2 0 .4-.1.9-.2 1.2h-8.8v-14.2zm2.4.2s.6-.2 1.6-.2 1.6.2 1.6.2v13.8s-.6.2-1.6.2-1.6-.2-1.6-.2zm10.5-.4c2.6 0 4.1.7 4.1.7 0 .8-.3 1.7-.8 2.3 0 0-1.3-.4-2.9-.4-1.7 0-2.5.5-2.5 1.5 0 1.1 1.6 1.3 3.3 1.9s3.5 1.6 3.5 4.2c0 2.9-1.8 4.4-5.3 4.4-2.9 0-4.7-1-4.7-1 0-.8.3-1.8.8-2.4 0 0 1.8.6 3.8.6 1.6 0 2.3-.5 2.3-1.5 0-.9-.9-1.3-2-1.7-2-.7-4.7-1.2-4.7-4.4-.1-2.5 1.5-4.2 5.1-4.2zm15.4.2c.1.3.2.7.2 1.1 0 .5-.1.9-.2 1.3h-5.5v3.4h4.5c.1.3.2.7.2 1.2s-.1.9-.2 1.2h-4.5v3.6h5.7c.1.3.2.7.2 1.2 0 .4-.1.9-.2 1.2h-8.8v-14.2zm7.8 0c3 0 4.7 1.8 4.7 4.4 0 1.9-.9 3.3-2.5 3.9l3.2 5.7s-.7.2-1.8.2-1.7-.2-1.7-.2l-2.9-5.3h-1.2v5.3s-.6.2-1.6.2c-1.1 0-1.6-.2-1.6-.2v-14zm-2.3 6.3h1.8c1.2 0 1.8-.7 1.8-1.9s-.6-1.9-1.8-1.9h-1.8z" fill="#35297f"/><path d="m0 17.8v6.4l12-6.9v-6.4z" fill="#df0084"/><path d="m24.3 32.2-5.5-3.2-11.9 6.9 5.5 3.2z" fill="#5d1b7f"/><path d="m24.7 31.5v-13.7l-11.9-6.9v6.4l6.3 3.7v7.3z" fill="#35297f"/><path d="m.4 24.9 5 2.9v-5.8z" fill="#b3007f"/><path d="m6.2 35.4 5.5-3.2v-7.3l-5.5-3.1z" fill="#870c80"/></svg>